M48
; DRILL file {KiCad 8.0.5} date 2024-10-28T13:04:24+0100
; FORMAT={-:-/ absolute / inch / decimal}
; #@! TF.CreationDate,2024-10-28T13:04:24+01:00
; #@! TF.GenerationSoftware,Kicad,Pcbnew,8.0.5
; #@! TF.FileFunction,Plated,1,2,PTH
FMAT,2
INCH
; #@! TA.AperFunction,Plated,PTH,ViaDrill
T1C0.0079
; #@! TA.AperFunction,Plated,PTH,ViaDrill
T2C0.0118
; #@! TA.AperFunction,Plated,PTH,ComponentDrill
T3C0.0157
; #@! TA.AperFunction,Plated,PTH,ViaDrill
T4C0.0197
; #@! TA.AperFunction,Plated,PTH,ComponentDrill
T5C0.0394
; #@! TA.AperFunction,Plated,PTH,ComponentDrill
T6C0.0866
%
G90
G05
T1
X4.42Y-4.6
X4.42Y-4.71
X4.56Y-4.6
X4.56Y-4.71
X4.89Y-2.74
X4.9Y-4.89
X5.0112Y-2.67
X5.04Y-4.78
X5.04Y-4.89
X5.09Y-5.38
X5.1325Y-2.6
X5.18Y-4.78
X5.18Y-4.89
X5.2112Y-5.45
X5.2537Y-2.53
X5.31Y-4.0
X5.31Y-4.11
X5.32Y-4.78
X5.3325Y-5.52
X5.375Y-2.46
X5.45Y-4.0
X5.45Y-4.11
X5.4537Y-5.59
X5.4962Y-2.39
X5.575Y-5.66
X5.62Y-4.94
X5.6962Y-5.73
X5.72Y-5.15
X5.77Y-5.24
X5.7783Y-5.1717
X5.79Y-5.21
X5.84Y-5.4
X5.89Y-5.01
X5.92Y-5.23
X5.92Y-5.27
X5.9203Y-5.1122
X5.95Y-5.13
X5.97Y-5.34
X6.03Y-5.15
X6.04Y-5.11
X6.07Y-2.81
X6.07Y-2.92
X6.07Y-5.11
X6.08Y-5.19
X6.17Y-5.4
X6.21Y-2.81
X6.21Y-2.92
X6.23Y-5.35
X6.2355Y-5.2141
X6.2357Y-5.2457
X6.2363Y-5.1511
X6.2372Y-5.2772
X6.3571Y-2.7989
X6.42Y-3.28
X6.44Y-3.04
X6.4421Y-2.8461
X6.48Y-3.43
X6.4858Y-3.8046
X6.4964Y-2.6587
X6.53Y-2.8965
X6.53Y-2.41
X6.54Y-3.48
X6.5834Y-2.7075
X6.6Y-3.34
X6.6Y-4.25
X6.6051Y-3.7529
X6.6055Y-3.6512
X6.6055Y-3.7019
X6.6057Y-3.5997
X6.61Y-3.19
X6.6157Y-2.9468
X6.62Y-3.5745
X6.6201Y-3.7272
X6.6204Y-3.676
X6.6211Y-3.6254
X6.6276Y-4.0135
X6.63Y-3.13
X6.63Y-3.16
X6.63Y-3.23
X6.65Y-5.01
X6.6512Y-2.48
X6.66Y-3.24
X6.66Y-4.23
X6.6682Y-2.7543
X6.67Y-5.07
X6.7Y-3.83
X6.7Y-3.88
X6.7Y-4.53
X6.702Y-2.9947
X6.7149Y-3.9067
X6.7152Y-3.8553
X6.7161Y-3.8046
X6.7536Y-4.5136
X6.7543Y-2.8045
X6.7625Y-4.2597
X6.7725Y-2.55
X6.78Y-4.46
X6.7875Y-4.5175
X6.7884Y-3.0432
X6.8004Y-4.41
X6.82Y-4.38
X6.83Y-4.15
X6.8415Y-2.8551
X6.87Y-4.59
X6.8937Y-2.62
X6.8988Y-5.36
X6.9Y-4.6
X6.9276Y-2.903
X6.94Y-4.58
X6.9762Y-4.3418
X7.015Y-2.69
X7.02Y-5.29
X7.06Y-4.38
X7.08Y-3.45
X7.09Y-3.48
X7.1Y-3.51
X7.11Y-3.54
X7.1198Y-3.8596
X7.12Y-3.91
X7.12Y-4.15
X7.1206Y-3.9578
X7.1362Y-2.76
X7.1394Y-3.2
X7.1394Y-3.35
X7.14Y-3.25
X7.14Y-3.3
X7.1412Y-5.22
X7.15Y-3.77
X7.22Y-4.23
X7.34Y-3.59
X7.34Y-4.2998
X7.37Y-3.58
X7.4Y-3.57
X7.43Y-3.56
X7.65Y-3.21
X7.65Y-3.26
X7.65Y-3.31
X7.65Y-3.36
X7.65Y-3.43
X7.65Y-3.57
X7.65Y-3.71
X7.65Y-3.79
X7.65Y-3.85
X7.65Y-3.91
X7.65Y-3.97
T2
X4.4Y-4.23
X4.6167Y-3.9853
X4.68Y-3.7
X4.68Y-3.86
X4.86Y-3.83
X4.9Y-3.92
X4.99Y-4.26
X5.0725Y-3.4085
X5.7048Y-3.4552
X5.7434Y-4.83
X5.7669Y-4.42
X5.8469Y-4.48
X5.86Y-4.66
X5.9Y-2.92
X5.91Y-5.48
X6.17Y-5.48
X6.27Y-4.94
X6.3Y-4.66
X6.3632Y-5.0427
X6.58Y-5.28
X6.94Y-4.3
T3
X4.9528Y-4.0
X4.9718Y-3.9541
X4.9718Y-4.0459
X5.0177Y-3.935
X5.0177Y-4.065
X5.0637Y-3.9541
X5.0637Y-4.0459
X5.0827Y-4.0
X5.4439Y-3.1493
X5.4439Y-4.8507
X5.4629Y-3.1034
X5.4629Y-3.1953
X5.4629Y-4.8047
X5.4629Y-4.8966
X5.5089Y-3.0844
X5.5089Y-3.2143
X5.5089Y-4.7857
X5.5089Y-4.9156
X5.5548Y-3.1034
X5.5548Y-3.1953
X5.5548Y-4.8047
X5.5548Y-4.8966
X5.5738Y-3.1493
X5.5738Y-4.8507
X6.4262Y-3.1493
X6.4262Y-4.8507
X6.4452Y-3.1034
X6.4452Y-3.1953
X6.4452Y-4.8047
X6.4452Y-4.8966
X6.4911Y-3.0844
X6.4911Y-3.2143
X6.4911Y-4.7857
X6.4911Y-4.9156
X6.5371Y-3.1034
X6.5371Y-3.1953
X6.5371Y-4.8047
X6.5371Y-4.8966
X6.5561Y-3.1493
X6.5561Y-4.8507
X6.9173Y-4.0
X6.9363Y-3.9541
X6.9363Y-4.0459
X6.9823Y-3.935
X6.9823Y-4.065
X7.0282Y-3.9541
X7.0282Y-4.0459
X7.0472Y-4.0
T4
X5.07Y-3.5
X5.07Y-3.6
X5.07Y-3.7
X5.07Y-3.8
X5.1834Y-3.33
X5.27Y-3.28
X5.3566Y-3.23
X5.6368Y-3.07
X5.7234Y-3.02
X5.81Y-2.97
T5
X4.4707Y-4.0008
X4.4707Y-4.0992
X4.5402Y-4.92
X4.6268Y-4.97
X4.7102Y-4.32
X4.7134Y-5.02
X4.8Y-5.07
X4.8102Y-4.32
X4.8866Y-5.12
X4.9732Y-5.17
X5.0598Y-5.22
X5.1464Y-5.27
X5.32Y-5.04
X5.42Y-5.04
X5.52Y-5.04
X5.62Y-5.04
X5.72Y-5.04
X5.97Y-4.8502
X5.97Y-4.7502
X6.2335Y-5.685
X6.3201Y-5.635
X6.4067Y-5.585
X6.4933Y-5.535
X6.5799Y-5.485
X6.6665Y-5.435
T6
X5.0177Y-4.0
X5.5089Y-3.1493
X5.5089Y-4.8507
X6.4911Y-3.1493
X6.4911Y-4.8507
X6.9823Y-4.0
M30
