%TF.GenerationSoftware,KiCad,Pcbnew,8.0.5*%
%TF.CreationDate,2024-10-28T13:04:21+01:00*%
%TF.ProjectId,Hexapod_kiCad,48657861-706f-4645-9f6b-694361642e6b,rev?*%
%TF.SameCoordinates,Original*%
%TF.FileFunction,Legend,Top*%
%TF.FilePolarity,Positive*%
%FSLAX46Y46*%
G04 Gerber Fmt 4.6, Leading zero omitted, Abs format (unit mm)*
G04 Created by KiCad (PCBNEW 8.0.5) date 2024-10-28 13:04:21*
%MOMM*%
%LPD*%
G01*
G04 APERTURE LIST*
%ADD10C,0.150000*%
%ADD11C,0.200000*%
%ADD12C,0.100000*%
%ADD13C,0.120000*%
%ADD14C,0.317500*%
%ADD15C,0.685000*%
%ADD16C,0.254000*%
%ADD17C,0.152400*%
%ADD18C,0.313500*%
%ADD19C,0.409208*%
%ADD20C,0.409209*%
%ADD21C,0.300000*%
%ADD22C,0.617961*%
G04 APERTURE END LIST*
D10*
X167073142Y-75394693D02*
X166660748Y-75156598D01*
X167298477Y-75194877D02*
X166509802Y-75894235D01*
X166509802Y-75894235D02*
X166721127Y-74861543D01*
X166014930Y-75608521D02*
X165478819Y-75298997D01*
X165478819Y-75298997D02*
X165957971Y-75135749D01*
X165957971Y-75135749D02*
X165834253Y-75064321D01*
X165834253Y-75064321D02*
X165775584Y-74975462D01*
X165775584Y-74975462D02*
X165758154Y-74910414D01*
X165758154Y-74910414D02*
X165764534Y-74804126D01*
X165764534Y-74804126D02*
X165883581Y-74597929D01*
X165883581Y-74597929D02*
X165972440Y-74539260D01*
X165972440Y-74539260D02*
X166037488Y-74521830D01*
X166037488Y-74521830D02*
X166143777Y-74528210D01*
X166143777Y-74528210D02*
X166391212Y-74671067D01*
X166391212Y-74671067D02*
X166449882Y-74759925D01*
X166449882Y-74759925D02*
X166467311Y-74824974D01*
X173677142Y-79204693D02*
X173264748Y-78966598D01*
X173902477Y-79004877D02*
X173113802Y-79704235D01*
X173113802Y-79704235D02*
X173325127Y-78671543D01*
X172371495Y-79275664D02*
X172289016Y-79228045D01*
X172289016Y-79228045D02*
X172230347Y-79139186D01*
X172230347Y-79139186D02*
X172212917Y-79074138D01*
X172212917Y-79074138D02*
X172219297Y-78967849D01*
X172219297Y-78967849D02*
X172273296Y-78779083D01*
X172273296Y-78779083D02*
X172392343Y-78572886D01*
X172392343Y-78572886D02*
X172528821Y-78431739D01*
X172528821Y-78431739D02*
X172617679Y-78373069D01*
X172617679Y-78373069D02*
X172682728Y-78355640D01*
X172682728Y-78355640D02*
X172789016Y-78362019D01*
X172789016Y-78362019D02*
X172871495Y-78409638D01*
X172871495Y-78409638D02*
X172930164Y-78498497D01*
X172930164Y-78498497D02*
X172947593Y-78563546D01*
X172947593Y-78563546D02*
X172941214Y-78669834D01*
X172941214Y-78669834D02*
X172887215Y-78858600D01*
X172887215Y-78858600D02*
X172768167Y-79064797D01*
X172768167Y-79064797D02*
X172631690Y-79205945D01*
X172631690Y-79205945D02*
X172542832Y-79264614D01*
X172542832Y-79264614D02*
X172477783Y-79282044D01*
X172477783Y-79282044D02*
X172371495Y-79275664D01*
X171391142Y-77934693D02*
X170978748Y-77696598D01*
X171616477Y-77734877D02*
X170827802Y-78434235D01*
X170827802Y-78434235D02*
X171039127Y-77401543D01*
X170296819Y-76972972D02*
X170791691Y-77258686D01*
X170544255Y-77115829D02*
X170044255Y-77981854D01*
X170044255Y-77981854D02*
X170198162Y-77905755D01*
X170198162Y-77905755D02*
X170328260Y-77870896D01*
X170328260Y-77870896D02*
X170434548Y-77877276D01*
X162501142Y-72854693D02*
X162088748Y-72616598D01*
X162726477Y-72654877D02*
X161937802Y-73354235D01*
X161937802Y-73354235D02*
X162149127Y-72321543D01*
X160948059Y-72782807D02*
X161360452Y-73020902D01*
X161360452Y-73020902D02*
X161639786Y-72632318D01*
X161639786Y-72632318D02*
X161574737Y-72649748D01*
X161574737Y-72649748D02*
X161468449Y-72643368D01*
X161468449Y-72643368D02*
X161262253Y-72524321D01*
X161262253Y-72524321D02*
X161203584Y-72435462D01*
X161203584Y-72435462D02*
X161186154Y-72370414D01*
X161186154Y-72370414D02*
X161192534Y-72264126D01*
X161192534Y-72264126D02*
X161311581Y-72057929D01*
X161311581Y-72057929D02*
X161400440Y-71999260D01*
X161400440Y-71999260D02*
X161465488Y-71981830D01*
X161465488Y-71981830D02*
X161571777Y-71988210D01*
X161571777Y-71988210D02*
X161777973Y-72107257D01*
X161777973Y-72107257D02*
X161836642Y-72196116D01*
X161836642Y-72196116D02*
X161854072Y-72261165D01*
D11*
X115936095Y-128567687D02*
X116282505Y-128767687D01*
X116116681Y-129397761D02*
X115621809Y-129112046D01*
X115621809Y-129112046D02*
X116221809Y-128072816D01*
X116221809Y-128072816D02*
X116716681Y-128358530D01*
X116463091Y-129597760D02*
X117407449Y-129219226D01*
X116863091Y-128904940D02*
X117007449Y-129912046D01*
X117654886Y-129362083D02*
X118050783Y-129590655D01*
X118003347Y-129101387D02*
X117489061Y-129992156D01*
X117489061Y-129992156D02*
X117481406Y-130119702D01*
X117481406Y-130119702D02*
X117551809Y-130226332D01*
X117551809Y-130226332D02*
X117650783Y-130283475D01*
X118421662Y-130662559D02*
X118294116Y-130654903D01*
X118294116Y-130654903D02*
X118096167Y-130540618D01*
X118096167Y-130540618D02*
X118025764Y-130433988D01*
X118025764Y-130433988D02*
X118033420Y-130306442D01*
X118033420Y-130306442D02*
X118261991Y-129910545D01*
X118261991Y-129910545D02*
X118368621Y-129840142D01*
X118368621Y-129840142D02*
X118496167Y-129847797D01*
X118496167Y-129847797D02*
X118694116Y-129962083D01*
X118694116Y-129962083D02*
X118764519Y-130068713D01*
X118764519Y-130068713D02*
X118756863Y-130196259D01*
X118756863Y-130196259D02*
X118699720Y-130295233D01*
X118699720Y-130295233D02*
X118147706Y-130108493D01*
X119287961Y-130304940D02*
X118887961Y-130997760D01*
X119230819Y-130403914D02*
X119308877Y-130382999D01*
X119308877Y-130382999D02*
X119436423Y-130390654D01*
X119436423Y-130390654D02*
X119584884Y-130476369D01*
X119584884Y-130476369D02*
X119655287Y-130582999D01*
X119655287Y-130582999D02*
X119647632Y-130710544D01*
X119647632Y-130710544D02*
X119333346Y-131254903D01*
X119807302Y-131462559D02*
X119877704Y-131569189D01*
X119877704Y-131569189D02*
X120075653Y-131683474D01*
X120075653Y-131683474D02*
X120203199Y-131691130D01*
X120203199Y-131691130D02*
X120309829Y-131620727D01*
X120309829Y-131620727D02*
X120338400Y-131571240D01*
X120338400Y-131571240D02*
X120346056Y-131443694D01*
X120346056Y-131443694D02*
X120275653Y-131337064D01*
X120275653Y-131337064D02*
X120127192Y-131251350D01*
X120127192Y-131251350D02*
X120056789Y-131144720D01*
X120056789Y-131144720D02*
X120064444Y-131017174D01*
X120064444Y-131017174D02*
X120093016Y-130967687D01*
X120093016Y-130967687D02*
X120199646Y-130897284D01*
X120199646Y-130897284D02*
X120327192Y-130904940D01*
X120327192Y-130904940D02*
X120475653Y-130990654D01*
X120475653Y-130990654D02*
X120546056Y-131097284D01*
X120669500Y-132026332D02*
X121069500Y-131333511D01*
X121269500Y-130987101D02*
X121191441Y-131008017D01*
X121191441Y-131008017D02*
X121212357Y-131086076D01*
X121212357Y-131086076D02*
X121290415Y-131065160D01*
X121290415Y-131065160D02*
X121269500Y-130987101D01*
X121269500Y-130987101D02*
X121212357Y-131086076D01*
X121312833Y-132397761D02*
X121242430Y-132291131D01*
X121242430Y-132291131D02*
X121221514Y-132213072D01*
X121221514Y-132213072D02*
X121229170Y-132085526D01*
X121229170Y-132085526D02*
X121400599Y-131788603D01*
X121400599Y-131788603D02*
X121507229Y-131718200D01*
X121507229Y-131718200D02*
X121585287Y-131697285D01*
X121585287Y-131697285D02*
X121712833Y-131704940D01*
X121712833Y-131704940D02*
X121861295Y-131790655D01*
X121861295Y-131790655D02*
X121931697Y-131897285D01*
X121931697Y-131897285D02*
X121952613Y-131975343D01*
X121952613Y-131975343D02*
X121944957Y-132102889D01*
X121944957Y-132102889D02*
X121773529Y-132399812D01*
X121773529Y-132399812D02*
X121666899Y-132470215D01*
X121666899Y-132470215D02*
X121588840Y-132491131D01*
X121588840Y-132491131D02*
X121461295Y-132483475D01*
X121461295Y-132483475D02*
X121312833Y-132397761D01*
X122504627Y-132162083D02*
X122104627Y-132854903D01*
X122447485Y-132261057D02*
X122525543Y-132240142D01*
X122525543Y-132240142D02*
X122653089Y-132247797D01*
X122653089Y-132247797D02*
X122801550Y-132333512D01*
X122801550Y-132333512D02*
X122871953Y-132440142D01*
X122871953Y-132440142D02*
X122864298Y-132567687D01*
X122864298Y-132567687D02*
X122550012Y-133112046D01*
X123836678Y-133854903D02*
X124436678Y-132815673D01*
X124436678Y-132815673D02*
X124832576Y-133044244D01*
X124832576Y-133044244D02*
X124902978Y-133150874D01*
X124902978Y-133150874D02*
X124923894Y-133228933D01*
X124923894Y-133228933D02*
X124916239Y-133356479D01*
X124916239Y-133356479D02*
X124830524Y-133504940D01*
X124830524Y-133504940D02*
X124723894Y-133575343D01*
X124723894Y-133575343D02*
X124645836Y-133596259D01*
X124645836Y-133596259D02*
X124518290Y-133588603D01*
X124518290Y-133588603D02*
X124122393Y-133360032D01*
X124875909Y-134454903D02*
X125275909Y-133762083D01*
X125475909Y-133415673D02*
X125397850Y-133436589D01*
X125397850Y-133436589D02*
X125418766Y-133514647D01*
X125418766Y-133514647D02*
X125496824Y-133493731D01*
X125496824Y-133493731D02*
X125475909Y-133415673D01*
X125475909Y-133415673D02*
X125418766Y-133514647D01*
X125770781Y-134047797D02*
X125370781Y-134740618D01*
X125713638Y-134146772D02*
X125791696Y-134125856D01*
X125791696Y-134125856D02*
X125919242Y-134133512D01*
X125919242Y-134133512D02*
X126067704Y-134219226D01*
X126067704Y-134219226D02*
X126138107Y-134325856D01*
X126138107Y-134325856D02*
X126130451Y-134453402D01*
X126130451Y-134453402D02*
X125816165Y-134997761D01*
X126290121Y-135205416D02*
X126360524Y-135312046D01*
X126360524Y-135312046D02*
X126558472Y-135426332D01*
X126558472Y-135426332D02*
X126686018Y-135433988D01*
X126686018Y-135433988D02*
X126792648Y-135363585D01*
X126792648Y-135363585D02*
X126821220Y-135314098D01*
X126821220Y-135314098D02*
X126828875Y-135186552D01*
X126828875Y-135186552D02*
X126758472Y-135079922D01*
X126758472Y-135079922D02*
X126610011Y-134994207D01*
X126610011Y-134994207D02*
X126539608Y-134887577D01*
X126539608Y-134887577D02*
X126547264Y-134760032D01*
X126547264Y-134760032D02*
X126575835Y-134710545D01*
X126575835Y-134710545D02*
X126682465Y-134640142D01*
X126682465Y-134640142D02*
X126810011Y-134647797D01*
X126810011Y-134647797D02*
X126958472Y-134733512D01*
X126958472Y-134733512D02*
X127028875Y-134840142D01*
D10*
X164787142Y-74124693D02*
X164374748Y-73886598D01*
X165012477Y-73924877D02*
X164223802Y-74624235D01*
X164223802Y-74624235D02*
X164435127Y-73591543D01*
X163441965Y-73787941D02*
X163775298Y-73210591D01*
X163457685Y-74236903D02*
X164021024Y-73737361D01*
X164021024Y-73737361D02*
X163484913Y-73427837D01*
X169359142Y-76664693D02*
X168946748Y-76426598D01*
X169584477Y-76464877D02*
X168795802Y-77164235D01*
X168795802Y-77164235D02*
X169007127Y-76131543D01*
X168307310Y-76772233D02*
X168242261Y-76789663D01*
X168242261Y-76789663D02*
X168135973Y-76783283D01*
X168135973Y-76783283D02*
X167929777Y-76664235D01*
X167929777Y-76664235D02*
X167871108Y-76575377D01*
X167871108Y-76575377D02*
X167853678Y-76510328D01*
X167853678Y-76510328D02*
X167860058Y-76404040D01*
X167860058Y-76404040D02*
X167907677Y-76321561D01*
X167907677Y-76321561D02*
X168020344Y-76221653D01*
X168020344Y-76221653D02*
X168800930Y-76012496D01*
X168800930Y-76012496D02*
X168264819Y-75702972D01*
X184523142Y-118977580D02*
X184475523Y-119025200D01*
X184475523Y-119025200D02*
X184332666Y-119072819D01*
X184332666Y-119072819D02*
X184237428Y-119072819D01*
X184237428Y-119072819D02*
X184094571Y-119025200D01*
X184094571Y-119025200D02*
X183999333Y-118929961D01*
X183999333Y-118929961D02*
X183951714Y-118834723D01*
X183951714Y-118834723D02*
X183904095Y-118644247D01*
X183904095Y-118644247D02*
X183904095Y-118501390D01*
X183904095Y-118501390D02*
X183951714Y-118310914D01*
X183951714Y-118310914D02*
X183999333Y-118215676D01*
X183999333Y-118215676D02*
X184094571Y-118120438D01*
X184094571Y-118120438D02*
X184237428Y-118072819D01*
X184237428Y-118072819D02*
X184332666Y-118072819D01*
X184332666Y-118072819D02*
X184475523Y-118120438D01*
X184475523Y-118120438D02*
X184523142Y-118168057D01*
X184904095Y-118168057D02*
X184951714Y-118120438D01*
X184951714Y-118120438D02*
X185046952Y-118072819D01*
X185046952Y-118072819D02*
X185285047Y-118072819D01*
X185285047Y-118072819D02*
X185380285Y-118120438D01*
X185380285Y-118120438D02*
X185427904Y-118168057D01*
X185427904Y-118168057D02*
X185475523Y-118263295D01*
X185475523Y-118263295D02*
X185475523Y-118358533D01*
X185475523Y-118358533D02*
X185427904Y-118501390D01*
X185427904Y-118501390D02*
X184856476Y-119072819D01*
X184856476Y-119072819D02*
X185475523Y-119072819D01*
X185808857Y-118072819D02*
X186427904Y-118072819D01*
X186427904Y-118072819D02*
X186094571Y-118453771D01*
X186094571Y-118453771D02*
X186237428Y-118453771D01*
X186237428Y-118453771D02*
X186332666Y-118501390D01*
X186332666Y-118501390D02*
X186380285Y-118549009D01*
X186380285Y-118549009D02*
X186427904Y-118644247D01*
X186427904Y-118644247D02*
X186427904Y-118882342D01*
X186427904Y-118882342D02*
X186380285Y-118977580D01*
X186380285Y-118977580D02*
X186332666Y-119025200D01*
X186332666Y-119025200D02*
X186237428Y-119072819D01*
X186237428Y-119072819D02*
X185951714Y-119072819D01*
X185951714Y-119072819D02*
X185856476Y-119025200D01*
X185856476Y-119025200D02*
X185808857Y-118977580D01*
X162425142Y-97482819D02*
X162091809Y-97006628D01*
X161853714Y-97482819D02*
X161853714Y-96482819D01*
X161853714Y-96482819D02*
X162234666Y-96482819D01*
X162234666Y-96482819D02*
X162329904Y-96530438D01*
X162329904Y-96530438D02*
X162377523Y-96578057D01*
X162377523Y-96578057D02*
X162425142Y-96673295D01*
X162425142Y-96673295D02*
X162425142Y-96816152D01*
X162425142Y-96816152D02*
X162377523Y-96911390D01*
X162377523Y-96911390D02*
X162329904Y-96959009D01*
X162329904Y-96959009D02*
X162234666Y-97006628D01*
X162234666Y-97006628D02*
X161853714Y-97006628D01*
X163377523Y-97482819D02*
X162806095Y-97482819D01*
X163091809Y-97482819D02*
X163091809Y-96482819D01*
X163091809Y-96482819D02*
X162996571Y-96625676D01*
X162996571Y-96625676D02*
X162901333Y-96720914D01*
X162901333Y-96720914D02*
X162806095Y-96768533D01*
X163853714Y-97482819D02*
X164044190Y-97482819D01*
X164044190Y-97482819D02*
X164139428Y-97435200D01*
X164139428Y-97435200D02*
X164187047Y-97387580D01*
X164187047Y-97387580D02*
X164282285Y-97244723D01*
X164282285Y-97244723D02*
X164329904Y-97054247D01*
X164329904Y-97054247D02*
X164329904Y-96673295D01*
X164329904Y-96673295D02*
X164282285Y-96578057D01*
X164282285Y-96578057D02*
X164234666Y-96530438D01*
X164234666Y-96530438D02*
X164139428Y-96482819D01*
X164139428Y-96482819D02*
X163948952Y-96482819D01*
X163948952Y-96482819D02*
X163853714Y-96530438D01*
X163853714Y-96530438D02*
X163806095Y-96578057D01*
X163806095Y-96578057D02*
X163758476Y-96673295D01*
X163758476Y-96673295D02*
X163758476Y-96911390D01*
X163758476Y-96911390D02*
X163806095Y-97006628D01*
X163806095Y-97006628D02*
X163853714Y-97054247D01*
X163853714Y-97054247D02*
X163948952Y-97101866D01*
X163948952Y-97101866D02*
X164139428Y-97101866D01*
X164139428Y-97101866D02*
X164234666Y-97054247D01*
X164234666Y-97054247D02*
X164282285Y-97006628D01*
X164282285Y-97006628D02*
X164329904Y-96911390D01*
X169029142Y-103229580D02*
X168981523Y-103277200D01*
X168981523Y-103277200D02*
X168838666Y-103324819D01*
X168838666Y-103324819D02*
X168743428Y-103324819D01*
X168743428Y-103324819D02*
X168600571Y-103277200D01*
X168600571Y-103277200D02*
X168505333Y-103181961D01*
X168505333Y-103181961D02*
X168457714Y-103086723D01*
X168457714Y-103086723D02*
X168410095Y-102896247D01*
X168410095Y-102896247D02*
X168410095Y-102753390D01*
X168410095Y-102753390D02*
X168457714Y-102562914D01*
X168457714Y-102562914D02*
X168505333Y-102467676D01*
X168505333Y-102467676D02*
X168600571Y-102372438D01*
X168600571Y-102372438D02*
X168743428Y-102324819D01*
X168743428Y-102324819D02*
X168838666Y-102324819D01*
X168838666Y-102324819D02*
X168981523Y-102372438D01*
X168981523Y-102372438D02*
X169029142Y-102420057D01*
X169981523Y-103324819D02*
X169410095Y-103324819D01*
X169695809Y-103324819D02*
X169695809Y-102324819D01*
X169695809Y-102324819D02*
X169600571Y-102467676D01*
X169600571Y-102467676D02*
X169505333Y-102562914D01*
X169505333Y-102562914D02*
X169410095Y-102610533D01*
X170314857Y-102324819D02*
X170981523Y-102324819D01*
X170981523Y-102324819D02*
X170552952Y-103324819D01*
X144899142Y-141838817D02*
X144565809Y-141362626D01*
X144327714Y-141838817D02*
X144327714Y-140838817D01*
X144327714Y-140838817D02*
X144708666Y-140838817D01*
X144708666Y-140838817D02*
X144803904Y-140886436D01*
X144803904Y-140886436D02*
X144851523Y-140934055D01*
X144851523Y-140934055D02*
X144899142Y-141029293D01*
X144899142Y-141029293D02*
X144899142Y-141172150D01*
X144899142Y-141172150D02*
X144851523Y-141267388D01*
X144851523Y-141267388D02*
X144803904Y-141315007D01*
X144803904Y-141315007D02*
X144708666Y-141362626D01*
X144708666Y-141362626D02*
X144327714Y-141362626D01*
X145232476Y-140838817D02*
X145851523Y-140838817D01*
X145851523Y-140838817D02*
X145518190Y-141219769D01*
X145518190Y-141219769D02*
X145661047Y-141219769D01*
X145661047Y-141219769D02*
X145756285Y-141267388D01*
X145756285Y-141267388D02*
X145803904Y-141315007D01*
X145803904Y-141315007D02*
X145851523Y-141410245D01*
X145851523Y-141410245D02*
X145851523Y-141648340D01*
X145851523Y-141648340D02*
X145803904Y-141743578D01*
X145803904Y-141743578D02*
X145756285Y-141791198D01*
X145756285Y-141791198D02*
X145661047Y-141838817D01*
X145661047Y-141838817D02*
X145375333Y-141838817D01*
X145375333Y-141838817D02*
X145280095Y-141791198D01*
X145280095Y-141791198D02*
X145232476Y-141743578D01*
X146184857Y-140838817D02*
X146851523Y-140838817D01*
X146851523Y-140838817D02*
X146422952Y-141838817D01*
X110767905Y-109420819D02*
X110767905Y-108420819D01*
X110767905Y-108420819D02*
X111006000Y-108420819D01*
X111006000Y-108420819D02*
X111148857Y-108468438D01*
X111148857Y-108468438D02*
X111244095Y-108563676D01*
X111244095Y-108563676D02*
X111291714Y-108658914D01*
X111291714Y-108658914D02*
X111339333Y-108849390D01*
X111339333Y-108849390D02*
X111339333Y-108992247D01*
X111339333Y-108992247D02*
X111291714Y-109182723D01*
X111291714Y-109182723D02*
X111244095Y-109277961D01*
X111244095Y-109277961D02*
X111148857Y-109373200D01*
X111148857Y-109373200D02*
X111006000Y-109420819D01*
X111006000Y-109420819D02*
X110767905Y-109420819D01*
X112196476Y-108420819D02*
X112006000Y-108420819D01*
X112006000Y-108420819D02*
X111910762Y-108468438D01*
X111910762Y-108468438D02*
X111863143Y-108516057D01*
X111863143Y-108516057D02*
X111767905Y-108658914D01*
X111767905Y-108658914D02*
X111720286Y-108849390D01*
X111720286Y-108849390D02*
X111720286Y-109230342D01*
X111720286Y-109230342D02*
X111767905Y-109325580D01*
X111767905Y-109325580D02*
X111815524Y-109373200D01*
X111815524Y-109373200D02*
X111910762Y-109420819D01*
X111910762Y-109420819D02*
X112101238Y-109420819D01*
X112101238Y-109420819D02*
X112196476Y-109373200D01*
X112196476Y-109373200D02*
X112244095Y-109325580D01*
X112244095Y-109325580D02*
X112291714Y-109230342D01*
X112291714Y-109230342D02*
X112291714Y-108992247D01*
X112291714Y-108992247D02*
X112244095Y-108897009D01*
X112244095Y-108897009D02*
X112196476Y-108849390D01*
X112196476Y-108849390D02*
X112101238Y-108801771D01*
X112101238Y-108801771D02*
X111910762Y-108801771D01*
X111910762Y-108801771D02*
X111815524Y-108849390D01*
X111815524Y-108849390D02*
X111767905Y-108897009D01*
X111767905Y-108897009D02*
X111720286Y-108992247D01*
X148018973Y-145389935D02*
X147971354Y-145437555D01*
X147971354Y-145437555D02*
X147828497Y-145485174D01*
X147828497Y-145485174D02*
X147733259Y-145485174D01*
X147733259Y-145485174D02*
X147590402Y-145437555D01*
X147590402Y-145437555D02*
X147495164Y-145342316D01*
X147495164Y-145342316D02*
X147447545Y-145247078D01*
X147447545Y-145247078D02*
X147399926Y-145056602D01*
X147399926Y-145056602D02*
X147399926Y-144913745D01*
X147399926Y-144913745D02*
X147447545Y-144723269D01*
X147447545Y-144723269D02*
X147495164Y-144628031D01*
X147495164Y-144628031D02*
X147590402Y-144532793D01*
X147590402Y-144532793D02*
X147733259Y-144485174D01*
X147733259Y-144485174D02*
X147828497Y-144485174D01*
X147828497Y-144485174D02*
X147971354Y-144532793D01*
X147971354Y-144532793D02*
X148018973Y-144580412D01*
X148352307Y-144485174D02*
X149018973Y-144485174D01*
X149018973Y-144485174D02*
X148590402Y-145485174D01*
X158107142Y-125327580D02*
X158059523Y-125375200D01*
X158059523Y-125375200D02*
X157916666Y-125422819D01*
X157916666Y-125422819D02*
X157821428Y-125422819D01*
X157821428Y-125422819D02*
X157678571Y-125375200D01*
X157678571Y-125375200D02*
X157583333Y-125279961D01*
X157583333Y-125279961D02*
X157535714Y-125184723D01*
X157535714Y-125184723D02*
X157488095Y-124994247D01*
X157488095Y-124994247D02*
X157488095Y-124851390D01*
X157488095Y-124851390D02*
X157535714Y-124660914D01*
X157535714Y-124660914D02*
X157583333Y-124565676D01*
X157583333Y-124565676D02*
X157678571Y-124470438D01*
X157678571Y-124470438D02*
X157821428Y-124422819D01*
X157821428Y-124422819D02*
X157916666Y-124422819D01*
X157916666Y-124422819D02*
X158059523Y-124470438D01*
X158059523Y-124470438D02*
X158107142Y-124518057D01*
X158440476Y-124422819D02*
X159059523Y-124422819D01*
X159059523Y-124422819D02*
X158726190Y-124803771D01*
X158726190Y-124803771D02*
X158869047Y-124803771D01*
X158869047Y-124803771D02*
X158964285Y-124851390D01*
X158964285Y-124851390D02*
X159011904Y-124899009D01*
X159011904Y-124899009D02*
X159059523Y-124994247D01*
X159059523Y-124994247D02*
X159059523Y-125232342D01*
X159059523Y-125232342D02*
X159011904Y-125327580D01*
X159011904Y-125327580D02*
X158964285Y-125375200D01*
X158964285Y-125375200D02*
X158869047Y-125422819D01*
X158869047Y-125422819D02*
X158583333Y-125422819D01*
X158583333Y-125422819D02*
X158488095Y-125375200D01*
X158488095Y-125375200D02*
X158440476Y-125327580D01*
X159678571Y-124422819D02*
X159773809Y-124422819D01*
X159773809Y-124422819D02*
X159869047Y-124470438D01*
X159869047Y-124470438D02*
X159916666Y-124518057D01*
X159916666Y-124518057D02*
X159964285Y-124613295D01*
X159964285Y-124613295D02*
X160011904Y-124803771D01*
X160011904Y-124803771D02*
X160011904Y-125041866D01*
X160011904Y-125041866D02*
X159964285Y-125232342D01*
X159964285Y-125232342D02*
X159916666Y-125327580D01*
X159916666Y-125327580D02*
X159869047Y-125375200D01*
X159869047Y-125375200D02*
X159773809Y-125422819D01*
X159773809Y-125422819D02*
X159678571Y-125422819D01*
X159678571Y-125422819D02*
X159583333Y-125375200D01*
X159583333Y-125375200D02*
X159535714Y-125327580D01*
X159535714Y-125327580D02*
X159488095Y-125232342D01*
X159488095Y-125232342D02*
X159440476Y-125041866D01*
X159440476Y-125041866D02*
X159440476Y-124803771D01*
X159440476Y-124803771D02*
X159488095Y-124613295D01*
X159488095Y-124613295D02*
X159535714Y-124518057D01*
X159535714Y-124518057D02*
X159583333Y-124470438D01*
X159583333Y-124470438D02*
X159678571Y-124422819D01*
X171958095Y-116040819D02*
X171958095Y-116850342D01*
X171958095Y-116850342D02*
X172005714Y-116945580D01*
X172005714Y-116945580D02*
X172053333Y-116993200D01*
X172053333Y-116993200D02*
X172148571Y-117040819D01*
X172148571Y-117040819D02*
X172339047Y-117040819D01*
X172339047Y-117040819D02*
X172434285Y-116993200D01*
X172434285Y-116993200D02*
X172481904Y-116945580D01*
X172481904Y-116945580D02*
X172529523Y-116850342D01*
X172529523Y-116850342D02*
X172529523Y-116040819D01*
X173481904Y-116040819D02*
X173005714Y-116040819D01*
X173005714Y-116040819D02*
X172958095Y-116517009D01*
X172958095Y-116517009D02*
X173005714Y-116469390D01*
X173005714Y-116469390D02*
X173100952Y-116421771D01*
X173100952Y-116421771D02*
X173339047Y-116421771D01*
X173339047Y-116421771D02*
X173434285Y-116469390D01*
X173434285Y-116469390D02*
X173481904Y-116517009D01*
X173481904Y-116517009D02*
X173529523Y-116612247D01*
X173529523Y-116612247D02*
X173529523Y-116850342D01*
X173529523Y-116850342D02*
X173481904Y-116945580D01*
X173481904Y-116945580D02*
X173434285Y-116993200D01*
X173434285Y-116993200D02*
X173339047Y-117040819D01*
X173339047Y-117040819D02*
X173100952Y-117040819D01*
X173100952Y-117040819D02*
X173005714Y-116993200D01*
X173005714Y-116993200D02*
X172958095Y-116945580D01*
X166428530Y-110830355D02*
X165721424Y-110123248D01*
X165721424Y-110123248D02*
X165889782Y-109954889D01*
X165889782Y-109954889D02*
X166024469Y-109887546D01*
X166024469Y-109887546D02*
X166159156Y-109887546D01*
X166159156Y-109887546D02*
X166260172Y-109921218D01*
X166260172Y-109921218D02*
X166428530Y-110022233D01*
X166428530Y-110022233D02*
X166529546Y-110123248D01*
X166529546Y-110123248D02*
X166630561Y-110291607D01*
X166630561Y-110291607D02*
X166664233Y-110392622D01*
X166664233Y-110392622D02*
X166664233Y-110527309D01*
X166664233Y-110527309D02*
X166596889Y-110661996D01*
X166596889Y-110661996D02*
X166428530Y-110830355D01*
X166832591Y-109618172D02*
X166731576Y-109651844D01*
X166731576Y-109651844D02*
X166664233Y-109651844D01*
X166664233Y-109651844D02*
X166563217Y-109618172D01*
X166563217Y-109618172D02*
X166529546Y-109584500D01*
X166529546Y-109584500D02*
X166495874Y-109483485D01*
X166495874Y-109483485D02*
X166495874Y-109416141D01*
X166495874Y-109416141D02*
X166529546Y-109315126D01*
X166529546Y-109315126D02*
X166664233Y-109180439D01*
X166664233Y-109180439D02*
X166765248Y-109146767D01*
X166765248Y-109146767D02*
X166832591Y-109146767D01*
X166832591Y-109146767D02*
X166933607Y-109180439D01*
X166933607Y-109180439D02*
X166967278Y-109214111D01*
X166967278Y-109214111D02*
X167000950Y-109315126D01*
X167000950Y-109315126D02*
X167000950Y-109382470D01*
X167000950Y-109382470D02*
X166967278Y-109483485D01*
X166967278Y-109483485D02*
X166832591Y-109618172D01*
X166832591Y-109618172D02*
X166798920Y-109719187D01*
X166798920Y-109719187D02*
X166798920Y-109786531D01*
X166798920Y-109786531D02*
X166832591Y-109887546D01*
X166832591Y-109887546D02*
X166967278Y-110022233D01*
X166967278Y-110022233D02*
X167068294Y-110055905D01*
X167068294Y-110055905D02*
X167135637Y-110055905D01*
X167135637Y-110055905D02*
X167236652Y-110022233D01*
X167236652Y-110022233D02*
X167371339Y-109887546D01*
X167371339Y-109887546D02*
X167405011Y-109786531D01*
X167405011Y-109786531D02*
X167405011Y-109719187D01*
X167405011Y-109719187D02*
X167371339Y-109618172D01*
X167371339Y-109618172D02*
X167236652Y-109483485D01*
X167236652Y-109483485D02*
X167135637Y-109449813D01*
X167135637Y-109449813D02*
X167068294Y-109449813D01*
X167068294Y-109449813D02*
X166967278Y-109483485D01*
X131913332Y-119965578D02*
X131865713Y-120013198D01*
X131865713Y-120013198D02*
X131722856Y-120060817D01*
X131722856Y-120060817D02*
X131627618Y-120060817D01*
X131627618Y-120060817D02*
X131484761Y-120013198D01*
X131484761Y-120013198D02*
X131389523Y-119917959D01*
X131389523Y-119917959D02*
X131341904Y-119822721D01*
X131341904Y-119822721D02*
X131294285Y-119632245D01*
X131294285Y-119632245D02*
X131294285Y-119489388D01*
X131294285Y-119489388D02*
X131341904Y-119298912D01*
X131341904Y-119298912D02*
X131389523Y-119203674D01*
X131389523Y-119203674D02*
X131484761Y-119108436D01*
X131484761Y-119108436D02*
X131627618Y-119060817D01*
X131627618Y-119060817D02*
X131722856Y-119060817D01*
X131722856Y-119060817D02*
X131865713Y-119108436D01*
X131865713Y-119108436D02*
X131913332Y-119156055D01*
X132770475Y-119060817D02*
X132579999Y-119060817D01*
X132579999Y-119060817D02*
X132484761Y-119108436D01*
X132484761Y-119108436D02*
X132437142Y-119156055D01*
X132437142Y-119156055D02*
X132341904Y-119298912D01*
X132341904Y-119298912D02*
X132294285Y-119489388D01*
X132294285Y-119489388D02*
X132294285Y-119870340D01*
X132294285Y-119870340D02*
X132341904Y-119965578D01*
X132341904Y-119965578D02*
X132389523Y-120013198D01*
X132389523Y-120013198D02*
X132484761Y-120060817D01*
X132484761Y-120060817D02*
X132675237Y-120060817D01*
X132675237Y-120060817D02*
X132770475Y-120013198D01*
X132770475Y-120013198D02*
X132818094Y-119965578D01*
X132818094Y-119965578D02*
X132865713Y-119870340D01*
X132865713Y-119870340D02*
X132865713Y-119632245D01*
X132865713Y-119632245D02*
X132818094Y-119537007D01*
X132818094Y-119537007D02*
X132770475Y-119489388D01*
X132770475Y-119489388D02*
X132675237Y-119441769D01*
X132675237Y-119441769D02*
X132484761Y-119441769D01*
X132484761Y-119441769D02*
X132389523Y-119489388D01*
X132389523Y-119489388D02*
X132341904Y-119537007D01*
X132341904Y-119537007D02*
X132294285Y-119632245D01*
X155789333Y-117040819D02*
X155456000Y-116564628D01*
X155217905Y-117040819D02*
X155217905Y-116040819D01*
X155217905Y-116040819D02*
X155598857Y-116040819D01*
X155598857Y-116040819D02*
X155694095Y-116088438D01*
X155694095Y-116088438D02*
X155741714Y-116136057D01*
X155741714Y-116136057D02*
X155789333Y-116231295D01*
X155789333Y-116231295D02*
X155789333Y-116374152D01*
X155789333Y-116374152D02*
X155741714Y-116469390D01*
X155741714Y-116469390D02*
X155694095Y-116517009D01*
X155694095Y-116517009D02*
X155598857Y-116564628D01*
X155598857Y-116564628D02*
X155217905Y-116564628D01*
X156170286Y-116136057D02*
X156217905Y-116088438D01*
X156217905Y-116088438D02*
X156313143Y-116040819D01*
X156313143Y-116040819D02*
X156551238Y-116040819D01*
X156551238Y-116040819D02*
X156646476Y-116088438D01*
X156646476Y-116088438D02*
X156694095Y-116136057D01*
X156694095Y-116136057D02*
X156741714Y-116231295D01*
X156741714Y-116231295D02*
X156741714Y-116326533D01*
X156741714Y-116326533D02*
X156694095Y-116469390D01*
X156694095Y-116469390D02*
X156122667Y-117040819D01*
X156122667Y-117040819D02*
X156741714Y-117040819D01*
X149457580Y-122562857D02*
X149505200Y-122610476D01*
X149505200Y-122610476D02*
X149552819Y-122753333D01*
X149552819Y-122753333D02*
X149552819Y-122848571D01*
X149552819Y-122848571D02*
X149505200Y-122991428D01*
X149505200Y-122991428D02*
X149409961Y-123086666D01*
X149409961Y-123086666D02*
X149314723Y-123134285D01*
X149314723Y-123134285D02*
X149124247Y-123181904D01*
X149124247Y-123181904D02*
X148981390Y-123181904D01*
X148981390Y-123181904D02*
X148790914Y-123134285D01*
X148790914Y-123134285D02*
X148695676Y-123086666D01*
X148695676Y-123086666D02*
X148600438Y-122991428D01*
X148600438Y-122991428D02*
X148552819Y-122848571D01*
X148552819Y-122848571D02*
X148552819Y-122753333D01*
X148552819Y-122753333D02*
X148600438Y-122610476D01*
X148600438Y-122610476D02*
X148648057Y-122562857D01*
X149552819Y-121610476D02*
X149552819Y-122181904D01*
X149552819Y-121896190D02*
X148552819Y-121896190D01*
X148552819Y-121896190D02*
X148695676Y-121991428D01*
X148695676Y-121991428D02*
X148790914Y-122086666D01*
X148790914Y-122086666D02*
X148838533Y-122181904D01*
X148648057Y-121229523D02*
X148600438Y-121181904D01*
X148600438Y-121181904D02*
X148552819Y-121086666D01*
X148552819Y-121086666D02*
X148552819Y-120848571D01*
X148552819Y-120848571D02*
X148600438Y-120753333D01*
X148600438Y-120753333D02*
X148648057Y-120705714D01*
X148648057Y-120705714D02*
X148743295Y-120658095D01*
X148743295Y-120658095D02*
X148838533Y-120658095D01*
X148838533Y-120658095D02*
X148981390Y-120705714D01*
X148981390Y-120705714D02*
X149552819Y-121277142D01*
X149552819Y-121277142D02*
X149552819Y-120658095D01*
X160551905Y-123644819D02*
X160551905Y-122644819D01*
X160551905Y-122644819D02*
X160790000Y-122644819D01*
X160790000Y-122644819D02*
X160932857Y-122692438D01*
X160932857Y-122692438D02*
X161028095Y-122787676D01*
X161028095Y-122787676D02*
X161075714Y-122882914D01*
X161075714Y-122882914D02*
X161123333Y-123073390D01*
X161123333Y-123073390D02*
X161123333Y-123216247D01*
X161123333Y-123216247D02*
X161075714Y-123406723D01*
X161075714Y-123406723D02*
X161028095Y-123501961D01*
X161028095Y-123501961D02*
X160932857Y-123597200D01*
X160932857Y-123597200D02*
X160790000Y-123644819D01*
X160790000Y-123644819D02*
X160551905Y-123644819D01*
X161980476Y-122978152D02*
X161980476Y-123644819D01*
X161742381Y-122597200D02*
X161504286Y-123311485D01*
X161504286Y-123311485D02*
X162123333Y-123311485D01*
X173601142Y-107895580D02*
X173553523Y-107943200D01*
X173553523Y-107943200D02*
X173410666Y-107990819D01*
X173410666Y-107990819D02*
X173315428Y-107990819D01*
X173315428Y-107990819D02*
X173172571Y-107943200D01*
X173172571Y-107943200D02*
X173077333Y-107847961D01*
X173077333Y-107847961D02*
X173029714Y-107752723D01*
X173029714Y-107752723D02*
X172982095Y-107562247D01*
X172982095Y-107562247D02*
X172982095Y-107419390D01*
X172982095Y-107419390D02*
X173029714Y-107228914D01*
X173029714Y-107228914D02*
X173077333Y-107133676D01*
X173077333Y-107133676D02*
X173172571Y-107038438D01*
X173172571Y-107038438D02*
X173315428Y-106990819D01*
X173315428Y-106990819D02*
X173410666Y-106990819D01*
X173410666Y-106990819D02*
X173553523Y-107038438D01*
X173553523Y-107038438D02*
X173601142Y-107086057D01*
X174553523Y-107990819D02*
X173982095Y-107990819D01*
X174267809Y-107990819D02*
X174267809Y-106990819D01*
X174267809Y-106990819D02*
X174172571Y-107133676D01*
X174172571Y-107133676D02*
X174077333Y-107228914D01*
X174077333Y-107228914D02*
X173982095Y-107276533D01*
X175029714Y-107990819D02*
X175220190Y-107990819D01*
X175220190Y-107990819D02*
X175315428Y-107943200D01*
X175315428Y-107943200D02*
X175363047Y-107895580D01*
X175363047Y-107895580D02*
X175458285Y-107752723D01*
X175458285Y-107752723D02*
X175505904Y-107562247D01*
X175505904Y-107562247D02*
X175505904Y-107181295D01*
X175505904Y-107181295D02*
X175458285Y-107086057D01*
X175458285Y-107086057D02*
X175410666Y-107038438D01*
X175410666Y-107038438D02*
X175315428Y-106990819D01*
X175315428Y-106990819D02*
X175124952Y-106990819D01*
X175124952Y-106990819D02*
X175029714Y-107038438D01*
X175029714Y-107038438D02*
X174982095Y-107086057D01*
X174982095Y-107086057D02*
X174934476Y-107181295D01*
X174934476Y-107181295D02*
X174934476Y-107419390D01*
X174934476Y-107419390D02*
X174982095Y-107514628D01*
X174982095Y-107514628D02*
X175029714Y-107562247D01*
X175029714Y-107562247D02*
X175124952Y-107609866D01*
X175124952Y-107609866D02*
X175315428Y-107609866D01*
X175315428Y-107609866D02*
X175410666Y-107562247D01*
X175410666Y-107562247D02*
X175458285Y-107514628D01*
X175458285Y-107514628D02*
X175505904Y-107419390D01*
X154805142Y-122214819D02*
X154471809Y-121738628D01*
X154233714Y-122214819D02*
X154233714Y-121214819D01*
X154233714Y-121214819D02*
X154614666Y-121214819D01*
X154614666Y-121214819D02*
X154709904Y-121262438D01*
X154709904Y-121262438D02*
X154757523Y-121310057D01*
X154757523Y-121310057D02*
X154805142Y-121405295D01*
X154805142Y-121405295D02*
X154805142Y-121548152D01*
X154805142Y-121548152D02*
X154757523Y-121643390D01*
X154757523Y-121643390D02*
X154709904Y-121691009D01*
X154709904Y-121691009D02*
X154614666Y-121738628D01*
X154614666Y-121738628D02*
X154233714Y-121738628D01*
X155138476Y-121214819D02*
X155757523Y-121214819D01*
X155757523Y-121214819D02*
X155424190Y-121595771D01*
X155424190Y-121595771D02*
X155567047Y-121595771D01*
X155567047Y-121595771D02*
X155662285Y-121643390D01*
X155662285Y-121643390D02*
X155709904Y-121691009D01*
X155709904Y-121691009D02*
X155757523Y-121786247D01*
X155757523Y-121786247D02*
X155757523Y-122024342D01*
X155757523Y-122024342D02*
X155709904Y-122119580D01*
X155709904Y-122119580D02*
X155662285Y-122167200D01*
X155662285Y-122167200D02*
X155567047Y-122214819D01*
X155567047Y-122214819D02*
X155281333Y-122214819D01*
X155281333Y-122214819D02*
X155186095Y-122167200D01*
X155186095Y-122167200D02*
X155138476Y-122119580D01*
X156614666Y-121548152D02*
X156614666Y-122214819D01*
X156376571Y-121167200D02*
X156138476Y-121881485D01*
X156138476Y-121881485D02*
X156757523Y-121881485D01*
X148963142Y-116183580D02*
X148915523Y-116231200D01*
X148915523Y-116231200D02*
X148772666Y-116278819D01*
X148772666Y-116278819D02*
X148677428Y-116278819D01*
X148677428Y-116278819D02*
X148534571Y-116231200D01*
X148534571Y-116231200D02*
X148439333Y-116135961D01*
X148439333Y-116135961D02*
X148391714Y-116040723D01*
X148391714Y-116040723D02*
X148344095Y-115850247D01*
X148344095Y-115850247D02*
X148344095Y-115707390D01*
X148344095Y-115707390D02*
X148391714Y-115516914D01*
X148391714Y-115516914D02*
X148439333Y-115421676D01*
X148439333Y-115421676D02*
X148534571Y-115326438D01*
X148534571Y-115326438D02*
X148677428Y-115278819D01*
X148677428Y-115278819D02*
X148772666Y-115278819D01*
X148772666Y-115278819D02*
X148915523Y-115326438D01*
X148915523Y-115326438D02*
X148963142Y-115374057D01*
X149915523Y-116278819D02*
X149344095Y-116278819D01*
X149629809Y-116278819D02*
X149629809Y-115278819D01*
X149629809Y-115278819D02*
X149534571Y-115421676D01*
X149534571Y-115421676D02*
X149439333Y-115516914D01*
X149439333Y-115516914D02*
X149344095Y-115564533D01*
X150534571Y-115278819D02*
X150629809Y-115278819D01*
X150629809Y-115278819D02*
X150725047Y-115326438D01*
X150725047Y-115326438D02*
X150772666Y-115374057D01*
X150772666Y-115374057D02*
X150820285Y-115469295D01*
X150820285Y-115469295D02*
X150867904Y-115659771D01*
X150867904Y-115659771D02*
X150867904Y-115897866D01*
X150867904Y-115897866D02*
X150820285Y-116088342D01*
X150820285Y-116088342D02*
X150772666Y-116183580D01*
X150772666Y-116183580D02*
X150725047Y-116231200D01*
X150725047Y-116231200D02*
X150629809Y-116278819D01*
X150629809Y-116278819D02*
X150534571Y-116278819D01*
X150534571Y-116278819D02*
X150439333Y-116231200D01*
X150439333Y-116231200D02*
X150391714Y-116183580D01*
X150391714Y-116183580D02*
X150344095Y-116088342D01*
X150344095Y-116088342D02*
X150296476Y-115897866D01*
X150296476Y-115897866D02*
X150296476Y-115659771D01*
X150296476Y-115659771D02*
X150344095Y-115469295D01*
X150344095Y-115469295D02*
X150391714Y-115374057D01*
X150391714Y-115374057D02*
X150439333Y-115326438D01*
X150439333Y-115326438D02*
X150534571Y-115278819D01*
X132437524Y-125883200D02*
X132580381Y-125930819D01*
X132580381Y-125930819D02*
X132818476Y-125930819D01*
X132818476Y-125930819D02*
X132913714Y-125883200D01*
X132913714Y-125883200D02*
X132961333Y-125835580D01*
X132961333Y-125835580D02*
X133008952Y-125740342D01*
X133008952Y-125740342D02*
X133008952Y-125645104D01*
X133008952Y-125645104D02*
X132961333Y-125549866D01*
X132961333Y-125549866D02*
X132913714Y-125502247D01*
X132913714Y-125502247D02*
X132818476Y-125454628D01*
X132818476Y-125454628D02*
X132628000Y-125407009D01*
X132628000Y-125407009D02*
X132532762Y-125359390D01*
X132532762Y-125359390D02*
X132485143Y-125311771D01*
X132485143Y-125311771D02*
X132437524Y-125216533D01*
X132437524Y-125216533D02*
X132437524Y-125121295D01*
X132437524Y-125121295D02*
X132485143Y-125026057D01*
X132485143Y-125026057D02*
X132532762Y-124978438D01*
X132532762Y-124978438D02*
X132628000Y-124930819D01*
X132628000Y-124930819D02*
X132866095Y-124930819D01*
X132866095Y-124930819D02*
X133008952Y-124978438D01*
X133294667Y-125264152D02*
X133675619Y-125264152D01*
X133437524Y-124930819D02*
X133437524Y-125787961D01*
X133437524Y-125787961D02*
X133485143Y-125883200D01*
X133485143Y-125883200D02*
X133580381Y-125930819D01*
X133580381Y-125930819D02*
X133675619Y-125930819D01*
X134008953Y-125549866D02*
X134770858Y-125549866D01*
X135723238Y-125930819D02*
X135247048Y-125930819D01*
X135247048Y-125930819D02*
X135247048Y-124930819D01*
X136056572Y-125930819D02*
X136056572Y-125264152D01*
X136056572Y-124930819D02*
X136008953Y-124978438D01*
X136008953Y-124978438D02*
X136056572Y-125026057D01*
X136056572Y-125026057D02*
X136104191Y-124978438D01*
X136104191Y-124978438D02*
X136056572Y-124930819D01*
X136056572Y-124930819D02*
X136056572Y-125026057D01*
X136532762Y-125264152D02*
X136532762Y-125930819D01*
X136532762Y-125359390D02*
X136580381Y-125311771D01*
X136580381Y-125311771D02*
X136675619Y-125264152D01*
X136675619Y-125264152D02*
X136818476Y-125264152D01*
X136818476Y-125264152D02*
X136913714Y-125311771D01*
X136913714Y-125311771D02*
X136961333Y-125407009D01*
X136961333Y-125407009D02*
X136961333Y-125930819D01*
X137437524Y-125930819D02*
X137437524Y-124930819D01*
X137532762Y-125549866D02*
X137818476Y-125930819D01*
X137818476Y-125264152D02*
X137437524Y-125645104D01*
X170299142Y-107642819D02*
X169965809Y-107166628D01*
X169727714Y-107642819D02*
X169727714Y-106642819D01*
X169727714Y-106642819D02*
X170108666Y-106642819D01*
X170108666Y-106642819D02*
X170203904Y-106690438D01*
X170203904Y-106690438D02*
X170251523Y-106738057D01*
X170251523Y-106738057D02*
X170299142Y-106833295D01*
X170299142Y-106833295D02*
X170299142Y-106976152D01*
X170299142Y-106976152D02*
X170251523Y-107071390D01*
X170251523Y-107071390D02*
X170203904Y-107119009D01*
X170203904Y-107119009D02*
X170108666Y-107166628D01*
X170108666Y-107166628D02*
X169727714Y-107166628D01*
X170632476Y-106642819D02*
X171251523Y-106642819D01*
X171251523Y-106642819D02*
X170918190Y-107023771D01*
X170918190Y-107023771D02*
X171061047Y-107023771D01*
X171061047Y-107023771D02*
X171156285Y-107071390D01*
X171156285Y-107071390D02*
X171203904Y-107119009D01*
X171203904Y-107119009D02*
X171251523Y-107214247D01*
X171251523Y-107214247D02*
X171251523Y-107452342D01*
X171251523Y-107452342D02*
X171203904Y-107547580D01*
X171203904Y-107547580D02*
X171156285Y-107595200D01*
X171156285Y-107595200D02*
X171061047Y-107642819D01*
X171061047Y-107642819D02*
X170775333Y-107642819D01*
X170775333Y-107642819D02*
X170680095Y-107595200D01*
X170680095Y-107595200D02*
X170632476Y-107547580D01*
X172156285Y-106642819D02*
X171680095Y-106642819D01*
X171680095Y-106642819D02*
X171632476Y-107119009D01*
X171632476Y-107119009D02*
X171680095Y-107071390D01*
X171680095Y-107071390D02*
X171775333Y-107023771D01*
X171775333Y-107023771D02*
X172013428Y-107023771D01*
X172013428Y-107023771D02*
X172108666Y-107071390D01*
X172108666Y-107071390D02*
X172156285Y-107119009D01*
X172156285Y-107119009D02*
X172203904Y-107214247D01*
X172203904Y-107214247D02*
X172203904Y-107452342D01*
X172203904Y-107452342D02*
X172156285Y-107547580D01*
X172156285Y-107547580D02*
X172108666Y-107595200D01*
X172108666Y-107595200D02*
X172013428Y-107642819D01*
X172013428Y-107642819D02*
X171775333Y-107642819D01*
X171775333Y-107642819D02*
X171680095Y-107595200D01*
X171680095Y-107595200D02*
X171632476Y-107547580D01*
X161567905Y-89608819D02*
X161567905Y-88608819D01*
X161567905Y-88608819D02*
X161806000Y-88608819D01*
X161806000Y-88608819D02*
X161948857Y-88656438D01*
X161948857Y-88656438D02*
X162044095Y-88751676D01*
X162044095Y-88751676D02*
X162091714Y-88846914D01*
X162091714Y-88846914D02*
X162139333Y-89037390D01*
X162139333Y-89037390D02*
X162139333Y-89180247D01*
X162139333Y-89180247D02*
X162091714Y-89370723D01*
X162091714Y-89370723D02*
X162044095Y-89465961D01*
X162044095Y-89465961D02*
X161948857Y-89561200D01*
X161948857Y-89561200D02*
X161806000Y-89608819D01*
X161806000Y-89608819D02*
X161567905Y-89608819D01*
X162472667Y-88608819D02*
X163091714Y-88608819D01*
X163091714Y-88608819D02*
X162758381Y-88989771D01*
X162758381Y-88989771D02*
X162901238Y-88989771D01*
X162901238Y-88989771D02*
X162996476Y-89037390D01*
X162996476Y-89037390D02*
X163044095Y-89085009D01*
X163044095Y-89085009D02*
X163091714Y-89180247D01*
X163091714Y-89180247D02*
X163091714Y-89418342D01*
X163091714Y-89418342D02*
X163044095Y-89513580D01*
X163044095Y-89513580D02*
X162996476Y-89561200D01*
X162996476Y-89561200D02*
X162901238Y-89608819D01*
X162901238Y-89608819D02*
X162615524Y-89608819D01*
X162615524Y-89608819D02*
X162520286Y-89561200D01*
X162520286Y-89561200D02*
X162472667Y-89513580D01*
X118991142Y-93418819D02*
X118657809Y-92942628D01*
X118419714Y-93418819D02*
X118419714Y-92418819D01*
X118419714Y-92418819D02*
X118800666Y-92418819D01*
X118800666Y-92418819D02*
X118895904Y-92466438D01*
X118895904Y-92466438D02*
X118943523Y-92514057D01*
X118943523Y-92514057D02*
X118991142Y-92609295D01*
X118991142Y-92609295D02*
X118991142Y-92752152D01*
X118991142Y-92752152D02*
X118943523Y-92847390D01*
X118943523Y-92847390D02*
X118895904Y-92895009D01*
X118895904Y-92895009D02*
X118800666Y-92942628D01*
X118800666Y-92942628D02*
X118419714Y-92942628D01*
X119324476Y-92418819D02*
X119943523Y-92418819D01*
X119943523Y-92418819D02*
X119610190Y-92799771D01*
X119610190Y-92799771D02*
X119753047Y-92799771D01*
X119753047Y-92799771D02*
X119848285Y-92847390D01*
X119848285Y-92847390D02*
X119895904Y-92895009D01*
X119895904Y-92895009D02*
X119943523Y-92990247D01*
X119943523Y-92990247D02*
X119943523Y-93228342D01*
X119943523Y-93228342D02*
X119895904Y-93323580D01*
X119895904Y-93323580D02*
X119848285Y-93371200D01*
X119848285Y-93371200D02*
X119753047Y-93418819D01*
X119753047Y-93418819D02*
X119467333Y-93418819D01*
X119467333Y-93418819D02*
X119372095Y-93371200D01*
X119372095Y-93371200D02*
X119324476Y-93323580D01*
X120324476Y-92514057D02*
X120372095Y-92466438D01*
X120372095Y-92466438D02*
X120467333Y-92418819D01*
X120467333Y-92418819D02*
X120705428Y-92418819D01*
X120705428Y-92418819D02*
X120800666Y-92466438D01*
X120800666Y-92466438D02*
X120848285Y-92514057D01*
X120848285Y-92514057D02*
X120895904Y-92609295D01*
X120895904Y-92609295D02*
X120895904Y-92704533D01*
X120895904Y-92704533D02*
X120848285Y-92847390D01*
X120848285Y-92847390D02*
X120276857Y-93418819D01*
X120276857Y-93418819D02*
X120895904Y-93418819D01*
X120261142Y-97990819D02*
X119927809Y-97514628D01*
X119689714Y-97990819D02*
X119689714Y-96990819D01*
X119689714Y-96990819D02*
X120070666Y-96990819D01*
X120070666Y-96990819D02*
X120165904Y-97038438D01*
X120165904Y-97038438D02*
X120213523Y-97086057D01*
X120213523Y-97086057D02*
X120261142Y-97181295D01*
X120261142Y-97181295D02*
X120261142Y-97324152D01*
X120261142Y-97324152D02*
X120213523Y-97419390D01*
X120213523Y-97419390D02*
X120165904Y-97467009D01*
X120165904Y-97467009D02*
X120070666Y-97514628D01*
X120070666Y-97514628D02*
X119689714Y-97514628D01*
X120594476Y-96990819D02*
X121213523Y-96990819D01*
X121213523Y-96990819D02*
X120880190Y-97371771D01*
X120880190Y-97371771D02*
X121023047Y-97371771D01*
X121023047Y-97371771D02*
X121118285Y-97419390D01*
X121118285Y-97419390D02*
X121165904Y-97467009D01*
X121165904Y-97467009D02*
X121213523Y-97562247D01*
X121213523Y-97562247D02*
X121213523Y-97800342D01*
X121213523Y-97800342D02*
X121165904Y-97895580D01*
X121165904Y-97895580D02*
X121118285Y-97943200D01*
X121118285Y-97943200D02*
X121023047Y-97990819D01*
X121023047Y-97990819D02*
X120737333Y-97990819D01*
X120737333Y-97990819D02*
X120642095Y-97943200D01*
X120642095Y-97943200D02*
X120594476Y-97895580D01*
X122070666Y-96990819D02*
X121880190Y-96990819D01*
X121880190Y-96990819D02*
X121784952Y-97038438D01*
X121784952Y-97038438D02*
X121737333Y-97086057D01*
X121737333Y-97086057D02*
X121642095Y-97228914D01*
X121642095Y-97228914D02*
X121594476Y-97419390D01*
X121594476Y-97419390D02*
X121594476Y-97800342D01*
X121594476Y-97800342D02*
X121642095Y-97895580D01*
X121642095Y-97895580D02*
X121689714Y-97943200D01*
X121689714Y-97943200D02*
X121784952Y-97990819D01*
X121784952Y-97990819D02*
X121975428Y-97990819D01*
X121975428Y-97990819D02*
X122070666Y-97943200D01*
X122070666Y-97943200D02*
X122118285Y-97895580D01*
X122118285Y-97895580D02*
X122165904Y-97800342D01*
X122165904Y-97800342D02*
X122165904Y-97562247D01*
X122165904Y-97562247D02*
X122118285Y-97467009D01*
X122118285Y-97467009D02*
X122070666Y-97419390D01*
X122070666Y-97419390D02*
X121975428Y-97371771D01*
X121975428Y-97371771D02*
X121784952Y-97371771D01*
X121784952Y-97371771D02*
X121689714Y-97419390D01*
X121689714Y-97419390D02*
X121642095Y-97467009D01*
X121642095Y-97467009D02*
X121594476Y-97562247D01*
X157059333Y-142091580D02*
X157011714Y-142139200D01*
X157011714Y-142139200D02*
X156868857Y-142186819D01*
X156868857Y-142186819D02*
X156773619Y-142186819D01*
X156773619Y-142186819D02*
X156630762Y-142139200D01*
X156630762Y-142139200D02*
X156535524Y-142043961D01*
X156535524Y-142043961D02*
X156487905Y-141948723D01*
X156487905Y-141948723D02*
X156440286Y-141758247D01*
X156440286Y-141758247D02*
X156440286Y-141615390D01*
X156440286Y-141615390D02*
X156487905Y-141424914D01*
X156487905Y-141424914D02*
X156535524Y-141329676D01*
X156535524Y-141329676D02*
X156630762Y-141234438D01*
X156630762Y-141234438D02*
X156773619Y-141186819D01*
X156773619Y-141186819D02*
X156868857Y-141186819D01*
X156868857Y-141186819D02*
X157011714Y-141234438D01*
X157011714Y-141234438D02*
X157059333Y-141282057D01*
X157916476Y-141520152D02*
X157916476Y-142186819D01*
X157678381Y-141139200D02*
X157440286Y-141853485D01*
X157440286Y-141853485D02*
X158059333Y-141853485D01*
X187825142Y-113389580D02*
X187777523Y-113437200D01*
X187777523Y-113437200D02*
X187634666Y-113484819D01*
X187634666Y-113484819D02*
X187539428Y-113484819D01*
X187539428Y-113484819D02*
X187396571Y-113437200D01*
X187396571Y-113437200D02*
X187301333Y-113341961D01*
X187301333Y-113341961D02*
X187253714Y-113246723D01*
X187253714Y-113246723D02*
X187206095Y-113056247D01*
X187206095Y-113056247D02*
X187206095Y-112913390D01*
X187206095Y-112913390D02*
X187253714Y-112722914D01*
X187253714Y-112722914D02*
X187301333Y-112627676D01*
X187301333Y-112627676D02*
X187396571Y-112532438D01*
X187396571Y-112532438D02*
X187539428Y-112484819D01*
X187539428Y-112484819D02*
X187634666Y-112484819D01*
X187634666Y-112484819D02*
X187777523Y-112532438D01*
X187777523Y-112532438D02*
X187825142Y-112580057D01*
X188206095Y-112580057D02*
X188253714Y-112532438D01*
X188253714Y-112532438D02*
X188348952Y-112484819D01*
X188348952Y-112484819D02*
X188587047Y-112484819D01*
X188587047Y-112484819D02*
X188682285Y-112532438D01*
X188682285Y-112532438D02*
X188729904Y-112580057D01*
X188729904Y-112580057D02*
X188777523Y-112675295D01*
X188777523Y-112675295D02*
X188777523Y-112770533D01*
X188777523Y-112770533D02*
X188729904Y-112913390D01*
X188729904Y-112913390D02*
X188158476Y-113484819D01*
X188158476Y-113484819D02*
X188777523Y-113484819D01*
X189634666Y-112484819D02*
X189444190Y-112484819D01*
X189444190Y-112484819D02*
X189348952Y-112532438D01*
X189348952Y-112532438D02*
X189301333Y-112580057D01*
X189301333Y-112580057D02*
X189206095Y-112722914D01*
X189206095Y-112722914D02*
X189158476Y-112913390D01*
X189158476Y-112913390D02*
X189158476Y-113294342D01*
X189158476Y-113294342D02*
X189206095Y-113389580D01*
X189206095Y-113389580D02*
X189253714Y-113437200D01*
X189253714Y-113437200D02*
X189348952Y-113484819D01*
X189348952Y-113484819D02*
X189539428Y-113484819D01*
X189539428Y-113484819D02*
X189634666Y-113437200D01*
X189634666Y-113437200D02*
X189682285Y-113389580D01*
X189682285Y-113389580D02*
X189729904Y-113294342D01*
X189729904Y-113294342D02*
X189729904Y-113056247D01*
X189729904Y-113056247D02*
X189682285Y-112961009D01*
X189682285Y-112961009D02*
X189634666Y-112913390D01*
X189634666Y-112913390D02*
X189539428Y-112865771D01*
X189539428Y-112865771D02*
X189348952Y-112865771D01*
X189348952Y-112865771D02*
X189253714Y-112913390D01*
X189253714Y-112913390D02*
X189206095Y-112961009D01*
X189206095Y-112961009D02*
X189158476Y-113056247D01*
X123817142Y-99006819D02*
X123483809Y-98530628D01*
X123245714Y-99006819D02*
X123245714Y-98006819D01*
X123245714Y-98006819D02*
X123626666Y-98006819D01*
X123626666Y-98006819D02*
X123721904Y-98054438D01*
X123721904Y-98054438D02*
X123769523Y-98102057D01*
X123769523Y-98102057D02*
X123817142Y-98197295D01*
X123817142Y-98197295D02*
X123817142Y-98340152D01*
X123817142Y-98340152D02*
X123769523Y-98435390D01*
X123769523Y-98435390D02*
X123721904Y-98483009D01*
X123721904Y-98483009D02*
X123626666Y-98530628D01*
X123626666Y-98530628D02*
X123245714Y-98530628D01*
X124150476Y-98006819D02*
X124769523Y-98006819D01*
X124769523Y-98006819D02*
X124436190Y-98387771D01*
X124436190Y-98387771D02*
X124579047Y-98387771D01*
X124579047Y-98387771D02*
X124674285Y-98435390D01*
X124674285Y-98435390D02*
X124721904Y-98483009D01*
X124721904Y-98483009D02*
X124769523Y-98578247D01*
X124769523Y-98578247D02*
X124769523Y-98816342D01*
X124769523Y-98816342D02*
X124721904Y-98911580D01*
X124721904Y-98911580D02*
X124674285Y-98959200D01*
X124674285Y-98959200D02*
X124579047Y-99006819D01*
X124579047Y-99006819D02*
X124293333Y-99006819D01*
X124293333Y-99006819D02*
X124198095Y-98959200D01*
X124198095Y-98959200D02*
X124150476Y-98911580D01*
X125102857Y-98006819D02*
X125721904Y-98006819D01*
X125721904Y-98006819D02*
X125388571Y-98387771D01*
X125388571Y-98387771D02*
X125531428Y-98387771D01*
X125531428Y-98387771D02*
X125626666Y-98435390D01*
X125626666Y-98435390D02*
X125674285Y-98483009D01*
X125674285Y-98483009D02*
X125721904Y-98578247D01*
X125721904Y-98578247D02*
X125721904Y-98816342D01*
X125721904Y-98816342D02*
X125674285Y-98911580D01*
X125674285Y-98911580D02*
X125626666Y-98959200D01*
X125626666Y-98959200D02*
X125531428Y-99006819D01*
X125531428Y-99006819D02*
X125245714Y-99006819D01*
X125245714Y-99006819D02*
X125150476Y-98959200D01*
X125150476Y-98959200D02*
X125102857Y-98911580D01*
X146931142Y-68177580D02*
X146883523Y-68225200D01*
X146883523Y-68225200D02*
X146740666Y-68272819D01*
X146740666Y-68272819D02*
X146645428Y-68272819D01*
X146645428Y-68272819D02*
X146502571Y-68225200D01*
X146502571Y-68225200D02*
X146407333Y-68129961D01*
X146407333Y-68129961D02*
X146359714Y-68034723D01*
X146359714Y-68034723D02*
X146312095Y-67844247D01*
X146312095Y-67844247D02*
X146312095Y-67701390D01*
X146312095Y-67701390D02*
X146359714Y-67510914D01*
X146359714Y-67510914D02*
X146407333Y-67415676D01*
X146407333Y-67415676D02*
X146502571Y-67320438D01*
X146502571Y-67320438D02*
X146645428Y-67272819D01*
X146645428Y-67272819D02*
X146740666Y-67272819D01*
X146740666Y-67272819D02*
X146883523Y-67320438D01*
X146883523Y-67320438D02*
X146931142Y-67368057D01*
X147883523Y-68272819D02*
X147312095Y-68272819D01*
X147597809Y-68272819D02*
X147597809Y-67272819D01*
X147597809Y-67272819D02*
X147502571Y-67415676D01*
X147502571Y-67415676D02*
X147407333Y-67510914D01*
X147407333Y-67510914D02*
X147312095Y-67558533D01*
X148788285Y-67272819D02*
X148312095Y-67272819D01*
X148312095Y-67272819D02*
X148264476Y-67749009D01*
X148264476Y-67749009D02*
X148312095Y-67701390D01*
X148312095Y-67701390D02*
X148407333Y-67653771D01*
X148407333Y-67653771D02*
X148645428Y-67653771D01*
X148645428Y-67653771D02*
X148740666Y-67701390D01*
X148740666Y-67701390D02*
X148788285Y-67749009D01*
X148788285Y-67749009D02*
X148835904Y-67844247D01*
X148835904Y-67844247D02*
X148835904Y-68082342D01*
X148835904Y-68082342D02*
X148788285Y-68177580D01*
X148788285Y-68177580D02*
X148740666Y-68225200D01*
X148740666Y-68225200D02*
X148645428Y-68272819D01*
X148645428Y-68272819D02*
X148407333Y-68272819D01*
X148407333Y-68272819D02*
X148312095Y-68225200D01*
X148312095Y-68225200D02*
X148264476Y-68177580D01*
X143256095Y-118072819D02*
X143256095Y-118882342D01*
X143256095Y-118882342D02*
X143303714Y-118977580D01*
X143303714Y-118977580D02*
X143351333Y-119025200D01*
X143351333Y-119025200D02*
X143446571Y-119072819D01*
X143446571Y-119072819D02*
X143637047Y-119072819D01*
X143637047Y-119072819D02*
X143732285Y-119025200D01*
X143732285Y-119025200D02*
X143779904Y-118977580D01*
X143779904Y-118977580D02*
X143827523Y-118882342D01*
X143827523Y-118882342D02*
X143827523Y-118072819D01*
X144208476Y-118072819D02*
X144827523Y-118072819D01*
X144827523Y-118072819D02*
X144494190Y-118453771D01*
X144494190Y-118453771D02*
X144637047Y-118453771D01*
X144637047Y-118453771D02*
X144732285Y-118501390D01*
X144732285Y-118501390D02*
X144779904Y-118549009D01*
X144779904Y-118549009D02*
X144827523Y-118644247D01*
X144827523Y-118644247D02*
X144827523Y-118882342D01*
X144827523Y-118882342D02*
X144779904Y-118977580D01*
X144779904Y-118977580D02*
X144732285Y-119025200D01*
X144732285Y-119025200D02*
X144637047Y-119072819D01*
X144637047Y-119072819D02*
X144351333Y-119072819D01*
X144351333Y-119072819D02*
X144256095Y-119025200D01*
X144256095Y-119025200D02*
X144208476Y-118977580D01*
X141528800Y-116647819D02*
X141528800Y-116885914D01*
X141290705Y-116790676D02*
X141528800Y-116885914D01*
X141528800Y-116885914D02*
X141766895Y-116790676D01*
X141385943Y-117076390D02*
X141528800Y-116885914D01*
X141528800Y-116885914D02*
X141671657Y-117076390D01*
X141528800Y-116647819D02*
X141528800Y-116885914D01*
X141290705Y-116790676D02*
X141528800Y-116885914D01*
X141528800Y-116885914D02*
X141766895Y-116790676D01*
X141385943Y-117076390D02*
X141528800Y-116885914D01*
X141528800Y-116885914D02*
X141671657Y-117076390D01*
X174887141Y-127613580D02*
X174839522Y-127661200D01*
X174839522Y-127661200D02*
X174696665Y-127708819D01*
X174696665Y-127708819D02*
X174601427Y-127708819D01*
X174601427Y-127708819D02*
X174458570Y-127661200D01*
X174458570Y-127661200D02*
X174363332Y-127565961D01*
X174363332Y-127565961D02*
X174315713Y-127470723D01*
X174315713Y-127470723D02*
X174268094Y-127280247D01*
X174268094Y-127280247D02*
X174268094Y-127137390D01*
X174268094Y-127137390D02*
X174315713Y-126946914D01*
X174315713Y-126946914D02*
X174363332Y-126851676D01*
X174363332Y-126851676D02*
X174458570Y-126756438D01*
X174458570Y-126756438D02*
X174601427Y-126708819D01*
X174601427Y-126708819D02*
X174696665Y-126708819D01*
X174696665Y-126708819D02*
X174839522Y-126756438D01*
X174839522Y-126756438D02*
X174887141Y-126804057D01*
X175268094Y-126804057D02*
X175315713Y-126756438D01*
X175315713Y-126756438D02*
X175410951Y-126708819D01*
X175410951Y-126708819D02*
X175649046Y-126708819D01*
X175649046Y-126708819D02*
X175744284Y-126756438D01*
X175744284Y-126756438D02*
X175791903Y-126804057D01*
X175791903Y-126804057D02*
X175839522Y-126899295D01*
X175839522Y-126899295D02*
X175839522Y-126994533D01*
X175839522Y-126994533D02*
X175791903Y-127137390D01*
X175791903Y-127137390D02*
X175220475Y-127708819D01*
X175220475Y-127708819D02*
X175839522Y-127708819D01*
X176791903Y-127708819D02*
X176220475Y-127708819D01*
X176506189Y-127708819D02*
X176506189Y-126708819D01*
X176506189Y-126708819D02*
X176410951Y-126851676D01*
X176410951Y-126851676D02*
X176315713Y-126946914D01*
X176315713Y-126946914D02*
X176220475Y-126994533D01*
X143343333Y-115421582D02*
X143295714Y-115469202D01*
X143295714Y-115469202D02*
X143152857Y-115516821D01*
X143152857Y-115516821D02*
X143057619Y-115516821D01*
X143057619Y-115516821D02*
X142914762Y-115469202D01*
X142914762Y-115469202D02*
X142819524Y-115373963D01*
X142819524Y-115373963D02*
X142771905Y-115278725D01*
X142771905Y-115278725D02*
X142724286Y-115088249D01*
X142724286Y-115088249D02*
X142724286Y-114945392D01*
X142724286Y-114945392D02*
X142771905Y-114754916D01*
X142771905Y-114754916D02*
X142819524Y-114659678D01*
X142819524Y-114659678D02*
X142914762Y-114564440D01*
X142914762Y-114564440D02*
X143057619Y-114516821D01*
X143057619Y-114516821D02*
X143152857Y-114516821D01*
X143152857Y-114516821D02*
X143295714Y-114564440D01*
X143295714Y-114564440D02*
X143343333Y-114612059D01*
X143819524Y-115516821D02*
X144010000Y-115516821D01*
X144010000Y-115516821D02*
X144105238Y-115469202D01*
X144105238Y-115469202D02*
X144152857Y-115421582D01*
X144152857Y-115421582D02*
X144248095Y-115278725D01*
X144248095Y-115278725D02*
X144295714Y-115088249D01*
X144295714Y-115088249D02*
X144295714Y-114707297D01*
X144295714Y-114707297D02*
X144248095Y-114612059D01*
X144248095Y-114612059D02*
X144200476Y-114564440D01*
X144200476Y-114564440D02*
X144105238Y-114516821D01*
X144105238Y-114516821D02*
X143914762Y-114516821D01*
X143914762Y-114516821D02*
X143819524Y-114564440D01*
X143819524Y-114564440D02*
X143771905Y-114612059D01*
X143771905Y-114612059D02*
X143724286Y-114707297D01*
X143724286Y-114707297D02*
X143724286Y-114945392D01*
X143724286Y-114945392D02*
X143771905Y-115040630D01*
X143771905Y-115040630D02*
X143819524Y-115088249D01*
X143819524Y-115088249D02*
X143914762Y-115135868D01*
X143914762Y-115135868D02*
X144105238Y-115135868D01*
X144105238Y-115135868D02*
X144200476Y-115088249D01*
X144200476Y-115088249D02*
X144248095Y-115040630D01*
X144248095Y-115040630D02*
X144295714Y-114945392D01*
X179915616Y-112493381D02*
X179439426Y-112493381D01*
X179439426Y-112493381D02*
X179439426Y-111493381D01*
X180772759Y-112493381D02*
X180201331Y-112493381D01*
X180487045Y-112493381D02*
X180487045Y-111493381D01*
X180487045Y-111493381D02*
X180391807Y-111636238D01*
X180391807Y-111636238D02*
X180296569Y-111731476D01*
X180296569Y-111731476D02*
X180201331Y-111779095D01*
X150781720Y-139937442D02*
X150781720Y-140413633D01*
X150448387Y-139413633D02*
X150781720Y-139937442D01*
X150781720Y-139937442D02*
X151115053Y-139413633D01*
X151972196Y-140413633D02*
X151400768Y-140413633D01*
X151686482Y-140413633D02*
X151686482Y-139413633D01*
X151686482Y-139413633D02*
X151591244Y-139556490D01*
X151591244Y-139556490D02*
X151496006Y-139651728D01*
X151496006Y-139651728D02*
X151400768Y-139699347D01*
X129119334Y-104753580D02*
X129071715Y-104801200D01*
X129071715Y-104801200D02*
X128928858Y-104848819D01*
X128928858Y-104848819D02*
X128833620Y-104848819D01*
X128833620Y-104848819D02*
X128690763Y-104801200D01*
X128690763Y-104801200D02*
X128595525Y-104705961D01*
X128595525Y-104705961D02*
X128547906Y-104610723D01*
X128547906Y-104610723D02*
X128500287Y-104420247D01*
X128500287Y-104420247D02*
X128500287Y-104277390D01*
X128500287Y-104277390D02*
X128547906Y-104086914D01*
X128547906Y-104086914D02*
X128595525Y-103991676D01*
X128595525Y-103991676D02*
X128690763Y-103896438D01*
X128690763Y-103896438D02*
X128833620Y-103848819D01*
X128833620Y-103848819D02*
X128928858Y-103848819D01*
X128928858Y-103848819D02*
X129071715Y-103896438D01*
X129071715Y-103896438D02*
X129119334Y-103944057D01*
X130024096Y-103848819D02*
X129547906Y-103848819D01*
X129547906Y-103848819D02*
X129500287Y-104325009D01*
X129500287Y-104325009D02*
X129547906Y-104277390D01*
X129547906Y-104277390D02*
X129643144Y-104229771D01*
X129643144Y-104229771D02*
X129881239Y-104229771D01*
X129881239Y-104229771D02*
X129976477Y-104277390D01*
X129976477Y-104277390D02*
X130024096Y-104325009D01*
X130024096Y-104325009D02*
X130071715Y-104420247D01*
X130071715Y-104420247D02*
X130071715Y-104658342D01*
X130071715Y-104658342D02*
X130024096Y-104753580D01*
X130024096Y-104753580D02*
X129976477Y-104801200D01*
X129976477Y-104801200D02*
X129881239Y-104848819D01*
X129881239Y-104848819D02*
X129643144Y-104848819D01*
X129643144Y-104848819D02*
X129547906Y-104801200D01*
X129547906Y-104801200D02*
X129500287Y-104753580D01*
X154073284Y-145402618D02*
X154025665Y-145450238D01*
X154025665Y-145450238D02*
X153882808Y-145497857D01*
X153882808Y-145497857D02*
X153787570Y-145497857D01*
X153787570Y-145497857D02*
X153644713Y-145450238D01*
X153644713Y-145450238D02*
X153549475Y-145354999D01*
X153549475Y-145354999D02*
X153501856Y-145259761D01*
X153501856Y-145259761D02*
X153454237Y-145069285D01*
X153454237Y-145069285D02*
X153454237Y-144926428D01*
X153454237Y-144926428D02*
X153501856Y-144735952D01*
X153501856Y-144735952D02*
X153549475Y-144640714D01*
X153549475Y-144640714D02*
X153644713Y-144545476D01*
X153644713Y-144545476D02*
X153787570Y-144497857D01*
X153787570Y-144497857D02*
X153882808Y-144497857D01*
X153882808Y-144497857D02*
X154025665Y-144545476D01*
X154025665Y-144545476D02*
X154073284Y-144593095D01*
X154644713Y-144926428D02*
X154549475Y-144878809D01*
X154549475Y-144878809D02*
X154501856Y-144831190D01*
X154501856Y-144831190D02*
X154454237Y-144735952D01*
X154454237Y-144735952D02*
X154454237Y-144688333D01*
X154454237Y-144688333D02*
X154501856Y-144593095D01*
X154501856Y-144593095D02*
X154549475Y-144545476D01*
X154549475Y-144545476D02*
X154644713Y-144497857D01*
X154644713Y-144497857D02*
X154835189Y-144497857D01*
X154835189Y-144497857D02*
X154930427Y-144545476D01*
X154930427Y-144545476D02*
X154978046Y-144593095D01*
X154978046Y-144593095D02*
X155025665Y-144688333D01*
X155025665Y-144688333D02*
X155025665Y-144735952D01*
X155025665Y-144735952D02*
X154978046Y-144831190D01*
X154978046Y-144831190D02*
X154930427Y-144878809D01*
X154930427Y-144878809D02*
X154835189Y-144926428D01*
X154835189Y-144926428D02*
X154644713Y-144926428D01*
X154644713Y-144926428D02*
X154549475Y-144974047D01*
X154549475Y-144974047D02*
X154501856Y-145021666D01*
X154501856Y-145021666D02*
X154454237Y-145116904D01*
X154454237Y-145116904D02*
X154454237Y-145307380D01*
X154454237Y-145307380D02*
X154501856Y-145402618D01*
X154501856Y-145402618D02*
X154549475Y-145450238D01*
X154549475Y-145450238D02*
X154644713Y-145497857D01*
X154644713Y-145497857D02*
X154835189Y-145497857D01*
X154835189Y-145497857D02*
X154930427Y-145450238D01*
X154930427Y-145450238D02*
X154978046Y-145402618D01*
X154978046Y-145402618D02*
X155025665Y-145307380D01*
X155025665Y-145307380D02*
X155025665Y-145116904D01*
X155025665Y-145116904D02*
X154978046Y-145021666D01*
X154978046Y-145021666D02*
X154930427Y-144974047D01*
X154930427Y-144974047D02*
X154835189Y-144926428D01*
X150487142Y-126438819D02*
X150153809Y-125962628D01*
X149915714Y-126438819D02*
X149915714Y-125438819D01*
X149915714Y-125438819D02*
X150296666Y-125438819D01*
X150296666Y-125438819D02*
X150391904Y-125486438D01*
X150391904Y-125486438D02*
X150439523Y-125534057D01*
X150439523Y-125534057D02*
X150487142Y-125629295D01*
X150487142Y-125629295D02*
X150487142Y-125772152D01*
X150487142Y-125772152D02*
X150439523Y-125867390D01*
X150439523Y-125867390D02*
X150391904Y-125915009D01*
X150391904Y-125915009D02*
X150296666Y-125962628D01*
X150296666Y-125962628D02*
X149915714Y-125962628D01*
X150820476Y-125438819D02*
X151439523Y-125438819D01*
X151439523Y-125438819D02*
X151106190Y-125819771D01*
X151106190Y-125819771D02*
X151249047Y-125819771D01*
X151249047Y-125819771D02*
X151344285Y-125867390D01*
X151344285Y-125867390D02*
X151391904Y-125915009D01*
X151391904Y-125915009D02*
X151439523Y-126010247D01*
X151439523Y-126010247D02*
X151439523Y-126248342D01*
X151439523Y-126248342D02*
X151391904Y-126343580D01*
X151391904Y-126343580D02*
X151344285Y-126391200D01*
X151344285Y-126391200D02*
X151249047Y-126438819D01*
X151249047Y-126438819D02*
X150963333Y-126438819D01*
X150963333Y-126438819D02*
X150868095Y-126391200D01*
X150868095Y-126391200D02*
X150820476Y-126343580D01*
X152010952Y-125867390D02*
X151915714Y-125819771D01*
X151915714Y-125819771D02*
X151868095Y-125772152D01*
X151868095Y-125772152D02*
X151820476Y-125676914D01*
X151820476Y-125676914D02*
X151820476Y-125629295D01*
X151820476Y-125629295D02*
X151868095Y-125534057D01*
X151868095Y-125534057D02*
X151915714Y-125486438D01*
X151915714Y-125486438D02*
X152010952Y-125438819D01*
X152010952Y-125438819D02*
X152201428Y-125438819D01*
X152201428Y-125438819D02*
X152296666Y-125486438D01*
X152296666Y-125486438D02*
X152344285Y-125534057D01*
X152344285Y-125534057D02*
X152391904Y-125629295D01*
X152391904Y-125629295D02*
X152391904Y-125676914D01*
X152391904Y-125676914D02*
X152344285Y-125772152D01*
X152344285Y-125772152D02*
X152296666Y-125819771D01*
X152296666Y-125819771D02*
X152201428Y-125867390D01*
X152201428Y-125867390D02*
X152010952Y-125867390D01*
X152010952Y-125867390D02*
X151915714Y-125915009D01*
X151915714Y-125915009D02*
X151868095Y-125962628D01*
X151868095Y-125962628D02*
X151820476Y-126057866D01*
X151820476Y-126057866D02*
X151820476Y-126248342D01*
X151820476Y-126248342D02*
X151868095Y-126343580D01*
X151868095Y-126343580D02*
X151915714Y-126391200D01*
X151915714Y-126391200D02*
X152010952Y-126438819D01*
X152010952Y-126438819D02*
X152201428Y-126438819D01*
X152201428Y-126438819D02*
X152296666Y-126391200D01*
X152296666Y-126391200D02*
X152344285Y-126343580D01*
X152344285Y-126343580D02*
X152391904Y-126248342D01*
X152391904Y-126248342D02*
X152391904Y-126057866D01*
X152391904Y-126057866D02*
X152344285Y-125962628D01*
X152344285Y-125962628D02*
X152296666Y-125915009D01*
X152296666Y-125915009D02*
X152201428Y-125867390D01*
X168402095Y-94450819D02*
X168402095Y-95260342D01*
X168402095Y-95260342D02*
X168449714Y-95355580D01*
X168449714Y-95355580D02*
X168497333Y-95403200D01*
X168497333Y-95403200D02*
X168592571Y-95450819D01*
X168592571Y-95450819D02*
X168783047Y-95450819D01*
X168783047Y-95450819D02*
X168878285Y-95403200D01*
X168878285Y-95403200D02*
X168925904Y-95355580D01*
X168925904Y-95355580D02*
X168973523Y-95260342D01*
X168973523Y-95260342D02*
X168973523Y-94450819D01*
X169878285Y-94784152D02*
X169878285Y-95450819D01*
X169640190Y-94403200D02*
X169402095Y-95117485D01*
X169402095Y-95117485D02*
X170021142Y-95117485D01*
X123952095Y-115786819D02*
X123952095Y-116596342D01*
X123952095Y-116596342D02*
X123999714Y-116691580D01*
X123999714Y-116691580D02*
X124047333Y-116739200D01*
X124047333Y-116739200D02*
X124142571Y-116786819D01*
X124142571Y-116786819D02*
X124333047Y-116786819D01*
X124333047Y-116786819D02*
X124428285Y-116739200D01*
X124428285Y-116739200D02*
X124475904Y-116691580D01*
X124475904Y-116691580D02*
X124523523Y-116596342D01*
X124523523Y-116596342D02*
X124523523Y-115786819D01*
X124904476Y-115786819D02*
X125571142Y-115786819D01*
X125571142Y-115786819D02*
X125142571Y-116786819D01*
X113657142Y-111960819D02*
X113323809Y-111484628D01*
X113085714Y-111960819D02*
X113085714Y-110960819D01*
X113085714Y-110960819D02*
X113466666Y-110960819D01*
X113466666Y-110960819D02*
X113561904Y-111008438D01*
X113561904Y-111008438D02*
X113609523Y-111056057D01*
X113609523Y-111056057D02*
X113657142Y-111151295D01*
X113657142Y-111151295D02*
X113657142Y-111294152D01*
X113657142Y-111294152D02*
X113609523Y-111389390D01*
X113609523Y-111389390D02*
X113561904Y-111437009D01*
X113561904Y-111437009D02*
X113466666Y-111484628D01*
X113466666Y-111484628D02*
X113085714Y-111484628D01*
X113990476Y-110960819D02*
X114609523Y-110960819D01*
X114609523Y-110960819D02*
X114276190Y-111341771D01*
X114276190Y-111341771D02*
X114419047Y-111341771D01*
X114419047Y-111341771D02*
X114514285Y-111389390D01*
X114514285Y-111389390D02*
X114561904Y-111437009D01*
X114561904Y-111437009D02*
X114609523Y-111532247D01*
X114609523Y-111532247D02*
X114609523Y-111770342D01*
X114609523Y-111770342D02*
X114561904Y-111865580D01*
X114561904Y-111865580D02*
X114514285Y-111913200D01*
X114514285Y-111913200D02*
X114419047Y-111960819D01*
X114419047Y-111960819D02*
X114133333Y-111960819D01*
X114133333Y-111960819D02*
X114038095Y-111913200D01*
X114038095Y-111913200D02*
X113990476Y-111865580D01*
X115561904Y-111960819D02*
X114990476Y-111960819D01*
X115276190Y-111960819D02*
X115276190Y-110960819D01*
X115276190Y-110960819D02*
X115180952Y-111103676D01*
X115180952Y-111103676D02*
X115085714Y-111198914D01*
X115085714Y-111198914D02*
X114990476Y-111246533D01*
X144803905Y-124246819D02*
X144803905Y-123246819D01*
X144803905Y-123246819D02*
X145042000Y-123246819D01*
X145042000Y-123246819D02*
X145184857Y-123294438D01*
X145184857Y-123294438D02*
X145280095Y-123389676D01*
X145280095Y-123389676D02*
X145327714Y-123484914D01*
X145327714Y-123484914D02*
X145375333Y-123675390D01*
X145375333Y-123675390D02*
X145375333Y-123818247D01*
X145375333Y-123818247D02*
X145327714Y-124008723D01*
X145327714Y-124008723D02*
X145280095Y-124103961D01*
X145280095Y-124103961D02*
X145184857Y-124199200D01*
X145184857Y-124199200D02*
X145042000Y-124246819D01*
X145042000Y-124246819D02*
X144803905Y-124246819D01*
X146327714Y-124246819D02*
X145756286Y-124246819D01*
X146042000Y-124246819D02*
X146042000Y-123246819D01*
X146042000Y-123246819D02*
X145946762Y-123389676D01*
X145946762Y-123389676D02*
X145851524Y-123484914D01*
X145851524Y-123484914D02*
X145756286Y-123532533D01*
X158107142Y-126851580D02*
X158059523Y-126899200D01*
X158059523Y-126899200D02*
X157916666Y-126946819D01*
X157916666Y-126946819D02*
X157821428Y-126946819D01*
X157821428Y-126946819D02*
X157678571Y-126899200D01*
X157678571Y-126899200D02*
X157583333Y-126803961D01*
X157583333Y-126803961D02*
X157535714Y-126708723D01*
X157535714Y-126708723D02*
X157488095Y-126518247D01*
X157488095Y-126518247D02*
X157488095Y-126375390D01*
X157488095Y-126375390D02*
X157535714Y-126184914D01*
X157535714Y-126184914D02*
X157583333Y-126089676D01*
X157583333Y-126089676D02*
X157678571Y-125994438D01*
X157678571Y-125994438D02*
X157821428Y-125946819D01*
X157821428Y-125946819D02*
X157916666Y-125946819D01*
X157916666Y-125946819D02*
X158059523Y-125994438D01*
X158059523Y-125994438D02*
X158107142Y-126042057D01*
X158488095Y-126042057D02*
X158535714Y-125994438D01*
X158535714Y-125994438D02*
X158630952Y-125946819D01*
X158630952Y-125946819D02*
X158869047Y-125946819D01*
X158869047Y-125946819D02*
X158964285Y-125994438D01*
X158964285Y-125994438D02*
X159011904Y-126042057D01*
X159011904Y-126042057D02*
X159059523Y-126137295D01*
X159059523Y-126137295D02*
X159059523Y-126232533D01*
X159059523Y-126232533D02*
X159011904Y-126375390D01*
X159011904Y-126375390D02*
X158440476Y-126946819D01*
X158440476Y-126946819D02*
X159059523Y-126946819D01*
X159535714Y-126946819D02*
X159726190Y-126946819D01*
X159726190Y-126946819D02*
X159821428Y-126899200D01*
X159821428Y-126899200D02*
X159869047Y-126851580D01*
X159869047Y-126851580D02*
X159964285Y-126708723D01*
X159964285Y-126708723D02*
X160011904Y-126518247D01*
X160011904Y-126518247D02*
X160011904Y-126137295D01*
X160011904Y-126137295D02*
X159964285Y-126042057D01*
X159964285Y-126042057D02*
X159916666Y-125994438D01*
X159916666Y-125994438D02*
X159821428Y-125946819D01*
X159821428Y-125946819D02*
X159630952Y-125946819D01*
X159630952Y-125946819D02*
X159535714Y-125994438D01*
X159535714Y-125994438D02*
X159488095Y-126042057D01*
X159488095Y-126042057D02*
X159440476Y-126137295D01*
X159440476Y-126137295D02*
X159440476Y-126375390D01*
X159440476Y-126375390D02*
X159488095Y-126470628D01*
X159488095Y-126470628D02*
X159535714Y-126518247D01*
X159535714Y-126518247D02*
X159630952Y-126565866D01*
X159630952Y-126565866D02*
X159821428Y-126565866D01*
X159821428Y-126565866D02*
X159916666Y-126518247D01*
X159916666Y-126518247D02*
X159964285Y-126470628D01*
X159964285Y-126470628D02*
X160011904Y-126375390D01*
X163695142Y-106880819D02*
X163361809Y-106404628D01*
X163123714Y-106880819D02*
X163123714Y-105880819D01*
X163123714Y-105880819D02*
X163504666Y-105880819D01*
X163504666Y-105880819D02*
X163599904Y-105928438D01*
X163599904Y-105928438D02*
X163647523Y-105976057D01*
X163647523Y-105976057D02*
X163695142Y-106071295D01*
X163695142Y-106071295D02*
X163695142Y-106214152D01*
X163695142Y-106214152D02*
X163647523Y-106309390D01*
X163647523Y-106309390D02*
X163599904Y-106357009D01*
X163599904Y-106357009D02*
X163504666Y-106404628D01*
X163504666Y-106404628D02*
X163123714Y-106404628D01*
X164076095Y-105976057D02*
X164123714Y-105928438D01*
X164123714Y-105928438D02*
X164218952Y-105880819D01*
X164218952Y-105880819D02*
X164457047Y-105880819D01*
X164457047Y-105880819D02*
X164552285Y-105928438D01*
X164552285Y-105928438D02*
X164599904Y-105976057D01*
X164599904Y-105976057D02*
X164647523Y-106071295D01*
X164647523Y-106071295D02*
X164647523Y-106166533D01*
X164647523Y-106166533D02*
X164599904Y-106309390D01*
X164599904Y-106309390D02*
X164028476Y-106880819D01*
X164028476Y-106880819D02*
X164647523Y-106880819D01*
X165599904Y-106880819D02*
X165028476Y-106880819D01*
X165314190Y-106880819D02*
X165314190Y-105880819D01*
X165314190Y-105880819D02*
X165218952Y-106023676D01*
X165218952Y-106023676D02*
X165123714Y-106118914D01*
X165123714Y-106118914D02*
X165028476Y-106166533D01*
X172243809Y-119381128D02*
X172243809Y-119857319D01*
X171910476Y-118857319D02*
X172243809Y-119381128D01*
X172243809Y-119381128D02*
X172577142Y-118857319D01*
X172862857Y-118952557D02*
X172910476Y-118904938D01*
X172910476Y-118904938D02*
X173005714Y-118857319D01*
X173005714Y-118857319D02*
X173243809Y-118857319D01*
X173243809Y-118857319D02*
X173339047Y-118904938D01*
X173339047Y-118904938D02*
X173386666Y-118952557D01*
X173386666Y-118952557D02*
X173434285Y-119047795D01*
X173434285Y-119047795D02*
X173434285Y-119143033D01*
X173434285Y-119143033D02*
X173386666Y-119285890D01*
X173386666Y-119285890D02*
X172815238Y-119857319D01*
X172815238Y-119857319D02*
X173434285Y-119857319D01*
D12*
X120808761Y-104184657D02*
X120713523Y-104137038D01*
X120713523Y-104137038D02*
X120618285Y-104041800D01*
X120618285Y-104041800D02*
X120475428Y-103898942D01*
X120475428Y-103898942D02*
X120380190Y-103851323D01*
X120380190Y-103851323D02*
X120284952Y-103851323D01*
X120332571Y-104089419D02*
X120237333Y-104041800D01*
X120237333Y-104041800D02*
X120142095Y-103946561D01*
X120142095Y-103946561D02*
X120094476Y-103756085D01*
X120094476Y-103756085D02*
X120094476Y-103422752D01*
X120094476Y-103422752D02*
X120142095Y-103232276D01*
X120142095Y-103232276D02*
X120237333Y-103137038D01*
X120237333Y-103137038D02*
X120332571Y-103089419D01*
X120332571Y-103089419D02*
X120523047Y-103089419D01*
X120523047Y-103089419D02*
X120618285Y-103137038D01*
X120618285Y-103137038D02*
X120713523Y-103232276D01*
X120713523Y-103232276D02*
X120761142Y-103422752D01*
X120761142Y-103422752D02*
X120761142Y-103756085D01*
X120761142Y-103756085D02*
X120713523Y-103946561D01*
X120713523Y-103946561D02*
X120618285Y-104041800D01*
X120618285Y-104041800D02*
X120523047Y-104089419D01*
X120523047Y-104089419D02*
X120332571Y-104089419D01*
X121713523Y-104089419D02*
X121142095Y-104089419D01*
X121427809Y-104089419D02*
X121427809Y-103089419D01*
X121427809Y-103089419D02*
X121332571Y-103232276D01*
X121332571Y-103232276D02*
X121237333Y-103327514D01*
X121237333Y-103327514D02*
X121142095Y-103375133D01*
D10*
X184523142Y-117199580D02*
X184475523Y-117247200D01*
X184475523Y-117247200D02*
X184332666Y-117294819D01*
X184332666Y-117294819D02*
X184237428Y-117294819D01*
X184237428Y-117294819D02*
X184094571Y-117247200D01*
X184094571Y-117247200D02*
X183999333Y-117151961D01*
X183999333Y-117151961D02*
X183951714Y-117056723D01*
X183951714Y-117056723D02*
X183904095Y-116866247D01*
X183904095Y-116866247D02*
X183904095Y-116723390D01*
X183904095Y-116723390D02*
X183951714Y-116532914D01*
X183951714Y-116532914D02*
X183999333Y-116437676D01*
X183999333Y-116437676D02*
X184094571Y-116342438D01*
X184094571Y-116342438D02*
X184237428Y-116294819D01*
X184237428Y-116294819D02*
X184332666Y-116294819D01*
X184332666Y-116294819D02*
X184475523Y-116342438D01*
X184475523Y-116342438D02*
X184523142Y-116390057D01*
X184904095Y-116390057D02*
X184951714Y-116342438D01*
X184951714Y-116342438D02*
X185046952Y-116294819D01*
X185046952Y-116294819D02*
X185285047Y-116294819D01*
X185285047Y-116294819D02*
X185380285Y-116342438D01*
X185380285Y-116342438D02*
X185427904Y-116390057D01*
X185427904Y-116390057D02*
X185475523Y-116485295D01*
X185475523Y-116485295D02*
X185475523Y-116580533D01*
X185475523Y-116580533D02*
X185427904Y-116723390D01*
X185427904Y-116723390D02*
X184856476Y-117294819D01*
X184856476Y-117294819D02*
X185475523Y-117294819D01*
X186332666Y-116628152D02*
X186332666Y-117294819D01*
X186094571Y-116247200D02*
X185856476Y-116961485D01*
X185856476Y-116961485D02*
X186475523Y-116961485D01*
X147320095Y-127978819D02*
X147320095Y-128788342D01*
X147320095Y-128788342D02*
X147367714Y-128883580D01*
X147367714Y-128883580D02*
X147415333Y-128931200D01*
X147415333Y-128931200D02*
X147510571Y-128978819D01*
X147510571Y-128978819D02*
X147701047Y-128978819D01*
X147701047Y-128978819D02*
X147796285Y-128931200D01*
X147796285Y-128931200D02*
X147843904Y-128883580D01*
X147843904Y-128883580D02*
X147891523Y-128788342D01*
X147891523Y-128788342D02*
X147891523Y-127978819D01*
X148891523Y-128978819D02*
X148320095Y-128978819D01*
X148605809Y-128978819D02*
X148605809Y-127978819D01*
X148605809Y-127978819D02*
X148510571Y-128121676D01*
X148510571Y-128121676D02*
X148415333Y-128216914D01*
X148415333Y-128216914D02*
X148320095Y-128264533D01*
X132080095Y-111468819D02*
X132080095Y-112278342D01*
X132080095Y-112278342D02*
X132127714Y-112373580D01*
X132127714Y-112373580D02*
X132175333Y-112421200D01*
X132175333Y-112421200D02*
X132270571Y-112468819D01*
X132270571Y-112468819D02*
X132461047Y-112468819D01*
X132461047Y-112468819D02*
X132556285Y-112421200D01*
X132556285Y-112421200D02*
X132603904Y-112373580D01*
X132603904Y-112373580D02*
X132651523Y-112278342D01*
X132651523Y-112278342D02*
X132651523Y-111468819D01*
X133080095Y-111564057D02*
X133127714Y-111516438D01*
X133127714Y-111516438D02*
X133222952Y-111468819D01*
X133222952Y-111468819D02*
X133461047Y-111468819D01*
X133461047Y-111468819D02*
X133556285Y-111516438D01*
X133556285Y-111516438D02*
X133603904Y-111564057D01*
X133603904Y-111564057D02*
X133651523Y-111659295D01*
X133651523Y-111659295D02*
X133651523Y-111754533D01*
X133651523Y-111754533D02*
X133603904Y-111897390D01*
X133603904Y-111897390D02*
X133032476Y-112468819D01*
X133032476Y-112468819D02*
X133651523Y-112468819D01*
X170299142Y-112787578D02*
X170251523Y-112835198D01*
X170251523Y-112835198D02*
X170108666Y-112882817D01*
X170108666Y-112882817D02*
X170013428Y-112882817D01*
X170013428Y-112882817D02*
X169870571Y-112835198D01*
X169870571Y-112835198D02*
X169775333Y-112739959D01*
X169775333Y-112739959D02*
X169727714Y-112644721D01*
X169727714Y-112644721D02*
X169680095Y-112454245D01*
X169680095Y-112454245D02*
X169680095Y-112311388D01*
X169680095Y-112311388D02*
X169727714Y-112120912D01*
X169727714Y-112120912D02*
X169775333Y-112025674D01*
X169775333Y-112025674D02*
X169870571Y-111930436D01*
X169870571Y-111930436D02*
X170013428Y-111882817D01*
X170013428Y-111882817D02*
X170108666Y-111882817D01*
X170108666Y-111882817D02*
X170251523Y-111930436D01*
X170251523Y-111930436D02*
X170299142Y-111978055D01*
X170680095Y-111978055D02*
X170727714Y-111930436D01*
X170727714Y-111930436D02*
X170822952Y-111882817D01*
X170822952Y-111882817D02*
X171061047Y-111882817D01*
X171061047Y-111882817D02*
X171156285Y-111930436D01*
X171156285Y-111930436D02*
X171203904Y-111978055D01*
X171203904Y-111978055D02*
X171251523Y-112073293D01*
X171251523Y-112073293D02*
X171251523Y-112168531D01*
X171251523Y-112168531D02*
X171203904Y-112311388D01*
X171203904Y-112311388D02*
X170632476Y-112882817D01*
X170632476Y-112882817D02*
X171251523Y-112882817D01*
X171870571Y-111882817D02*
X171965809Y-111882817D01*
X171965809Y-111882817D02*
X172061047Y-111930436D01*
X172061047Y-111930436D02*
X172108666Y-111978055D01*
X172108666Y-111978055D02*
X172156285Y-112073293D01*
X172156285Y-112073293D02*
X172203904Y-112263769D01*
X172203904Y-112263769D02*
X172203904Y-112501864D01*
X172203904Y-112501864D02*
X172156285Y-112692340D01*
X172156285Y-112692340D02*
X172108666Y-112787578D01*
X172108666Y-112787578D02*
X172061047Y-112835198D01*
X172061047Y-112835198D02*
X171965809Y-112882817D01*
X171965809Y-112882817D02*
X171870571Y-112882817D01*
X171870571Y-112882817D02*
X171775333Y-112835198D01*
X171775333Y-112835198D02*
X171727714Y-112787578D01*
X171727714Y-112787578D02*
X171680095Y-112692340D01*
X171680095Y-112692340D02*
X171632476Y-112501864D01*
X171632476Y-112501864D02*
X171632476Y-112263769D01*
X171632476Y-112263769D02*
X171680095Y-112073293D01*
X171680095Y-112073293D02*
X171727714Y-111978055D01*
X171727714Y-111978055D02*
X171775333Y-111930436D01*
X171775333Y-111930436D02*
X171870571Y-111882817D01*
X182459333Y-113992819D02*
X181983143Y-113992819D01*
X181983143Y-113992819D02*
X181983143Y-112992819D01*
X182697429Y-112992819D02*
X183316476Y-112992819D01*
X183316476Y-112992819D02*
X182983143Y-113373771D01*
X182983143Y-113373771D02*
X183126000Y-113373771D01*
X183126000Y-113373771D02*
X183221238Y-113421390D01*
X183221238Y-113421390D02*
X183268857Y-113469009D01*
X183268857Y-113469009D02*
X183316476Y-113564247D01*
X183316476Y-113564247D02*
X183316476Y-113802342D01*
X183316476Y-113802342D02*
X183268857Y-113897580D01*
X183268857Y-113897580D02*
X183221238Y-113945200D01*
X183221238Y-113945200D02*
X183126000Y-113992819D01*
X183126000Y-113992819D02*
X182840286Y-113992819D01*
X182840286Y-113992819D02*
X182745048Y-113945200D01*
X182745048Y-113945200D02*
X182697429Y-113897580D01*
X182983142Y-110943580D02*
X182935523Y-110991200D01*
X182935523Y-110991200D02*
X182792666Y-111038819D01*
X182792666Y-111038819D02*
X182697428Y-111038819D01*
X182697428Y-111038819D02*
X182554571Y-110991200D01*
X182554571Y-110991200D02*
X182459333Y-110895961D01*
X182459333Y-110895961D02*
X182411714Y-110800723D01*
X182411714Y-110800723D02*
X182364095Y-110610247D01*
X182364095Y-110610247D02*
X182364095Y-110467390D01*
X182364095Y-110467390D02*
X182411714Y-110276914D01*
X182411714Y-110276914D02*
X182459333Y-110181676D01*
X182459333Y-110181676D02*
X182554571Y-110086438D01*
X182554571Y-110086438D02*
X182697428Y-110038819D01*
X182697428Y-110038819D02*
X182792666Y-110038819D01*
X182792666Y-110038819D02*
X182935523Y-110086438D01*
X182935523Y-110086438D02*
X182983142Y-110134057D01*
X183364095Y-110134057D02*
X183411714Y-110086438D01*
X183411714Y-110086438D02*
X183506952Y-110038819D01*
X183506952Y-110038819D02*
X183745047Y-110038819D01*
X183745047Y-110038819D02*
X183840285Y-110086438D01*
X183840285Y-110086438D02*
X183887904Y-110134057D01*
X183887904Y-110134057D02*
X183935523Y-110229295D01*
X183935523Y-110229295D02*
X183935523Y-110324533D01*
X183935523Y-110324533D02*
X183887904Y-110467390D01*
X183887904Y-110467390D02*
X183316476Y-111038819D01*
X183316476Y-111038819D02*
X183935523Y-111038819D01*
X184840285Y-110038819D02*
X184364095Y-110038819D01*
X184364095Y-110038819D02*
X184316476Y-110515009D01*
X184316476Y-110515009D02*
X184364095Y-110467390D01*
X184364095Y-110467390D02*
X184459333Y-110419771D01*
X184459333Y-110419771D02*
X184697428Y-110419771D01*
X184697428Y-110419771D02*
X184792666Y-110467390D01*
X184792666Y-110467390D02*
X184840285Y-110515009D01*
X184840285Y-110515009D02*
X184887904Y-110610247D01*
X184887904Y-110610247D02*
X184887904Y-110848342D01*
X184887904Y-110848342D02*
X184840285Y-110943580D01*
X184840285Y-110943580D02*
X184792666Y-110991200D01*
X184792666Y-110991200D02*
X184697428Y-111038819D01*
X184697428Y-111038819D02*
X184459333Y-111038819D01*
X184459333Y-111038819D02*
X184364095Y-110991200D01*
X184364095Y-110991200D02*
X184316476Y-110943580D01*
X117014666Y-98768819D02*
X117014666Y-99483104D01*
X117014666Y-99483104D02*
X116967047Y-99625961D01*
X116967047Y-99625961D02*
X116871809Y-99721200D01*
X116871809Y-99721200D02*
X116728952Y-99768819D01*
X116728952Y-99768819D02*
X116633714Y-99768819D01*
X117443238Y-98864057D02*
X117490857Y-98816438D01*
X117490857Y-98816438D02*
X117586095Y-98768819D01*
X117586095Y-98768819D02*
X117824190Y-98768819D01*
X117824190Y-98768819D02*
X117919428Y-98816438D01*
X117919428Y-98816438D02*
X117967047Y-98864057D01*
X117967047Y-98864057D02*
X118014666Y-98959295D01*
X118014666Y-98959295D02*
X118014666Y-99054533D01*
X118014666Y-99054533D02*
X117967047Y-99197390D01*
X117967047Y-99197390D02*
X117395619Y-99768819D01*
X117395619Y-99768819D02*
X118014666Y-99768819D01*
X177935141Y-127613580D02*
X177887522Y-127661200D01*
X177887522Y-127661200D02*
X177744665Y-127708819D01*
X177744665Y-127708819D02*
X177649427Y-127708819D01*
X177649427Y-127708819D02*
X177506570Y-127661200D01*
X177506570Y-127661200D02*
X177411332Y-127565961D01*
X177411332Y-127565961D02*
X177363713Y-127470723D01*
X177363713Y-127470723D02*
X177316094Y-127280247D01*
X177316094Y-127280247D02*
X177316094Y-127137390D01*
X177316094Y-127137390D02*
X177363713Y-126946914D01*
X177363713Y-126946914D02*
X177411332Y-126851676D01*
X177411332Y-126851676D02*
X177506570Y-126756438D01*
X177506570Y-126756438D02*
X177649427Y-126708819D01*
X177649427Y-126708819D02*
X177744665Y-126708819D01*
X177744665Y-126708819D02*
X177887522Y-126756438D01*
X177887522Y-126756438D02*
X177935141Y-126804057D01*
X178316094Y-126804057D02*
X178363713Y-126756438D01*
X178363713Y-126756438D02*
X178458951Y-126708819D01*
X178458951Y-126708819D02*
X178697046Y-126708819D01*
X178697046Y-126708819D02*
X178792284Y-126756438D01*
X178792284Y-126756438D02*
X178839903Y-126804057D01*
X178839903Y-126804057D02*
X178887522Y-126899295D01*
X178887522Y-126899295D02*
X178887522Y-126994533D01*
X178887522Y-126994533D02*
X178839903Y-127137390D01*
X178839903Y-127137390D02*
X178268475Y-127708819D01*
X178268475Y-127708819D02*
X178887522Y-127708819D01*
X179268475Y-126804057D02*
X179316094Y-126756438D01*
X179316094Y-126756438D02*
X179411332Y-126708819D01*
X179411332Y-126708819D02*
X179649427Y-126708819D01*
X179649427Y-126708819D02*
X179744665Y-126756438D01*
X179744665Y-126756438D02*
X179792284Y-126804057D01*
X179792284Y-126804057D02*
X179839903Y-126899295D01*
X179839903Y-126899295D02*
X179839903Y-126994533D01*
X179839903Y-126994533D02*
X179792284Y-127137390D01*
X179792284Y-127137390D02*
X179220856Y-127708819D01*
X179220856Y-127708819D02*
X179839903Y-127708819D01*
X177665142Y-107895580D02*
X177617523Y-107943200D01*
X177617523Y-107943200D02*
X177474666Y-107990819D01*
X177474666Y-107990819D02*
X177379428Y-107990819D01*
X177379428Y-107990819D02*
X177236571Y-107943200D01*
X177236571Y-107943200D02*
X177141333Y-107847961D01*
X177141333Y-107847961D02*
X177093714Y-107752723D01*
X177093714Y-107752723D02*
X177046095Y-107562247D01*
X177046095Y-107562247D02*
X177046095Y-107419390D01*
X177046095Y-107419390D02*
X177093714Y-107228914D01*
X177093714Y-107228914D02*
X177141333Y-107133676D01*
X177141333Y-107133676D02*
X177236571Y-107038438D01*
X177236571Y-107038438D02*
X177379428Y-106990819D01*
X177379428Y-106990819D02*
X177474666Y-106990819D01*
X177474666Y-106990819D02*
X177617523Y-107038438D01*
X177617523Y-107038438D02*
X177665142Y-107086057D01*
X178617523Y-107990819D02*
X178046095Y-107990819D01*
X178331809Y-107990819D02*
X178331809Y-106990819D01*
X178331809Y-106990819D02*
X178236571Y-107133676D01*
X178236571Y-107133676D02*
X178141333Y-107228914D01*
X178141333Y-107228914D02*
X178046095Y-107276533D01*
X179188952Y-107419390D02*
X179093714Y-107371771D01*
X179093714Y-107371771D02*
X179046095Y-107324152D01*
X179046095Y-107324152D02*
X178998476Y-107228914D01*
X178998476Y-107228914D02*
X178998476Y-107181295D01*
X178998476Y-107181295D02*
X179046095Y-107086057D01*
X179046095Y-107086057D02*
X179093714Y-107038438D01*
X179093714Y-107038438D02*
X179188952Y-106990819D01*
X179188952Y-106990819D02*
X179379428Y-106990819D01*
X179379428Y-106990819D02*
X179474666Y-107038438D01*
X179474666Y-107038438D02*
X179522285Y-107086057D01*
X179522285Y-107086057D02*
X179569904Y-107181295D01*
X179569904Y-107181295D02*
X179569904Y-107228914D01*
X179569904Y-107228914D02*
X179522285Y-107324152D01*
X179522285Y-107324152D02*
X179474666Y-107371771D01*
X179474666Y-107371771D02*
X179379428Y-107419390D01*
X179379428Y-107419390D02*
X179188952Y-107419390D01*
X179188952Y-107419390D02*
X179093714Y-107467009D01*
X179093714Y-107467009D02*
X179046095Y-107514628D01*
X179046095Y-107514628D02*
X178998476Y-107609866D01*
X178998476Y-107609866D02*
X178998476Y-107800342D01*
X178998476Y-107800342D02*
X179046095Y-107895580D01*
X179046095Y-107895580D02*
X179093714Y-107943200D01*
X179093714Y-107943200D02*
X179188952Y-107990819D01*
X179188952Y-107990819D02*
X179379428Y-107990819D01*
X179379428Y-107990819D02*
X179474666Y-107943200D01*
X179474666Y-107943200D02*
X179522285Y-107895580D01*
X179522285Y-107895580D02*
X179569904Y-107800342D01*
X179569904Y-107800342D02*
X179569904Y-107609866D01*
X179569904Y-107609866D02*
X179522285Y-107514628D01*
X179522285Y-107514628D02*
X179474666Y-107467009D01*
X179474666Y-107467009D02*
X179379428Y-107419390D01*
X158011905Y-118564819D02*
X158011905Y-117564819D01*
X158011905Y-117564819D02*
X158250000Y-117564819D01*
X158250000Y-117564819D02*
X158392857Y-117612438D01*
X158392857Y-117612438D02*
X158488095Y-117707676D01*
X158488095Y-117707676D02*
X158535714Y-117802914D01*
X158535714Y-117802914D02*
X158583333Y-117993390D01*
X158583333Y-117993390D02*
X158583333Y-118136247D01*
X158583333Y-118136247D02*
X158535714Y-118326723D01*
X158535714Y-118326723D02*
X158488095Y-118421961D01*
X158488095Y-118421961D02*
X158392857Y-118517200D01*
X158392857Y-118517200D02*
X158250000Y-118564819D01*
X158250000Y-118564819D02*
X158011905Y-118564819D01*
X158964286Y-117660057D02*
X159011905Y-117612438D01*
X159011905Y-117612438D02*
X159107143Y-117564819D01*
X159107143Y-117564819D02*
X159345238Y-117564819D01*
X159345238Y-117564819D02*
X159440476Y-117612438D01*
X159440476Y-117612438D02*
X159488095Y-117660057D01*
X159488095Y-117660057D02*
X159535714Y-117755295D01*
X159535714Y-117755295D02*
X159535714Y-117850533D01*
X159535714Y-117850533D02*
X159488095Y-117993390D01*
X159488095Y-117993390D02*
X158916667Y-118564819D01*
X158916667Y-118564819D02*
X159535714Y-118564819D01*
X182999142Y-109420819D02*
X182665809Y-108944628D01*
X182427714Y-109420819D02*
X182427714Y-108420819D01*
X182427714Y-108420819D02*
X182808666Y-108420819D01*
X182808666Y-108420819D02*
X182903904Y-108468438D01*
X182903904Y-108468438D02*
X182951523Y-108516057D01*
X182951523Y-108516057D02*
X182999142Y-108611295D01*
X182999142Y-108611295D02*
X182999142Y-108754152D01*
X182999142Y-108754152D02*
X182951523Y-108849390D01*
X182951523Y-108849390D02*
X182903904Y-108897009D01*
X182903904Y-108897009D02*
X182808666Y-108944628D01*
X182808666Y-108944628D02*
X182427714Y-108944628D01*
X183380095Y-108516057D02*
X183427714Y-108468438D01*
X183427714Y-108468438D02*
X183522952Y-108420819D01*
X183522952Y-108420819D02*
X183761047Y-108420819D01*
X183761047Y-108420819D02*
X183856285Y-108468438D01*
X183856285Y-108468438D02*
X183903904Y-108516057D01*
X183903904Y-108516057D02*
X183951523Y-108611295D01*
X183951523Y-108611295D02*
X183951523Y-108706533D01*
X183951523Y-108706533D02*
X183903904Y-108849390D01*
X183903904Y-108849390D02*
X183332476Y-109420819D01*
X183332476Y-109420819D02*
X183951523Y-109420819D01*
X184427714Y-109420819D02*
X184618190Y-109420819D01*
X184618190Y-109420819D02*
X184713428Y-109373200D01*
X184713428Y-109373200D02*
X184761047Y-109325580D01*
X184761047Y-109325580D02*
X184856285Y-109182723D01*
X184856285Y-109182723D02*
X184903904Y-108992247D01*
X184903904Y-108992247D02*
X184903904Y-108611295D01*
X184903904Y-108611295D02*
X184856285Y-108516057D01*
X184856285Y-108516057D02*
X184808666Y-108468438D01*
X184808666Y-108468438D02*
X184713428Y-108420819D01*
X184713428Y-108420819D02*
X184522952Y-108420819D01*
X184522952Y-108420819D02*
X184427714Y-108468438D01*
X184427714Y-108468438D02*
X184380095Y-108516057D01*
X184380095Y-108516057D02*
X184332476Y-108611295D01*
X184332476Y-108611295D02*
X184332476Y-108849390D01*
X184332476Y-108849390D02*
X184380095Y-108944628D01*
X184380095Y-108944628D02*
X184427714Y-108992247D01*
X184427714Y-108992247D02*
X184522952Y-109039866D01*
X184522952Y-109039866D02*
X184713428Y-109039866D01*
X184713428Y-109039866D02*
X184808666Y-108992247D01*
X184808666Y-108992247D02*
X184856285Y-108944628D01*
X184856285Y-108944628D02*
X184903904Y-108849390D01*
X145121333Y-133804819D02*
X144788000Y-133328628D01*
X144549905Y-133804819D02*
X144549905Y-132804819D01*
X144549905Y-132804819D02*
X144930857Y-132804819D01*
X144930857Y-132804819D02*
X145026095Y-132852438D01*
X145026095Y-132852438D02*
X145073714Y-132900057D01*
X145073714Y-132900057D02*
X145121333Y-132995295D01*
X145121333Y-132995295D02*
X145121333Y-133138152D01*
X145121333Y-133138152D02*
X145073714Y-133233390D01*
X145073714Y-133233390D02*
X145026095Y-133281009D01*
X145026095Y-133281009D02*
X144930857Y-133328628D01*
X144930857Y-133328628D02*
X144549905Y-133328628D01*
X146073714Y-133804819D02*
X145502286Y-133804819D01*
X145788000Y-133804819D02*
X145788000Y-132804819D01*
X145788000Y-132804819D02*
X145692762Y-132947676D01*
X145692762Y-132947676D02*
X145597524Y-133042914D01*
X145597524Y-133042914D02*
X145502286Y-133090533D01*
X138295142Y-84179580D02*
X138247523Y-84227200D01*
X138247523Y-84227200D02*
X138104666Y-84274819D01*
X138104666Y-84274819D02*
X138009428Y-84274819D01*
X138009428Y-84274819D02*
X137866571Y-84227200D01*
X137866571Y-84227200D02*
X137771333Y-84131961D01*
X137771333Y-84131961D02*
X137723714Y-84036723D01*
X137723714Y-84036723D02*
X137676095Y-83846247D01*
X137676095Y-83846247D02*
X137676095Y-83703390D01*
X137676095Y-83703390D02*
X137723714Y-83512914D01*
X137723714Y-83512914D02*
X137771333Y-83417676D01*
X137771333Y-83417676D02*
X137866571Y-83322438D01*
X137866571Y-83322438D02*
X138009428Y-83274819D01*
X138009428Y-83274819D02*
X138104666Y-83274819D01*
X138104666Y-83274819D02*
X138247523Y-83322438D01*
X138247523Y-83322438D02*
X138295142Y-83370057D01*
X139247523Y-84274819D02*
X138676095Y-84274819D01*
X138961809Y-84274819D02*
X138961809Y-83274819D01*
X138961809Y-83274819D02*
X138866571Y-83417676D01*
X138866571Y-83417676D02*
X138771333Y-83512914D01*
X138771333Y-83512914D02*
X138676095Y-83560533D01*
X139580857Y-83274819D02*
X140199904Y-83274819D01*
X140199904Y-83274819D02*
X139866571Y-83655771D01*
X139866571Y-83655771D02*
X140009428Y-83655771D01*
X140009428Y-83655771D02*
X140104666Y-83703390D01*
X140104666Y-83703390D02*
X140152285Y-83751009D01*
X140152285Y-83751009D02*
X140199904Y-83846247D01*
X140199904Y-83846247D02*
X140199904Y-84084342D01*
X140199904Y-84084342D02*
X140152285Y-84179580D01*
X140152285Y-84179580D02*
X140104666Y-84227200D01*
X140104666Y-84227200D02*
X140009428Y-84274819D01*
X140009428Y-84274819D02*
X139723714Y-84274819D01*
X139723714Y-84274819D02*
X139628476Y-84227200D01*
X139628476Y-84227200D02*
X139580857Y-84179580D01*
X169029142Y-101451580D02*
X168981523Y-101499200D01*
X168981523Y-101499200D02*
X168838666Y-101546819D01*
X168838666Y-101546819D02*
X168743428Y-101546819D01*
X168743428Y-101546819D02*
X168600571Y-101499200D01*
X168600571Y-101499200D02*
X168505333Y-101403961D01*
X168505333Y-101403961D02*
X168457714Y-101308723D01*
X168457714Y-101308723D02*
X168410095Y-101118247D01*
X168410095Y-101118247D02*
X168410095Y-100975390D01*
X168410095Y-100975390D02*
X168457714Y-100784914D01*
X168457714Y-100784914D02*
X168505333Y-100689676D01*
X168505333Y-100689676D02*
X168600571Y-100594438D01*
X168600571Y-100594438D02*
X168743428Y-100546819D01*
X168743428Y-100546819D02*
X168838666Y-100546819D01*
X168838666Y-100546819D02*
X168981523Y-100594438D01*
X168981523Y-100594438D02*
X169029142Y-100642057D01*
X169981523Y-101546819D02*
X169410095Y-101546819D01*
X169695809Y-101546819D02*
X169695809Y-100546819D01*
X169695809Y-100546819D02*
X169600571Y-100689676D01*
X169600571Y-100689676D02*
X169505333Y-100784914D01*
X169505333Y-100784914D02*
X169410095Y-100832533D01*
X170838666Y-100546819D02*
X170648190Y-100546819D01*
X170648190Y-100546819D02*
X170552952Y-100594438D01*
X170552952Y-100594438D02*
X170505333Y-100642057D01*
X170505333Y-100642057D02*
X170410095Y-100784914D01*
X170410095Y-100784914D02*
X170362476Y-100975390D01*
X170362476Y-100975390D02*
X170362476Y-101356342D01*
X170362476Y-101356342D02*
X170410095Y-101451580D01*
X170410095Y-101451580D02*
X170457714Y-101499200D01*
X170457714Y-101499200D02*
X170552952Y-101546819D01*
X170552952Y-101546819D02*
X170743428Y-101546819D01*
X170743428Y-101546819D02*
X170838666Y-101499200D01*
X170838666Y-101499200D02*
X170886285Y-101451580D01*
X170886285Y-101451580D02*
X170933904Y-101356342D01*
X170933904Y-101356342D02*
X170933904Y-101118247D01*
X170933904Y-101118247D02*
X170886285Y-101023009D01*
X170886285Y-101023009D02*
X170838666Y-100975390D01*
X170838666Y-100975390D02*
X170743428Y-100927771D01*
X170743428Y-100927771D02*
X170552952Y-100927771D01*
X170552952Y-100927771D02*
X170457714Y-100975390D01*
X170457714Y-100975390D02*
X170410095Y-101023009D01*
X170410095Y-101023009D02*
X170362476Y-101118247D01*
X156900666Y-140393009D02*
X156567333Y-140393009D01*
X156567333Y-140916819D02*
X156567333Y-139916819D01*
X156567333Y-139916819D02*
X157043523Y-139916819D01*
X157757809Y-140393009D02*
X157900666Y-140440628D01*
X157900666Y-140440628D02*
X157948285Y-140488247D01*
X157948285Y-140488247D02*
X157995904Y-140583485D01*
X157995904Y-140583485D02*
X157995904Y-140726342D01*
X157995904Y-140726342D02*
X157948285Y-140821580D01*
X157948285Y-140821580D02*
X157900666Y-140869200D01*
X157900666Y-140869200D02*
X157805428Y-140916819D01*
X157805428Y-140916819D02*
X157424476Y-140916819D01*
X157424476Y-140916819D02*
X157424476Y-139916819D01*
X157424476Y-139916819D02*
X157757809Y-139916819D01*
X157757809Y-139916819D02*
X157853047Y-139964438D01*
X157853047Y-139964438D02*
X157900666Y-140012057D01*
X157900666Y-140012057D02*
X157948285Y-140107295D01*
X157948285Y-140107295D02*
X157948285Y-140202533D01*
X157948285Y-140202533D02*
X157900666Y-140297771D01*
X157900666Y-140297771D02*
X157853047Y-140345390D01*
X157853047Y-140345390D02*
X157757809Y-140393009D01*
X157757809Y-140393009D02*
X157424476Y-140393009D01*
X158376857Y-140012057D02*
X158424476Y-139964438D01*
X158424476Y-139964438D02*
X158519714Y-139916819D01*
X158519714Y-139916819D02*
X158757809Y-139916819D01*
X158757809Y-139916819D02*
X158853047Y-139964438D01*
X158853047Y-139964438D02*
X158900666Y-140012057D01*
X158900666Y-140012057D02*
X158948285Y-140107295D01*
X158948285Y-140107295D02*
X158948285Y-140202533D01*
X158948285Y-140202533D02*
X158900666Y-140345390D01*
X158900666Y-140345390D02*
X158329238Y-140916819D01*
X158329238Y-140916819D02*
X158948285Y-140916819D01*
X113657142Y-113643580D02*
X113609523Y-113691200D01*
X113609523Y-113691200D02*
X113466666Y-113738819D01*
X113466666Y-113738819D02*
X113371428Y-113738819D01*
X113371428Y-113738819D02*
X113228571Y-113691200D01*
X113228571Y-113691200D02*
X113133333Y-113595961D01*
X113133333Y-113595961D02*
X113085714Y-113500723D01*
X113085714Y-113500723D02*
X113038095Y-113310247D01*
X113038095Y-113310247D02*
X113038095Y-113167390D01*
X113038095Y-113167390D02*
X113085714Y-112976914D01*
X113085714Y-112976914D02*
X113133333Y-112881676D01*
X113133333Y-112881676D02*
X113228571Y-112786438D01*
X113228571Y-112786438D02*
X113371428Y-112738819D01*
X113371428Y-112738819D02*
X113466666Y-112738819D01*
X113466666Y-112738819D02*
X113609523Y-112786438D01*
X113609523Y-112786438D02*
X113657142Y-112834057D01*
X113990476Y-112738819D02*
X114609523Y-112738819D01*
X114609523Y-112738819D02*
X114276190Y-113119771D01*
X114276190Y-113119771D02*
X114419047Y-113119771D01*
X114419047Y-113119771D02*
X114514285Y-113167390D01*
X114514285Y-113167390D02*
X114561904Y-113215009D01*
X114561904Y-113215009D02*
X114609523Y-113310247D01*
X114609523Y-113310247D02*
X114609523Y-113548342D01*
X114609523Y-113548342D02*
X114561904Y-113643580D01*
X114561904Y-113643580D02*
X114514285Y-113691200D01*
X114514285Y-113691200D02*
X114419047Y-113738819D01*
X114419047Y-113738819D02*
X114133333Y-113738819D01*
X114133333Y-113738819D02*
X114038095Y-113691200D01*
X114038095Y-113691200D02*
X113990476Y-113643580D01*
X114942857Y-112738819D02*
X115561904Y-112738819D01*
X115561904Y-112738819D02*
X115228571Y-113119771D01*
X115228571Y-113119771D02*
X115371428Y-113119771D01*
X115371428Y-113119771D02*
X115466666Y-113167390D01*
X115466666Y-113167390D02*
X115514285Y-113215009D01*
X115514285Y-113215009D02*
X115561904Y-113310247D01*
X115561904Y-113310247D02*
X115561904Y-113548342D01*
X115561904Y-113548342D02*
X115514285Y-113643580D01*
X115514285Y-113643580D02*
X115466666Y-113691200D01*
X115466666Y-113691200D02*
X115371428Y-113738819D01*
X115371428Y-113738819D02*
X115085714Y-113738819D01*
X115085714Y-113738819D02*
X114990476Y-113691200D01*
X114990476Y-113691200D02*
X114942857Y-113643580D01*
X182468880Y-115224190D02*
X181992690Y-115224190D01*
X181992690Y-115224190D02*
X181992690Y-114224190D01*
X182754595Y-114319428D02*
X182802214Y-114271809D01*
X182802214Y-114271809D02*
X182897452Y-114224190D01*
X182897452Y-114224190D02*
X183135547Y-114224190D01*
X183135547Y-114224190D02*
X183230785Y-114271809D01*
X183230785Y-114271809D02*
X183278404Y-114319428D01*
X183278404Y-114319428D02*
X183326023Y-114414666D01*
X183326023Y-114414666D02*
X183326023Y-114509904D01*
X183326023Y-114509904D02*
X183278404Y-114652761D01*
X183278404Y-114652761D02*
X182706976Y-115224190D01*
X182706976Y-115224190D02*
X183326023Y-115224190D01*
X129659141Y-83925580D02*
X129611522Y-83973200D01*
X129611522Y-83973200D02*
X129468665Y-84020819D01*
X129468665Y-84020819D02*
X129373427Y-84020819D01*
X129373427Y-84020819D02*
X129230570Y-83973200D01*
X129230570Y-83973200D02*
X129135332Y-83877961D01*
X129135332Y-83877961D02*
X129087713Y-83782723D01*
X129087713Y-83782723D02*
X129040094Y-83592247D01*
X129040094Y-83592247D02*
X129040094Y-83449390D01*
X129040094Y-83449390D02*
X129087713Y-83258914D01*
X129087713Y-83258914D02*
X129135332Y-83163676D01*
X129135332Y-83163676D02*
X129230570Y-83068438D01*
X129230570Y-83068438D02*
X129373427Y-83020819D01*
X129373427Y-83020819D02*
X129468665Y-83020819D01*
X129468665Y-83020819D02*
X129611522Y-83068438D01*
X129611522Y-83068438D02*
X129659141Y-83116057D01*
X130611522Y-84020819D02*
X130040094Y-84020819D01*
X130325808Y-84020819D02*
X130325808Y-83020819D01*
X130325808Y-83020819D02*
X130230570Y-83163676D01*
X130230570Y-83163676D02*
X130135332Y-83258914D01*
X130135332Y-83258914D02*
X130040094Y-83306533D01*
X131468665Y-83354152D02*
X131468665Y-84020819D01*
X131230570Y-82973200D02*
X130992475Y-83687485D01*
X130992475Y-83687485D02*
X131611522Y-83687485D01*
X164457142Y-105102819D02*
X164123809Y-104626628D01*
X163885714Y-105102819D02*
X163885714Y-104102819D01*
X163885714Y-104102819D02*
X164266666Y-104102819D01*
X164266666Y-104102819D02*
X164361904Y-104150438D01*
X164361904Y-104150438D02*
X164409523Y-104198057D01*
X164409523Y-104198057D02*
X164457142Y-104293295D01*
X164457142Y-104293295D02*
X164457142Y-104436152D01*
X164457142Y-104436152D02*
X164409523Y-104531390D01*
X164409523Y-104531390D02*
X164361904Y-104579009D01*
X164361904Y-104579009D02*
X164266666Y-104626628D01*
X164266666Y-104626628D02*
X163885714Y-104626628D01*
X164838095Y-104198057D02*
X164885714Y-104150438D01*
X164885714Y-104150438D02*
X164980952Y-104102819D01*
X164980952Y-104102819D02*
X165219047Y-104102819D01*
X165219047Y-104102819D02*
X165314285Y-104150438D01*
X165314285Y-104150438D02*
X165361904Y-104198057D01*
X165361904Y-104198057D02*
X165409523Y-104293295D01*
X165409523Y-104293295D02*
X165409523Y-104388533D01*
X165409523Y-104388533D02*
X165361904Y-104531390D01*
X165361904Y-104531390D02*
X164790476Y-105102819D01*
X164790476Y-105102819D02*
X165409523Y-105102819D01*
X166028571Y-104102819D02*
X166123809Y-104102819D01*
X166123809Y-104102819D02*
X166219047Y-104150438D01*
X166219047Y-104150438D02*
X166266666Y-104198057D01*
X166266666Y-104198057D02*
X166314285Y-104293295D01*
X166314285Y-104293295D02*
X166361904Y-104483771D01*
X166361904Y-104483771D02*
X166361904Y-104721866D01*
X166361904Y-104721866D02*
X166314285Y-104912342D01*
X166314285Y-104912342D02*
X166266666Y-105007580D01*
X166266666Y-105007580D02*
X166219047Y-105055200D01*
X166219047Y-105055200D02*
X166123809Y-105102819D01*
X166123809Y-105102819D02*
X166028571Y-105102819D01*
X166028571Y-105102819D02*
X165933333Y-105055200D01*
X165933333Y-105055200D02*
X165885714Y-105007580D01*
X165885714Y-105007580D02*
X165838095Y-104912342D01*
X165838095Y-104912342D02*
X165790476Y-104721866D01*
X165790476Y-104721866D02*
X165790476Y-104483771D01*
X165790476Y-104483771D02*
X165838095Y-104293295D01*
X165838095Y-104293295D02*
X165885714Y-104198057D01*
X165885714Y-104198057D02*
X165933333Y-104150438D01*
X165933333Y-104150438D02*
X166028571Y-104102819D01*
X148963142Y-117707580D02*
X148915523Y-117755200D01*
X148915523Y-117755200D02*
X148772666Y-117802819D01*
X148772666Y-117802819D02*
X148677428Y-117802819D01*
X148677428Y-117802819D02*
X148534571Y-117755200D01*
X148534571Y-117755200D02*
X148439333Y-117659961D01*
X148439333Y-117659961D02*
X148391714Y-117564723D01*
X148391714Y-117564723D02*
X148344095Y-117374247D01*
X148344095Y-117374247D02*
X148344095Y-117231390D01*
X148344095Y-117231390D02*
X148391714Y-117040914D01*
X148391714Y-117040914D02*
X148439333Y-116945676D01*
X148439333Y-116945676D02*
X148534571Y-116850438D01*
X148534571Y-116850438D02*
X148677428Y-116802819D01*
X148677428Y-116802819D02*
X148772666Y-116802819D01*
X148772666Y-116802819D02*
X148915523Y-116850438D01*
X148915523Y-116850438D02*
X148963142Y-116898057D01*
X149915523Y-117802819D02*
X149344095Y-117802819D01*
X149629809Y-117802819D02*
X149629809Y-116802819D01*
X149629809Y-116802819D02*
X149534571Y-116945676D01*
X149534571Y-116945676D02*
X149439333Y-117040914D01*
X149439333Y-117040914D02*
X149344095Y-117088533D01*
X150867904Y-117802819D02*
X150296476Y-117802819D01*
X150582190Y-117802819D02*
X150582190Y-116802819D01*
X150582190Y-116802819D02*
X150486952Y-116945676D01*
X150486952Y-116945676D02*
X150391714Y-117040914D01*
X150391714Y-117040914D02*
X150296476Y-117088533D01*
X164538819Y-92336857D02*
X164062628Y-92670190D01*
X164538819Y-92908285D02*
X163538819Y-92908285D01*
X163538819Y-92908285D02*
X163538819Y-92527333D01*
X163538819Y-92527333D02*
X163586438Y-92432095D01*
X163586438Y-92432095D02*
X163634057Y-92384476D01*
X163634057Y-92384476D02*
X163729295Y-92336857D01*
X163729295Y-92336857D02*
X163872152Y-92336857D01*
X163872152Y-92336857D02*
X163967390Y-92384476D01*
X163967390Y-92384476D02*
X164015009Y-92432095D01*
X164015009Y-92432095D02*
X164062628Y-92527333D01*
X164062628Y-92527333D02*
X164062628Y-92908285D01*
X163634057Y-91955904D02*
X163586438Y-91908285D01*
X163586438Y-91908285D02*
X163538819Y-91813047D01*
X163538819Y-91813047D02*
X163538819Y-91574952D01*
X163538819Y-91574952D02*
X163586438Y-91479714D01*
X163586438Y-91479714D02*
X163634057Y-91432095D01*
X163634057Y-91432095D02*
X163729295Y-91384476D01*
X163729295Y-91384476D02*
X163824533Y-91384476D01*
X163824533Y-91384476D02*
X163967390Y-91432095D01*
X163967390Y-91432095D02*
X164538819Y-92003523D01*
X164538819Y-92003523D02*
X164538819Y-91384476D01*
X163634057Y-91003523D02*
X163586438Y-90955904D01*
X163586438Y-90955904D02*
X163538819Y-90860666D01*
X163538819Y-90860666D02*
X163538819Y-90622571D01*
X163538819Y-90622571D02*
X163586438Y-90527333D01*
X163586438Y-90527333D02*
X163634057Y-90479714D01*
X163634057Y-90479714D02*
X163729295Y-90432095D01*
X163729295Y-90432095D02*
X163824533Y-90432095D01*
X163824533Y-90432095D02*
X163967390Y-90479714D01*
X163967390Y-90479714D02*
X164538819Y-91051142D01*
X164538819Y-91051142D02*
X164538819Y-90432095D01*
X116451142Y-118810939D02*
X116403523Y-118858559D01*
X116403523Y-118858559D02*
X116260666Y-118906178D01*
X116260666Y-118906178D02*
X116165428Y-118906178D01*
X116165428Y-118906178D02*
X116022571Y-118858559D01*
X116022571Y-118858559D02*
X115927333Y-118763320D01*
X115927333Y-118763320D02*
X115879714Y-118668082D01*
X115879714Y-118668082D02*
X115832095Y-118477606D01*
X115832095Y-118477606D02*
X115832095Y-118334749D01*
X115832095Y-118334749D02*
X115879714Y-118144273D01*
X115879714Y-118144273D02*
X115927333Y-118049035D01*
X115927333Y-118049035D02*
X116022571Y-117953797D01*
X116022571Y-117953797D02*
X116165428Y-117906178D01*
X116165428Y-117906178D02*
X116260666Y-117906178D01*
X116260666Y-117906178D02*
X116403523Y-117953797D01*
X116403523Y-117953797D02*
X116451142Y-118001416D01*
X116832095Y-118001416D02*
X116879714Y-117953797D01*
X116879714Y-117953797D02*
X116974952Y-117906178D01*
X116974952Y-117906178D02*
X117213047Y-117906178D01*
X117213047Y-117906178D02*
X117308285Y-117953797D01*
X117308285Y-117953797D02*
X117355904Y-118001416D01*
X117355904Y-118001416D02*
X117403523Y-118096654D01*
X117403523Y-118096654D02*
X117403523Y-118191892D01*
X117403523Y-118191892D02*
X117355904Y-118334749D01*
X117355904Y-118334749D02*
X116784476Y-118906178D01*
X116784476Y-118906178D02*
X117403523Y-118906178D01*
X117736857Y-117906178D02*
X118403523Y-117906178D01*
X118403523Y-117906178D02*
X117974952Y-118906178D01*
X179459143Y-122882819D02*
X179125810Y-122406628D01*
X178887715Y-122882819D02*
X178887715Y-121882819D01*
X178887715Y-121882819D02*
X179268667Y-121882819D01*
X179268667Y-121882819D02*
X179363905Y-121930438D01*
X179363905Y-121930438D02*
X179411524Y-121978057D01*
X179411524Y-121978057D02*
X179459143Y-122073295D01*
X179459143Y-122073295D02*
X179459143Y-122216152D01*
X179459143Y-122216152D02*
X179411524Y-122311390D01*
X179411524Y-122311390D02*
X179363905Y-122359009D01*
X179363905Y-122359009D02*
X179268667Y-122406628D01*
X179268667Y-122406628D02*
X178887715Y-122406628D01*
X179792477Y-121882819D02*
X180411524Y-121882819D01*
X180411524Y-121882819D02*
X180078191Y-122263771D01*
X180078191Y-122263771D02*
X180221048Y-122263771D01*
X180221048Y-122263771D02*
X180316286Y-122311390D01*
X180316286Y-122311390D02*
X180363905Y-122359009D01*
X180363905Y-122359009D02*
X180411524Y-122454247D01*
X180411524Y-122454247D02*
X180411524Y-122692342D01*
X180411524Y-122692342D02*
X180363905Y-122787580D01*
X180363905Y-122787580D02*
X180316286Y-122835200D01*
X180316286Y-122835200D02*
X180221048Y-122882819D01*
X180221048Y-122882819D02*
X179935334Y-122882819D01*
X179935334Y-122882819D02*
X179840096Y-122835200D01*
X179840096Y-122835200D02*
X179792477Y-122787580D01*
X181030572Y-121882819D02*
X181125810Y-121882819D01*
X181125810Y-121882819D02*
X181221048Y-121930438D01*
X181221048Y-121930438D02*
X181268667Y-121978057D01*
X181268667Y-121978057D02*
X181316286Y-122073295D01*
X181316286Y-122073295D02*
X181363905Y-122263771D01*
X181363905Y-122263771D02*
X181363905Y-122501866D01*
X181363905Y-122501866D02*
X181316286Y-122692342D01*
X181316286Y-122692342D02*
X181268667Y-122787580D01*
X181268667Y-122787580D02*
X181221048Y-122835200D01*
X181221048Y-122835200D02*
X181125810Y-122882819D01*
X181125810Y-122882819D02*
X181030572Y-122882819D01*
X181030572Y-122882819D02*
X180935334Y-122835200D01*
X180935334Y-122835200D02*
X180887715Y-122787580D01*
X180887715Y-122787580D02*
X180840096Y-122692342D01*
X180840096Y-122692342D02*
X180792477Y-122501866D01*
X180792477Y-122501866D02*
X180792477Y-122263771D01*
X180792477Y-122263771D02*
X180840096Y-122073295D01*
X180840096Y-122073295D02*
X180887715Y-121978057D01*
X180887715Y-121978057D02*
X180935334Y-121930438D01*
X180935334Y-121930438D02*
X181030572Y-121882819D01*
X146391333Y-137773580D02*
X146343714Y-137821200D01*
X146343714Y-137821200D02*
X146200857Y-137868819D01*
X146200857Y-137868819D02*
X146105619Y-137868819D01*
X146105619Y-137868819D02*
X145962762Y-137821200D01*
X145962762Y-137821200D02*
X145867524Y-137725961D01*
X145867524Y-137725961D02*
X145819905Y-137630723D01*
X145819905Y-137630723D02*
X145772286Y-137440247D01*
X145772286Y-137440247D02*
X145772286Y-137297390D01*
X145772286Y-137297390D02*
X145819905Y-137106914D01*
X145819905Y-137106914D02*
X145867524Y-137011676D01*
X145867524Y-137011676D02*
X145962762Y-136916438D01*
X145962762Y-136916438D02*
X146105619Y-136868819D01*
X146105619Y-136868819D02*
X146200857Y-136868819D01*
X146200857Y-136868819D02*
X146343714Y-136916438D01*
X146343714Y-136916438D02*
X146391333Y-136964057D01*
X147343714Y-137868819D02*
X146772286Y-137868819D01*
X147058000Y-137868819D02*
X147058000Y-136868819D01*
X147058000Y-136868819D02*
X146962762Y-137011676D01*
X146962762Y-137011676D02*
X146867524Y-137106914D01*
X146867524Y-137106914D02*
X146772286Y-137154533D01*
D13*
%TO.C,C23*%
X181977419Y-118085500D02*
X182258581Y-118085501D01*
X181977419Y-119105499D02*
X182258581Y-119105500D01*
%TO.C,R19*%
X161783500Y-94979258D02*
X161783500Y-94504742D01*
X162828500Y-94979258D02*
X162828500Y-94504742D01*
%TO.C,C17*%
X166894577Y-102290807D02*
X166613415Y-102290806D01*
X166894577Y-103310806D02*
X166613415Y-103310805D01*
%TO.C,R37*%
X145779258Y-139431500D02*
X145304742Y-139431500D01*
X145779258Y-140476500D02*
X145304742Y-140476500D01*
%TO.C,D6*%
X112549002Y-107709496D02*
X112549001Y-109994494D01*
X114019000Y-109994497D02*
X114019001Y-107709498D01*
X114019001Y-107709498D02*
X112549002Y-107709496D01*
%TO.C,C7*%
X149453641Y-145170936D02*
X149453640Y-144889774D01*
X150473640Y-145170936D02*
X150473639Y-144889774D01*
%TO.C,C30*%
X154176001Y-125589419D02*
X154176000Y-125870581D01*
X155196000Y-125589419D02*
X155195999Y-125870581D01*
%TO.C,U5*%
X174165999Y-112036000D02*
X174166000Y-111551000D01*
X174166000Y-115531000D02*
X174165999Y-114806000D01*
X174891000Y-111310999D02*
X174466000Y-111311000D01*
X174891000Y-115531001D02*
X174166000Y-115531000D01*
X177661000Y-111310999D02*
X178386000Y-111311000D01*
X177661000Y-115531001D02*
X178386000Y-115531000D01*
X178386000Y-111311000D02*
X178386001Y-112036000D01*
X178386000Y-115531000D02*
X178386001Y-114806000D01*
X174166000Y-111311000D02*
X173926000Y-110981000D01*
X174405999Y-110981000D01*
X174166000Y-111311000D01*
G36*
X174166000Y-111311000D02*
G01*
X173926000Y-110981000D01*
X174405999Y-110981000D01*
X174166000Y-111311000D01*
G37*
D14*
%TO.C,J3*%
X133606445Y-67355589D02*
X140205558Y-63545589D01*
X135003443Y-69775266D02*
X134495443Y-68895384D01*
X137797443Y-74614616D02*
X136019444Y-71535029D01*
X138686442Y-76154411D02*
X145285555Y-72344411D01*
X138958351Y-66465364D02*
X141158057Y-65195369D01*
X140672852Y-69434967D02*
X138958351Y-66465364D01*
X142133355Y-71964633D02*
X141688857Y-71194732D01*
X142133355Y-71964633D02*
X144333057Y-70694631D01*
X142872556Y-68164971D02*
X141094557Y-65085384D01*
X144396557Y-70804616D02*
X143888557Y-69924734D01*
D15*
X133865091Y-69750355D02*
G75*
G02*
X133180091Y-69750355I-342500J0D01*
G01*
X133180091Y-69750355D02*
G75*
G02*
X133865091Y-69750355I342500J0D01*
G01*
D13*
%TO.C,D8*%
X166070223Y-111528332D02*
X167109670Y-112567777D01*
X167109670Y-112567777D02*
X168725408Y-110952037D01*
X167685963Y-109912592D02*
X166070223Y-111528332D01*
%TO.C,C6*%
X130480001Y-118791000D02*
X134390000Y-118791000D01*
X134389998Y-116921000D02*
X130480000Y-116920999D01*
X134390000Y-118791000D02*
X134389998Y-116921000D01*
%TO.C,R2*%
X155433500Y-118634742D02*
X155433500Y-119109258D01*
X156478500Y-118634742D02*
X156478500Y-119109258D01*
%TO.C,C12*%
X146810000Y-122060581D02*
X146810000Y-121779419D01*
X147830000Y-122060581D02*
X147830000Y-121779419D01*
%TO.C,D4*%
X157950002Y-123924999D02*
X160235001Y-123925001D01*
X160235001Y-123925001D02*
X160235002Y-122455001D01*
X160235002Y-122455001D02*
X157950000Y-122455000D01*
%TO.C,C19*%
X174103419Y-108456000D02*
X174384581Y-108456001D01*
X174103419Y-109475999D02*
X174384581Y-109476000D01*
%TO.C,R34*%
X155210742Y-122667500D02*
X155685258Y-122667500D01*
X155210742Y-123712500D02*
X155685258Y-123712500D01*
D14*
%TO.C,J14*%
X112524446Y-80309590D02*
X119123554Y-76499592D01*
X113921443Y-82729266D02*
X113413443Y-81849384D01*
X116715443Y-87568616D02*
X114937448Y-84489030D01*
X117604446Y-89108408D02*
X124203554Y-85298410D01*
X117876353Y-79419368D02*
X120076057Y-78149369D01*
X119590852Y-82388968D02*
X117876353Y-79419368D01*
X121051352Y-84918628D02*
X120606855Y-84148733D01*
X121051352Y-84918628D02*
X123251057Y-83648631D01*
X121790552Y-81118970D02*
X120012557Y-78039384D01*
X123314557Y-83758616D02*
X122806557Y-82878734D01*
D15*
X112783091Y-82704355D02*
G75*
G02*
X112098091Y-82704355I-342500J0D01*
G01*
X112098091Y-82704355D02*
G75*
G02*
X112783091Y-82704355I342500J0D01*
G01*
D13*
%TO.C,C10*%
X146810001Y-116726581D02*
X146810000Y-116445419D01*
X147830000Y-116726581D02*
X147829999Y-116445419D01*
%TO.C,St-Link*%
X133798000Y-129346000D02*
X133797999Y-128016000D01*
X135128000Y-129346001D02*
X133798000Y-129346000D01*
X136398000Y-126686001D02*
X146618000Y-126686001D01*
X136398000Y-129346002D02*
X136398000Y-126686001D01*
X136398000Y-129346002D02*
X146618001Y-129345999D01*
X146618001Y-129345999D02*
X146618000Y-126686001D01*
%TO.C,R35*%
X171179258Y-108697500D02*
X170704742Y-108697500D01*
X171179258Y-109742500D02*
X170704742Y-109742500D01*
%TO.C,D3*%
X161571000Y-89954998D02*
X161571001Y-92239998D01*
X163040999Y-89954998D02*
X161571000Y-89954998D01*
X163041000Y-92240000D02*
X163040999Y-89954998D01*
D16*
%TO.C,SW1*%
X136905998Y-131826000D02*
X136905999Y-138937999D01*
X139192000Y-138938000D02*
X138938000Y-138938000D01*
X140208000Y-140462000D02*
X140208000Y-140970001D01*
X140461998Y-141986002D02*
X139954002Y-141986002D01*
X140715999Y-141478001D02*
X139700000Y-141478001D01*
X140970000Y-140970000D02*
X139446000Y-140970000D01*
X141478000Y-131826000D02*
X138938000Y-131826000D01*
X141478000Y-138938000D02*
X141224000Y-138938000D01*
X143510001Y-131826001D02*
X143510002Y-138938000D01*
X141566899Y-135382000D02*
G75*
G02*
X138849101Y-135382000I-1358899J0D01*
G01*
X138849101Y-135382000D02*
G75*
G02*
X141566899Y-135382000I1358899J0D01*
G01*
X142206980Y-135382000D02*
G75*
G02*
X138209020Y-135382000I-1998980J0D01*
G01*
X138209020Y-135382000D02*
G75*
G02*
X142206980Y-135382000I1998980J0D01*
G01*
D13*
%TO.C,R32*%
X119873500Y-95487258D02*
X119873500Y-95012742D01*
X120918500Y-95487258D02*
X120918500Y-95012742D01*
%TO.C,R36*%
X121651500Y-95487258D02*
X121651500Y-95012742D01*
X122696500Y-95487258D02*
X122696500Y-95012742D01*
%TO.C,J5*%
X118309000Y-108398000D02*
X118309000Y-111058000D01*
X120909000Y-108398000D02*
X118309000Y-108398000D01*
X120909000Y-108398000D02*
X120909000Y-111058000D01*
X120909000Y-111058000D02*
X118309000Y-111058000D01*
X122179000Y-108398000D02*
X123509000Y-108398000D01*
X123509000Y-108398000D02*
X123509000Y-109728000D01*
%TO.C,C4*%
X154938001Y-141591419D02*
X154938000Y-141872581D01*
X155958000Y-141591419D02*
X155957999Y-141872581D01*
%TO.C,J16*%
X150307999Y-121925000D02*
X150308001Y-119324999D01*
X152967999Y-119325001D02*
X150308001Y-119324999D01*
X152967999Y-121925002D02*
X150307999Y-121925000D01*
X152967999Y-121925002D02*
X152967999Y-119325001D01*
X152968000Y-124525000D02*
X151638001Y-124525002D01*
X152968002Y-123194999D02*
X152968000Y-124525000D01*
D14*
%TO.C,J1*%
X145671443Y-83119384D02*
X146179443Y-83999266D01*
X147195444Y-85759029D02*
X148973443Y-88838616D01*
X147934648Y-81959372D02*
X145734943Y-83229369D01*
X147934648Y-81959372D02*
X148379142Y-82729270D01*
X149395143Y-84489032D02*
X151109649Y-87458636D01*
X151109649Y-87458636D02*
X148909943Y-88728631D01*
X151381558Y-77769589D02*
X144782444Y-81579590D01*
X152270557Y-79309384D02*
X154048556Y-82388971D01*
X155064557Y-84148734D02*
X155572557Y-85028616D01*
X156461556Y-86568410D02*
X149862442Y-90378411D01*
D15*
X156887909Y-84173645D02*
G75*
G02*
X156202909Y-84173645I-342500J0D01*
G01*
X156202909Y-84173645D02*
G75*
G02*
X156887909Y-84173645I342500J0D01*
G01*
D13*
%TO.C,JP11*%
X165028166Y-71186217D02*
X164790904Y-71597165D01*
X166128020Y-71821219D02*
X165890758Y-72232167D01*
%TO.C,C26*%
X185656001Y-112635419D02*
X185656000Y-112916581D01*
X186676000Y-112635419D02*
X186675999Y-112916581D01*
%TO.C,R33*%
X123429500Y-95012742D02*
X123429500Y-95487258D01*
X124474500Y-95012742D02*
X124474500Y-95487258D01*
%TO.C,JP13*%
X162870557Y-69937824D02*
X162633295Y-70348772D01*
X163970411Y-70572826D02*
X163733149Y-70983774D01*
%TO.C,C15*%
X146625269Y-69586981D02*
X148580265Y-72973141D01*
X148244733Y-68651984D02*
X146625269Y-69586981D01*
X150199735Y-72038140D02*
X148244733Y-68651984D01*
D17*
%TO.C,U3*%
X142341600Y-116941600D02*
X142341600Y-117132059D01*
X142341600Y-120294400D02*
X145694400Y-120294400D01*
X142341601Y-120103942D02*
X142341600Y-120294400D01*
X145694399Y-117132058D02*
X145694400Y-116941600D01*
X145694400Y-116941600D02*
X142341600Y-116941600D01*
X145694400Y-120294400D02*
X145694400Y-120103941D01*
D13*
%TO.C,C21*%
X175512001Y-124804918D02*
X175512000Y-125086080D01*
X176532000Y-124804918D02*
X176531999Y-125086080D01*
D18*
%TO.C,J7*%
X182820123Y-96119003D02*
X182820124Y-95103004D01*
X182820123Y-101199004D02*
X182820124Y-102215004D01*
X183836124Y-95103004D02*
X182820124Y-95103004D01*
X183836124Y-102215004D02*
X182820124Y-102215004D01*
X186884125Y-101961002D02*
X186884124Y-95357003D01*
D19*
X183278728Y-103231005D02*
G75*
G02*
X182869520Y-103231005I-204604J0D01*
G01*
X182869520Y-103231005D02*
G75*
G02*
X183278728Y-103231005I204604J0D01*
G01*
D13*
%TO.C,C9*%
X144778000Y-115202582D02*
X144777999Y-114921420D01*
X145797999Y-115202582D02*
X145797998Y-114921420D01*
%TO.C,JP2*%
X173767406Y-76280024D02*
X173530144Y-76690972D01*
X174867260Y-76915026D02*
X174629998Y-77325974D01*
%TO.C,Y1*%
X150582911Y-141083814D02*
X151932911Y-141083814D01*
X150582911Y-142833814D02*
X151932911Y-142833814D01*
D18*
%TO.C,J9*%
X188467999Y-95249998D02*
X188468001Y-101853996D01*
X191516000Y-94996000D02*
X192532000Y-94996000D01*
X191516000Y-102108000D02*
X192532000Y-102108000D01*
X192532001Y-101092000D02*
X192532000Y-102108000D01*
X192532002Y-96012002D02*
X192532000Y-94996000D01*
D20*
X192482605Y-93980001D02*
G75*
G02*
X192073397Y-93980001I-204604J0D01*
G01*
X192073397Y-93980001D02*
G75*
G02*
X192482605Y-93980001I204604J0D01*
G01*
D13*
%TO.C,C5*%
X127686000Y-107107001D02*
X131595998Y-107107000D01*
X131595998Y-105237002D02*
X127686000Y-105236999D01*
X131595998Y-107107000D02*
X131595998Y-105237002D01*
%TO.C,C8*%
X151951952Y-145183618D02*
X151951951Y-144902456D01*
X152971951Y-145183618D02*
X152971950Y-144902456D01*
%TO.C,R38*%
X148211335Y-125465250D02*
X148211335Y-124990734D01*
X149256335Y-125465250D02*
X149256335Y-124990734D01*
%TO.C,U4*%
X166854000Y-90035998D02*
X166854000Y-90310999D01*
X166854001Y-99956001D02*
X166854002Y-99681000D01*
X169164000Y-90036000D02*
X166854000Y-90035998D01*
X169164000Y-90036000D02*
X171473999Y-90035999D01*
X169164000Y-99956000D02*
X166854001Y-99956001D01*
X169164000Y-99956000D02*
X171474000Y-99956002D01*
X171473999Y-90035999D02*
X171473998Y-90311000D01*
X171474000Y-99956002D02*
X171474000Y-99681001D01*
X172304000Y-100011000D02*
X171824000Y-100010998D01*
X172063999Y-99680999D01*
X172304000Y-100011000D01*
G36*
X172304000Y-100011000D02*
G01*
X171824000Y-100010998D01*
X172063999Y-99680999D01*
X172304000Y-100011000D01*
G37*
%TO.C,U7*%
X121303998Y-118242000D02*
X122563999Y-118242000D01*
X121304001Y-114482001D02*
X121303998Y-118242000D01*
X128124000Y-118241999D02*
X126864001Y-118242001D01*
X128124006Y-114482002D02*
X128124000Y-118241999D01*
X128353999Y-113442000D02*
X128024000Y-113202000D01*
X128353998Y-112962002D01*
X128353999Y-113442000D01*
G36*
X128353999Y-113442000D02*
G01*
X128024000Y-113202000D01*
X128353998Y-112962002D01*
X128353999Y-113442000D01*
G37*
%TO.C,R31*%
X115047500Y-108919742D02*
X115047500Y-109394258D01*
X116092500Y-108919742D02*
X116092500Y-109394258D01*
%TO.C,D1*%
X144057000Y-124487000D02*
X144057000Y-125957000D01*
X144057000Y-125957000D02*
X146342000Y-125957000D01*
X146342000Y-124487000D02*
X144057000Y-124487000D01*
%TO.C,C29*%
X155954001Y-125589419D02*
X155954000Y-125870581D01*
X156974000Y-125589419D02*
X156973999Y-125870581D01*
D14*
%TO.C,J15*%
X125351443Y-73975384D02*
X125859443Y-74855266D01*
X126875444Y-76615029D02*
X128653443Y-79694616D01*
X127614648Y-72815372D02*
X125414943Y-74085369D01*
X127614648Y-72815372D02*
X128059143Y-73585268D01*
X129075144Y-75345032D02*
X130789647Y-78314632D01*
X130789647Y-78314632D02*
X128589943Y-79584631D01*
X131061555Y-68625591D02*
X124462445Y-72435591D01*
X131950557Y-70165384D02*
X133728556Y-73244971D01*
X134744557Y-75004734D02*
X135252557Y-75884616D01*
X136141555Y-77424409D02*
X129542445Y-81234409D01*
D15*
X136567909Y-75029645D02*
G75*
G02*
X135882909Y-75029645I-342500J0D01*
G01*
X135882909Y-75029645D02*
G75*
G02*
X136567909Y-75029645I342500J0D01*
G01*
D13*
%TO.C,R21*%
X167623258Y-105903500D02*
X167148742Y-105903500D01*
X167623258Y-106948500D02*
X167148742Y-106948500D01*
D18*
%TO.C,J6*%
X182776127Y-80664999D02*
X182776128Y-79649000D01*
X182776127Y-85745000D02*
X182776128Y-86761000D01*
X183792128Y-79649000D02*
X182776128Y-79649000D01*
X183792128Y-86761000D02*
X182776128Y-86761000D01*
X186840129Y-86506998D02*
X186840128Y-79902999D01*
D19*
X183234732Y-87777001D02*
G75*
G02*
X182825524Y-87777001I-204604J0D01*
G01*
X182825524Y-87777001D02*
G75*
G02*
X183234732Y-87777001I204604J0D01*
G01*
D13*
%TO.C,Y2*%
X173988000Y-117579999D02*
X173988000Y-121180001D01*
X173988000Y-121180001D02*
X179738000Y-121180000D01*
X179738000Y-117580000D02*
X173988000Y-117579999D01*
D16*
%TO.C,S1*%
X111795999Y-92480000D02*
X111796000Y-93479999D01*
X111796000Y-90496130D02*
X111796001Y-91463869D01*
X111796000Y-90496130D02*
X116296000Y-90496130D01*
X111796000Y-94480000D02*
X111796000Y-95480001D01*
X111796000Y-96496130D02*
X111796000Y-97463870D01*
X113045999Y-91980000D02*
X113546000Y-91980000D01*
X113046000Y-93980000D02*
X115046000Y-93980000D01*
X113046001Y-95980000D02*
X113045999Y-91980000D01*
X113046001Y-95980000D02*
X113546000Y-95980000D01*
X114546000Y-91980000D02*
X115045999Y-91980000D01*
X114546000Y-95980000D02*
X115046001Y-95980000D01*
X115046001Y-95980000D02*
X115045999Y-91980000D01*
X116295999Y-96480000D02*
X116296000Y-97447740D01*
X116296000Y-90496130D02*
X116296000Y-91463870D01*
X116296000Y-92479999D02*
X116296000Y-93480000D01*
X116296000Y-94480001D02*
X116296001Y-95480000D01*
X116296000Y-97447740D02*
X111796000Y-97463870D01*
D12*
X115046001Y-95980000D02*
X113046001Y-95980000D01*
X113046000Y-93980000D01*
X115046000Y-93980000D01*
X115046001Y-95980000D01*
G36*
X115046001Y-95980000D02*
G01*
X113046001Y-95980000D01*
X113046000Y-93980000D01*
X115046000Y-93980000D01*
X115046001Y-95980000D01*
G37*
D17*
%TO.C,Q1*%
X117577870Y-104878000D02*
X117577872Y-102628001D01*
X124230130Y-102628000D02*
X117577872Y-102628001D01*
X124230130Y-104878000D02*
X117577870Y-104878000D01*
X124230130Y-104878000D02*
X124230130Y-102628000D01*
D21*
X123054005Y-99378000D02*
G75*
G02*
X122754005Y-99378000I-150000J0D01*
G01*
X122754005Y-99378000D02*
G75*
G02*
X123054005Y-99378000I150000J0D01*
G01*
D14*
%TO.C,J13*%
X147195443Y-62037384D02*
X147703443Y-62917266D01*
X148719444Y-64677029D02*
X150497443Y-67756616D01*
X149458644Y-60877367D02*
X147258943Y-62147369D01*
X149458644Y-60877367D02*
X149903143Y-61647268D01*
X150919148Y-63407033D02*
X152633647Y-66376630D01*
X152633647Y-66376630D02*
X150433943Y-67646631D01*
X152905556Y-56687592D02*
X146306445Y-60497589D01*
X153794557Y-58227384D02*
X155572556Y-61306971D01*
X156588557Y-63066734D02*
X157096557Y-63946616D01*
X157985555Y-65486411D02*
X151386444Y-69296408D01*
D15*
X158411909Y-63091645D02*
G75*
G02*
X157726909Y-63091645I-342500J0D01*
G01*
X157726909Y-63091645D02*
G75*
G02*
X158411909Y-63091645I342500J0D01*
G01*
D13*
%TO.C,C24*%
X181977419Y-116318524D02*
X182258581Y-116318525D01*
X181977419Y-117338523D02*
X182258581Y-117338524D01*
%TO.C,U1*%
X149297999Y-129232001D02*
X149598000Y-129231999D01*
X149297999Y-136152000D02*
X149298001Y-136452001D01*
X149298000Y-129532000D02*
X149297999Y-129232001D01*
X149298001Y-136452001D02*
X149598000Y-136452000D01*
X156517999Y-129231999D02*
X156218000Y-129232000D01*
X156518000Y-136152000D02*
X156518001Y-136451999D01*
X156518001Y-129532000D02*
X156517999Y-129231999D01*
X156518001Y-136451999D02*
X156218000Y-136452001D01*
X149598000Y-137054500D02*
X149128000Y-137394501D01*
X149128000Y-136714500D01*
X149598000Y-137054500D01*
G36*
X149598000Y-137054500D02*
G01*
X149128000Y-137394501D01*
X149128000Y-136714500D01*
X149598000Y-137054500D01*
G37*
%TO.C,U2*%
X129431999Y-110164000D02*
X129432000Y-113923999D01*
X129432000Y-113923999D02*
X130691999Y-113924000D01*
X136251999Y-110164000D02*
X136252001Y-113924000D01*
X136252001Y-113924000D02*
X134991999Y-113923999D01*
X136481999Y-109124000D02*
X136152000Y-108884000D01*
X136481999Y-108644000D01*
X136481999Y-109124000D01*
G36*
X136481999Y-109124000D02*
G01*
X136152000Y-108884000D01*
X136481999Y-108644000D01*
X136481999Y-109124000D01*
G37*
%TO.C,C20*%
X171082581Y-110488000D02*
X170801419Y-110488001D01*
X171082581Y-111507999D02*
X170801419Y-111508000D01*
%TO.C,C25*%
X183485419Y-111504000D02*
X183766581Y-111504001D01*
X183485419Y-112523999D02*
X183766581Y-112524000D01*
D16*
%TO.C,S2*%
X162179573Y-131217849D02*
X166068622Y-128953880D01*
X162663442Y-132055935D02*
X162179573Y-131217849D01*
X163663441Y-133787987D02*
X163163442Y-132921959D01*
X163995975Y-131863949D02*
X165995973Y-135328050D01*
X164428987Y-131613949D02*
X163995975Y-131863949D01*
X164663442Y-135520039D02*
X164163444Y-134654014D01*
X165655378Y-137238120D02*
X165171509Y-136400033D01*
X165728027Y-130863950D02*
X165295013Y-131113949D01*
X165728027Y-130863950D02*
X167728025Y-134328051D01*
X166428987Y-135078051D02*
X165995973Y-135328050D01*
X166552491Y-129791967D02*
X166068622Y-128953880D01*
X166728026Y-132596000D02*
X164995974Y-133596000D01*
X167560556Y-131537986D02*
X167060558Y-130671961D01*
X167728025Y-134328051D02*
X167295013Y-134578051D01*
X168560558Y-133270041D02*
X168060559Y-132404013D01*
X169552492Y-134988120D02*
X165655378Y-137238120D01*
X169552492Y-134988120D02*
X169068622Y-134150032D01*
D12*
X166728026Y-132596000D02*
X164995974Y-133596000D01*
X163995975Y-131863949D01*
X165728027Y-130863950D01*
X166728026Y-132596000D01*
G36*
X166728026Y-132596000D02*
G01*
X164995974Y-133596000D01*
X163995975Y-131863949D01*
X165728027Y-130863950D01*
X166728026Y-132596000D01*
G37*
D13*
%TO.C,J2*%
X110045001Y-99060001D02*
X110045002Y-106680002D01*
X110045002Y-106680002D02*
X116015000Y-106680001D01*
X110805001Y-102870001D02*
X110805002Y-100880002D01*
X110805002Y-105920002D02*
X110805001Y-102870001D01*
X113755000Y-106670000D02*
X113755001Y-105920001D01*
X113755001Y-99070001D02*
X113755001Y-99820000D01*
X113755001Y-99820000D02*
X112415001Y-99820002D01*
X113755001Y-105920001D02*
X110805002Y-105920002D01*
X115255000Y-100870001D02*
X116005002Y-100870001D01*
X115255001Y-99070002D02*
X115255000Y-100870001D01*
X115255001Y-102370002D02*
X115255001Y-103370002D01*
X115255001Y-103370002D02*
X116005002Y-103370003D01*
X115255001Y-104870001D02*
X115255001Y-106670002D01*
X115255001Y-106670002D02*
X116005001Y-106670001D01*
X116005000Y-102370002D02*
X115255001Y-102370002D01*
X116005001Y-99070001D02*
X115255001Y-99070002D01*
X116005001Y-104870002D02*
X115255001Y-104870001D01*
X116005001Y-106670001D02*
X116005001Y-104870002D01*
X116005002Y-100870001D02*
X116005001Y-99070001D01*
X116005002Y-103370003D02*
X116005000Y-102370002D01*
X116015000Y-99060001D02*
X110045001Y-99060001D01*
X116015000Y-106680001D02*
X116015000Y-99060001D01*
X116305001Y-100020001D02*
X116305002Y-98770002D01*
X116305002Y-98770002D02*
X115055001Y-98770001D01*
D22*
X111869017Y-100031839D02*
G75*
G02*
X111251057Y-100031839I-308980J0D01*
G01*
X111251057Y-100031839D02*
G75*
G02*
X111869017Y-100031839I308980J0D01*
G01*
D13*
%TO.C,C22*%
X177544001Y-124804919D02*
X177544000Y-125086081D01*
X178564000Y-124804919D02*
X178563999Y-125086081D01*
%TO.C,C18*%
X178167419Y-108456001D02*
X178448581Y-108456000D01*
X178167419Y-109476000D02*
X178448581Y-109475999D01*
%TO.C,D2*%
X157696000Y-120369000D02*
X159981002Y-120368999D01*
X159981001Y-118898999D02*
X157696001Y-118899001D01*
X159981002Y-120368999D02*
X159981001Y-118898999D01*
%TO.C,R29*%
X180325500Y-109711258D02*
X180325500Y-109236742D01*
X181370500Y-109711258D02*
X181370500Y-109236742D01*
%TO.C,R1*%
X145756791Y-134326601D02*
X145282275Y-134326601D01*
X145756791Y-135371601D02*
X145282275Y-135371601D01*
%TO.C,JP4*%
X169410998Y-73665540D02*
X169173736Y-74076488D01*
X170510852Y-74300542D02*
X170273590Y-74711490D01*
%TO.C,JP3*%
X171567702Y-75010022D02*
X171330440Y-75420970D01*
X172667556Y-75645024D02*
X172430294Y-76055972D01*
%TO.C,C13*%
X140529269Y-84064981D02*
X142484265Y-87451141D01*
X142148733Y-83129984D02*
X140529269Y-84064981D01*
X144103735Y-86516140D02*
X142148733Y-83129984D01*
%TO.C,C16*%
X166919857Y-100609677D02*
X166638695Y-100609677D01*
X166919857Y-101629677D02*
X166638695Y-101629677D01*
%TO.C,FB2*%
X154448742Y-138669500D02*
X154923258Y-138669500D01*
X154448742Y-139714500D02*
X154923258Y-139714500D01*
D14*
%TO.C,J12*%
X132082445Y-88945591D02*
X138681558Y-85135589D01*
X133479443Y-91365266D02*
X132971443Y-90485384D01*
X136273443Y-96204616D02*
X134495444Y-93125029D01*
X137162442Y-97744411D02*
X143761555Y-93934409D01*
X137434350Y-88055365D02*
X139634057Y-86785369D01*
X139148852Y-91024968D02*
X137434350Y-88055365D01*
X140609352Y-93554628D02*
X140164857Y-92784732D01*
X140609352Y-93554628D02*
X142809057Y-92284631D01*
X141348556Y-89754971D02*
X139570557Y-86675384D01*
X142872557Y-92394616D02*
X142364557Y-91514734D01*
D15*
X132341091Y-91340355D02*
G75*
G02*
X131656091Y-91340355I-342500J0D01*
G01*
X131656091Y-91340355D02*
G75*
G02*
X132341091Y-91340355I342500J0D01*
G01*
D13*
%TO.C,C33*%
X116054000Y-114219000D02*
X119963999Y-114219000D01*
X116054002Y-112349000D02*
X116054000Y-114219000D01*
X119964000Y-112348999D02*
X116054002Y-112349000D01*
%TO.C,J10*%
X114834070Y-123151186D02*
X113504074Y-125454810D01*
X128953965Y-134374814D02*
X113504074Y-125454810D01*
X130283966Y-132071187D02*
X114834070Y-123151186D01*
X130283966Y-132071187D02*
X128953965Y-134374814D01*
X131383817Y-132706183D02*
X132535631Y-133371185D01*
X132535631Y-133371185D02*
X131870633Y-134522999D01*
%TO.C,JP9*%
X167208704Y-72375025D02*
X166971442Y-72785973D01*
X168308558Y-73010027D02*
X168071296Y-73420975D01*
D18*
%TO.C,J8*%
X188573003Y-79903004D02*
X188573000Y-86506998D01*
X191621001Y-79648999D02*
X192637001Y-79648999D01*
X191621001Y-86760999D02*
X192637001Y-86760999D01*
X192637002Y-80664999D02*
X192637001Y-79648999D01*
X192637002Y-85744999D02*
X192637001Y-86760999D01*
D19*
X192587605Y-78632998D02*
G75*
G02*
X192178397Y-78632998I-204604J0D01*
G01*
X192178397Y-78632998D02*
G75*
G02*
X192587605Y-78632998I204604J0D01*
G01*
D13*
%TO.C,C14*%
X125289267Y-81778983D02*
X127244265Y-85165141D01*
X126908733Y-80843983D02*
X125289267Y-81778983D01*
X128863735Y-84230140D02*
X126908733Y-80843983D01*
D12*
%TO.C,Q3*%
X120987911Y-92151675D02*
X120987912Y-89151674D01*
X120987912Y-89151674D02*
X121987912Y-89151674D01*
X125487911Y-89151673D02*
X124487912Y-89151675D01*
X125487913Y-92151673D02*
X125487911Y-89151673D01*
D13*
%TO.C,R20*%
X168385258Y-104125500D02*
X167910742Y-104125500D01*
X168385258Y-105170500D02*
X167910742Y-105170500D01*
%TO.C,J4*%
X157843925Y-146215815D02*
X157178925Y-145064002D01*
X158765591Y-142612189D02*
X169816075Y-136232188D01*
X158995740Y-145550815D02*
X157843925Y-146215815D01*
X160095593Y-144915816D02*
X158765591Y-142612189D01*
X160095593Y-144915816D02*
X171146077Y-138535815D01*
X171146077Y-138535815D02*
X169816075Y-136232188D01*
%TO.C,C11*%
X148222581Y-119124000D02*
X147941419Y-119124000D01*
X148222581Y-120144000D02*
X147941419Y-120144000D01*
%TO.C,R22*%
X163561500Y-94504742D02*
X163561500Y-94979258D01*
X164606500Y-94504742D02*
X164606500Y-94979258D01*
%TO.C,C27*%
X118708551Y-116851363D02*
X118708552Y-120761361D01*
X118708552Y-120761361D02*
X120578552Y-120761361D01*
X120578552Y-120761361D02*
X120578553Y-116851363D01*
%TO.C,R30*%
X177275258Y-121883000D02*
X176800742Y-121883000D01*
X177275258Y-122928000D02*
X176800742Y-122928000D01*
%TO.C,C1*%
X144270001Y-137273419D02*
X144270000Y-137554581D01*
X145290000Y-137273419D02*
X145289999Y-137554581D01*
%TD*%
M02*
