%TF.GenerationSoftware,KiCad,Pcbnew,8.0.5*%
%TF.CreationDate,2024-10-28T13:04:21+01:00*%
%TF.ProjectId,Hexapod_kiCad,48657861-706f-4645-9f6b-694361642e6b,rev?*%
%TF.SameCoordinates,Original*%
%TF.FileFunction,Soldermask,Top*%
%TF.FilePolarity,Negative*%
%FSLAX46Y46*%
G04 Gerber Fmt 4.6, Leading zero omitted, Abs format (unit mm)*
G04 Created by KiCad (PCBNEW 8.0.5) date 2024-10-28 13:04:21*
%MOMM*%
%LPD*%
G01*
G04 APERTURE LIST*
G04 Aperture macros list*
%AMRoundRect*
0 Rectangle with rounded corners*
0 $1 Rounding radius*
0 $2 $3 $4 $5 $6 $7 $8 $9 X,Y pos of 4 corners*
0 Add a 4 corners polygon primitive as box body*
4,1,4,$2,$3,$4,$5,$6,$7,$8,$9,$2,$3,0*
0 Add four circle primitives for the rounded corners*
1,1,$1+$1,$2,$3*
1,1,$1+$1,$4,$5*
1,1,$1+$1,$6,$7*
1,1,$1+$1,$8,$9*
0 Add four rect primitives between the rounded corners*
20,1,$1+$1,$2,$3,$4,$5,0*
20,1,$1+$1,$4,$5,$6,$7,0*
20,1,$1+$1,$6,$7,$8,$9,0*
20,1,$1+$1,$8,$9,$2,$3,0*%
%AMHorizOval*
0 Thick line with rounded ends*
0 $1 width*
0 $2 $3 position (X,Y) of the first rounded end (center of the circle)*
0 $4 $5 position (X,Y) of the second rounded end (center of the circle)*
0 Add line between two ends*
20,1,$1,$2,$3,$4,$5,0*
0 Add two circle primitives to create the rounded ends*
1,1,$1,$2,$3*
1,1,$1,$4,$5*%
%AMRotRect*
0 Rectangle, with rotation*
0 The origin of the aperture is its center*
0 $1 length*
0 $2 width*
0 $3 Rotation angle, in degrees counterclockwise*
0 Add horizontal line*
21,1,$1,$2,0,0,$3*%
%AMFreePoly0*
4,1,52,-0.875081,0.999960,0.949960,0.999961,0.949963,0.999959,1.145043,0.980746,1.332628,0.923843,1.505508,0.831436,1.657038,0.707078,1.781396,0.555548,1.873803,0.382668,1.887793,0.336550,3.286089,0.336550,3.330018,0.333671,3.414881,0.310932,3.490968,0.267003,3.553092,0.204879,3.597021,0.128792,3.619760,0.043929,3.619760,-0.043929,3.597021,-0.128792,3.553092,-0.204879,
3.490968,-0.267003,3.414881,-0.310932,3.330018,-0.333671,3.286089,-0.336550,1.887793,-0.336550,1.873803,-0.382668,1.781396,-0.555548,1.657038,-0.707078,1.505508,-0.831436,1.332628,-0.923843,1.145043,-0.980746,0.949960,-0.999960,0.949949,-0.999959,-0.875081,-0.999959,-0.875102,-0.999962,-1.070185,-0.980748,-1.257771,-0.923844,-1.430651,-0.831438,-1.582182,-0.707080,-1.706540,-0.555549,
-1.798946,-0.382669,-1.855850,-0.195083,-1.875064,0.000000,-1.855850,0.195083,-1.798946,0.382669,-1.706540,0.555549,-1.582182,0.707080,-1.430651,0.831438,-1.257771,0.923844,-1.070185,0.980748,-0.875102,0.999962,-0.875081,0.999960,-0.875081,0.999960,$1*%
G04 Aperture macros list end*
%ADD10C,0.500000*%
%ADD11C,0.900000*%
%ADD12RoundRect,0.225000X-0.225000X-0.250000X0.225000X-0.250000X0.225000X0.250000X-0.225000X0.250000X0*%
%ADD13RoundRect,0.200000X0.275000X-0.200000X0.275000X0.200000X-0.275000X0.200000X-0.275000X-0.200000X0*%
%ADD14RoundRect,0.225000X0.225000X0.250000X-0.225000X0.250000X-0.225000X-0.250000X0.225000X-0.250000X0*%
%ADD15RoundRect,0.200000X0.200000X0.275000X-0.200000X0.275000X-0.200000X-0.275000X0.200000X-0.275000X0*%
%ADD16RoundRect,0.218750X-0.256250X0.218750X-0.256250X-0.218750X0.256250X-0.218750X0.256250X0.218750X0*%
%ADD17RoundRect,0.225000X0.250000X-0.225000X0.250000X0.225000X-0.250000X0.225000X-0.250000X-0.225000X0*%
%ADD18RoundRect,0.225000X-0.250000X0.225000X-0.250000X-0.225000X0.250000X-0.225000X0.250000X0.225000X0*%
%ADD19RoundRect,0.062500X-0.350000X-0.062500X0.350000X-0.062500X0.350000X0.062500X-0.350000X0.062500X0*%
%ADD20RoundRect,0.062500X-0.062500X-0.350000X0.062500X-0.350000X0.062500X0.350000X-0.062500X0.350000X0*%
%ADD21R,2.500000X2.500000*%
%ADD22RoundRect,0.250000X2.668172X1.078590X2.268172X1.771410X-2.668172X-1.078590X-2.268172X-1.771410X0*%
%ADD23RoundRect,0.300000X1.319134X0.415192X1.019134X0.934808X-1.319134X-0.415192X-1.019134X-0.934808X0*%
%ADD24RoundRect,0.218750X0.026517X-0.335876X0.335876X-0.026517X-0.026517X0.335876X-0.335876X0.026517X0*%
%ADD25RoundRect,0.250000X0.450000X0.425000X-0.450000X0.425000X-0.450000X-0.425000X0.450000X-0.425000X0*%
%ADD26RoundRect,0.200000X-0.275000X0.200000X-0.275000X-0.200000X0.275000X-0.200000X0.275000X0.200000X0*%
%ADD27RoundRect,0.218750X0.218750X0.256250X-0.218750X0.256250X-0.218750X-0.256250X0.218750X-0.256250X0*%
%ADD28RoundRect,0.200000X-0.200000X-0.275000X0.200000X-0.275000X0.200000X0.275000X-0.200000X0.275000X0*%
%ADD29R,1.700000X1.700000*%
%ADD30O,1.700000X1.700000*%
%ADD31RoundRect,0.349885X-0.349885X0.899795X-0.349885X-0.899795X0.349885X-0.899795X0.349885X0.899795X0*%
%ADD32RoundRect,0.250000X-2.668172X-1.078590X-2.268172X-1.771410X2.668172X1.078590X2.268172X1.771410X0*%
%ADD33RoundRect,0.300000X-1.319134X-0.415192X-1.019134X-0.934808X1.319134X0.415192X1.019134X0.934808X0*%
%ADD34C,0.700000*%
%ADD35C,4.400000*%
%ADD36RoundRect,0.245750X-0.061201X0.385497X-0.364451X-0.139747X0.061201X-0.385497X0.364451X0.139747X0*%
%ADD37RoundRect,0.250000X-0.593061X0.177211X-0.143061X-0.602211X0.593061X-0.177211X0.143061X0.602211X0*%
%ADD38R,0.812800X0.406400*%
%ADD39R,1.752600X2.489200*%
%ADD40RoundRect,0.200000X-0.450000X0.200000X-0.450000X-0.200000X0.450000X-0.200000X0.450000X0.200000X0*%
%ADD41RoundRect,0.525000X-0.975000X0.525000X-0.975000X-0.525000X0.975000X-0.525000X0.975000X0.525000X0*%
%ADD42RoundRect,0.147500X-0.172500X0.147500X-0.172500X-0.147500X0.172500X-0.147500X0.172500X0.147500X0*%
%ADD43R,1.000000X1.800000*%
%ADD44RoundRect,0.200000X0.450000X-0.200000X0.450000X0.200000X-0.450000X0.200000X-0.450000X-0.200000X0*%
%ADD45RoundRect,0.525000X0.975000X-0.525000X0.975000X0.525000X-0.975000X0.525000X-0.975000X-0.525000X0*%
%ADD46RoundRect,0.100000X0.637500X0.100000X-0.637500X0.100000X-0.637500X-0.100000X0.637500X-0.100000X0*%
%ADD47RoundRect,0.375000X-0.375000X0.625000X-0.375000X-0.625000X0.375000X-0.625000X0.375000X0.625000X0*%
%ADD48RoundRect,0.500000X-1.400000X0.500000X-1.400000X-0.500000X1.400000X-0.500000X1.400000X0.500000X0*%
%ADD49RoundRect,0.218750X-0.218750X-0.256250X0.218750X-0.256250X0.218750X0.256250X-0.218750X0.256250X0*%
%ADD50R,2.000000X2.400000*%
%ADD51RoundRect,0.200025X-0.799465X0.200025X-0.799465X-0.200025X0.799465X-0.200025X0.799465X0.200025X0*%
%ADD52RoundRect,0.200025X-0.799465X-0.200025X0.799465X-0.200025X0.799465X0.200025X-0.799465X0.200025X0*%
%ADD53RoundRect,0.274955X-0.274955X0.974725X-0.274955X-0.974725X0.274955X-0.974725X0.274955X0.974725X0*%
%ADD54RoundRect,0.584835X-1.214755X0.584835X-1.214755X-0.584835X1.214755X-0.584835X1.214755X0.584835X0*%
%ADD55RoundRect,0.125000X0.125000X-0.625000X0.125000X0.625000X-0.125000X0.625000X-0.125000X-0.625000X0*%
%ADD56RoundRect,0.125000X0.625000X-0.125000X0.625000X0.125000X-0.625000X0.125000X-0.625000X-0.125000X0*%
%ADD57RoundRect,0.200025X0.792369X0.226506X0.592344X0.572959X-0.792369X-0.226506X-0.592344X-0.572959X0*%
%ADD58RoundRect,0.200025X0.592344X0.572959X-0.792369X-0.226506X-0.592344X-0.572959X0.792369X0.226506X0*%
%ADD59RoundRect,0.250000X-0.750000X0.600000X-0.750000X-0.600000X0.750000X-0.600000X0.750000X0.600000X0*%
%ADD60O,2.000000X1.700000*%
%ADD61RoundRect,0.250000X-0.450000X-0.425000X0.450000X-0.425000X0.450000X0.425000X-0.450000X0.425000X0*%
%ADD62RotRect,1.700000X1.700000X240.000000*%
%ADD63HorizOval,1.700000X0.000000X0.000000X0.000000X0.000000X0*%
%ADD64RoundRect,0.147500X0.172500X-0.147500X0.172500X0.147500X-0.172500X0.147500X-0.172500X-0.147500X0*%
%ADD65RoundRect,0.168275X-0.168275X0.619125X-0.168275X-0.619125X0.168275X-0.619125X0.168275X0.619125X0*%
%ADD66FreePoly0,270.000000*%
%ADD67RotRect,1.700000X1.700000X120.000000*%
%ADD68HorizOval,1.700000X0.000000X0.000000X0.000000X0.000000X0*%
%ADD69RoundRect,0.250000X0.425000X-0.450000X0.425000X0.450000X-0.425000X0.450000X-0.425000X-0.450000X0*%
G04 APERTURE END LIST*
D10*
X193200003Y-114714000D02*
X190060000Y-114714000D01*
X190059999Y-117714001D02*
X190060000Y-114714000D01*
X190060000Y-123414000D02*
X190060000Y-120414001D01*
X193200001Y-123414000D02*
X190060000Y-123414000D01*
X193199999Y-120413999D02*
X190060000Y-120414001D01*
X186182000Y-112014000D02*
X193200000Y-112013999D01*
X193200001Y-126113998D02*
X188760000Y-126114002D01*
X193200001Y-117714000D02*
X190059999Y-117714001D01*
D11*
X186436000Y-109214002D02*
X192976001Y-109214000D01*
D10*
X193200000Y-112013999D02*
X193200003Y-114714000D01*
X193199999Y-120413999D02*
X193200001Y-117714000D01*
X193200001Y-126113998D02*
X193200001Y-123414000D01*
X193200000Y-112013999D02*
X193200000Y-109214000D01*
D12*
%TO.C,C23*%
X181342999Y-118595500D03*
X182893001Y-118595500D03*
%TD*%
D13*
%TO.C,R19*%
X162306000Y-95567000D03*
X162306000Y-93917000D03*
%TD*%
D14*
%TO.C,C17*%
X167528997Y-102800806D03*
X165978995Y-102800806D03*
%TD*%
D15*
%TO.C,R37*%
X146367000Y-139954000D03*
X144717000Y-139954000D03*
%TD*%
D16*
%TO.C,D6*%
X113284002Y-108406996D03*
X113284000Y-109982000D03*
%TD*%
D17*
%TO.C,C7*%
X149963640Y-145805356D03*
X149963640Y-144255354D03*
%TD*%
D18*
%TO.C,C30*%
X154686000Y-124954999D03*
X154686000Y-126505001D03*
%TD*%
D19*
%TO.C,U5*%
X174338500Y-112421000D03*
X174338500Y-112921000D03*
X174338500Y-113421000D03*
X174338500Y-113921000D03*
X174338500Y-114421000D03*
D20*
X175276000Y-115358500D03*
X175776000Y-115358500D03*
X176276000Y-115358500D03*
X176776000Y-115358500D03*
X177276000Y-115358500D03*
D19*
X178213500Y-114421000D03*
X178213500Y-113921000D03*
X178213500Y-113421000D03*
X178213500Y-112921000D03*
X178213500Y-112421000D03*
D20*
X177276000Y-111483500D03*
X176776000Y-111483500D03*
X176276000Y-111483500D03*
X175776000Y-111483500D03*
X175276000Y-111483500D03*
D21*
X176276000Y-113421000D03*
%TD*%
D22*
%TO.C,J3*%
X136314826Y-70220644D03*
X142589875Y-69501350D03*
D23*
X139209816Y-74825713D03*
X143871866Y-72109827D03*
X139701865Y-64887174D03*
X135020134Y-67590173D03*
%TD*%
D24*
%TO.C,D8*%
X167083153Y-111554848D03*
X168196847Y-110441152D03*
%TD*%
D25*
%TO.C,C6*%
X133430000Y-117856000D03*
X130730000Y-117856000D03*
%TD*%
D26*
%TO.C,R2*%
X155956000Y-118047000D03*
X155956000Y-119697000D03*
%TD*%
D17*
%TO.C,C12*%
X147320000Y-122695001D03*
X147320000Y-121144999D03*
%TD*%
D27*
%TO.C,D4*%
X159537502Y-123189999D03*
X157962498Y-123190001D03*
%TD*%
D12*
%TO.C,C19*%
X173468999Y-108966000D03*
X175019001Y-108966000D03*
%TD*%
D28*
%TO.C,R34*%
X154623000Y-123190000D03*
X156273000Y-123190000D03*
%TD*%
D22*
%TO.C,J14*%
X115232826Y-83174646D03*
X121507877Y-82455351D03*
D23*
X118127811Y-87779711D03*
X122789865Y-85063828D03*
X118619866Y-77841175D03*
X113938135Y-80544172D03*
%TD*%
D17*
%TO.C,C10*%
X147320000Y-117361001D03*
X147320000Y-115810999D03*
%TD*%
D29*
%TO.C,St-Link*%
X135128000Y-128016000D03*
D30*
X137668001Y-128016001D03*
X140208000Y-128016000D03*
X142748000Y-128016000D03*
X145287999Y-128016000D03*
%TD*%
D15*
%TO.C,R35*%
X171767000Y-109220000D03*
X170117000Y-109220000D03*
%TD*%
D16*
%TO.C,D3*%
X162305999Y-90652498D03*
X162306001Y-92227502D03*
%TD*%
D31*
%TO.C,SW1*%
X142458439Y-131808221D03*
X142458439Y-138955779D03*
X137957561Y-131808221D03*
X137957561Y-138955779D03*
X140208000Y-138955780D03*
%TD*%
D13*
%TO.C,R32*%
X120396000Y-96075000D03*
X120396000Y-94425000D03*
%TD*%
%TO.C,R36*%
X122174000Y-96075000D03*
X122174000Y-94425000D03*
%TD*%
D29*
%TO.C,J5*%
X122179000Y-109728000D03*
D30*
X119639000Y-109728000D03*
%TD*%
D18*
%TO.C,C4*%
X155448000Y-140956999D03*
X155448000Y-142507001D03*
%TD*%
D29*
%TO.C,J16*%
X151638000Y-123195000D03*
D30*
X151638001Y-120654997D03*
%TD*%
D32*
%TO.C,J1*%
X153753174Y-83703354D03*
X147478123Y-84422649D03*
D33*
X150858189Y-79098289D03*
X146196135Y-81814172D03*
X150366134Y-89036825D03*
X155047865Y-86333828D03*
%TD*%
D34*
%TO.C,H5*%
X138275000Y-79992666D03*
X138758274Y-78825940D03*
X138758274Y-81159392D03*
X139925000Y-78342666D03*
D35*
X139925000Y-79992666D03*
D34*
X139925000Y-81642666D03*
X141091726Y-78825940D03*
X141091726Y-81159392D03*
X141575000Y-79992666D03*
%TD*%
D36*
%TO.C,JP11*%
X165811751Y-71132009D03*
X165135751Y-72302875D03*
%TD*%
D18*
%TO.C,C26*%
X186166000Y-112000999D03*
X186166000Y-113551001D03*
%TD*%
D34*
%TO.C,H4*%
X163225000Y-123207334D03*
X163708274Y-122040608D03*
X163708274Y-124374060D03*
X164875000Y-121557334D03*
D35*
X164875000Y-123207334D03*
D34*
X164875000Y-124857334D03*
X166041726Y-122040608D03*
X166041726Y-124374060D03*
X166525000Y-123207334D03*
%TD*%
D26*
%TO.C,R33*%
X123952000Y-94425000D03*
X123952000Y-96075000D03*
%TD*%
D36*
%TO.C,JP13*%
X163654142Y-69883616D03*
X162978142Y-71054482D03*
%TD*%
D37*
%TO.C,C15*%
X147915000Y-69950866D03*
X149265000Y-72289134D03*
%TD*%
D38*
%TO.C,U3*%
X142570200Y-117667999D03*
X142570200Y-118618000D03*
X142570200Y-119568001D03*
X145465800Y-119568001D03*
X145465800Y-118618000D03*
X145465800Y-117667999D03*
D39*
X144018000Y-118618000D03*
%TD*%
D18*
%TO.C,C21*%
X176022000Y-124170498D03*
X176022000Y-125720500D03*
%TD*%
D40*
%TO.C,J7*%
X182715125Y-100534003D03*
X182715123Y-99284003D03*
X182715124Y-98034003D03*
X182715125Y-96784005D03*
D41*
X185465125Y-94234003D03*
X185465126Y-103084005D03*
%TD*%
D34*
%TO.C,H2*%
X175700000Y-101600000D03*
X176183274Y-100433274D03*
X176183274Y-102766726D03*
X177350000Y-99950000D03*
D35*
X177350000Y-101600000D03*
D34*
X177350000Y-103250000D03*
X178516726Y-100433274D03*
X178516726Y-102766726D03*
X179000000Y-101600000D03*
%TD*%
D17*
%TO.C,C9*%
X145287999Y-115837002D03*
X145287999Y-114287000D03*
%TD*%
D42*
%TO.C,L1*%
X180075185Y-113163215D03*
X180075185Y-114133211D03*
%TD*%
D36*
%TO.C,JP2*%
X174550991Y-76225816D03*
X173874991Y-77396682D03*
%TD*%
D34*
%TO.C,H3*%
X125800000Y-101600000D03*
X126283274Y-100433274D03*
X126283274Y-102766726D03*
X127450000Y-99950000D03*
D35*
X127450000Y-101600000D03*
D34*
X127450000Y-103250000D03*
X128616726Y-100433274D03*
X128616726Y-102766726D03*
X129100000Y-101600000D03*
%TD*%
D43*
%TO.C,Y1*%
X152507911Y-141958814D03*
X150007911Y-141958814D03*
%TD*%
D44*
%TO.C,J9*%
X192636999Y-96677001D03*
X192637000Y-97926999D03*
X192637001Y-99176999D03*
X192636998Y-100427000D03*
D45*
X189886999Y-102977001D03*
X189886998Y-94126999D03*
%TD*%
D25*
%TO.C,C5*%
X130636000Y-106172000D03*
X127936000Y-106172000D03*
%TD*%
D17*
%TO.C,C8*%
X152461951Y-145818038D03*
X152461951Y-144268036D03*
%TD*%
D13*
%TO.C,R38*%
X148733835Y-126052992D03*
X148733835Y-124402992D03*
%TD*%
D46*
%TO.C,U4*%
X172026500Y-99221000D03*
X172026500Y-98571000D03*
X172026499Y-97921000D03*
X172026500Y-97271000D03*
X172026500Y-96621000D03*
X172026500Y-95971000D03*
X172026499Y-95320999D03*
X172026499Y-94671001D03*
X172026500Y-94021000D03*
X172026500Y-93371001D03*
X172026499Y-92720999D03*
X172026502Y-92071000D03*
X172026500Y-91421000D03*
X172026500Y-90771000D03*
X166301500Y-90771000D03*
X166301500Y-91421000D03*
X166301501Y-92071000D03*
X166301500Y-92721000D03*
X166301500Y-93371000D03*
X166301500Y-94021000D03*
X166301501Y-94671001D03*
X166301501Y-95320999D03*
X166301500Y-95971000D03*
X166301500Y-96620999D03*
X166301501Y-97271001D03*
X166301498Y-97921000D03*
X166301500Y-98571000D03*
X166301500Y-99221000D03*
%TD*%
D47*
%TO.C,U7*%
X127013999Y-113182005D03*
X124714000Y-113182000D03*
D48*
X124714000Y-119482000D03*
D47*
X122414004Y-113181998D03*
%TD*%
D26*
%TO.C,R31*%
X115570000Y-108332000D03*
X115570000Y-109982000D03*
%TD*%
D49*
%TO.C,D1*%
X144754500Y-125222000D03*
X146329500Y-125222000D03*
%TD*%
D18*
%TO.C,C29*%
X156464000Y-124954999D03*
X156464000Y-126505001D03*
%TD*%
D32*
%TO.C,J15*%
X133433174Y-74559356D03*
X127158125Y-75278649D03*
D33*
X130538189Y-69954289D03*
X125876135Y-72670172D03*
X130046134Y-79892825D03*
X134727865Y-77189828D03*
%TD*%
D15*
%TO.C,R21*%
X168211000Y-106426000D03*
X166561000Y-106426000D03*
%TD*%
D40*
%TO.C,J6*%
X182671130Y-85080001D03*
X182671127Y-83829999D03*
X182671128Y-82579999D03*
X182671129Y-81330001D03*
D41*
X185421129Y-78779999D03*
X185421130Y-87630001D03*
%TD*%
D50*
%TO.C,Y2*%
X175187999Y-119380000D03*
X178888001Y-119380000D03*
%TD*%
D51*
%TO.C,S1*%
X117045740Y-91981019D03*
D52*
X117045739Y-93980000D03*
X117045740Y-95978979D03*
X111046260Y-91981021D03*
X111046261Y-93980000D03*
X111046260Y-95978981D03*
%TD*%
D53*
%TO.C,Q1*%
X122903999Y-101128003D03*
X120904000Y-101128000D03*
X118903999Y-101128001D03*
D54*
X120904000Y-106347260D03*
%TD*%
D32*
%TO.C,J13*%
X155277174Y-62621356D03*
X149002125Y-63340649D03*
D33*
X152382184Y-58016287D03*
X147720134Y-60732173D03*
X151890135Y-67954826D03*
X156571866Y-65251827D03*
%TD*%
D12*
%TO.C,C24*%
X181342999Y-116828524D03*
X182893001Y-116828524D03*
%TD*%
D55*
%TO.C,U1*%
X150108000Y-137017000D03*
X150908000Y-137017000D03*
X151708000Y-137016999D03*
X152508000Y-137017000D03*
X153308000Y-137017000D03*
X154108000Y-137017000D03*
X154908001Y-137017000D03*
X155708000Y-137017000D03*
D56*
X157083000Y-135642000D03*
X157083000Y-134842000D03*
X157082999Y-134042000D03*
X157083000Y-133242000D03*
X157083000Y-132442000D03*
X157083000Y-131642000D03*
X157083000Y-130841999D03*
X157083000Y-130042000D03*
D55*
X155708000Y-128667000D03*
X154908000Y-128667000D03*
X154108000Y-128667001D03*
X153308000Y-128667000D03*
X152508000Y-128667000D03*
X151708000Y-128667000D03*
X150907999Y-128667000D03*
X150108000Y-128667000D03*
D56*
X148733000Y-130042000D03*
X148733000Y-130842000D03*
X148733001Y-131642000D03*
X148733000Y-132442000D03*
X148733000Y-133242000D03*
X148733000Y-134042000D03*
X148733000Y-134842001D03*
X148733000Y-135642000D03*
%TD*%
D47*
%TO.C,U2*%
X135141999Y-108863999D03*
X132842000Y-108864000D03*
D48*
X132842000Y-115164000D03*
D47*
X130542000Y-108864001D03*
%TD*%
D14*
%TO.C,C20*%
X171717001Y-110998000D03*
X170166999Y-110998000D03*
%TD*%
D42*
%TO.C,L3*%
X181356000Y-112037002D03*
X181356000Y-113006998D03*
%TD*%
D12*
%TO.C,C25*%
X182850999Y-112014000D03*
X184401001Y-112014000D03*
%TD*%
D57*
%TO.C,S2*%
X164263638Y-136327036D03*
D58*
X163264151Y-134595870D03*
X162264658Y-132864701D03*
X169459342Y-133327299D03*
X168459849Y-131596130D03*
X167460362Y-129864964D03*
%TD*%
D59*
%TO.C,J2*%
X113555001Y-101620001D03*
D60*
X113555001Y-104120002D03*
%TD*%
D18*
%TO.C,C22*%
X178054000Y-124170499D03*
X178054000Y-125720501D03*
%TD*%
D12*
%TO.C,C18*%
X177532999Y-108966000D03*
X179083001Y-108966000D03*
%TD*%
D27*
%TO.C,D2*%
X159283502Y-119634001D03*
X157708498Y-119633999D03*
%TD*%
D13*
%TO.C,R29*%
X180848000Y-110299000D03*
X180848000Y-108649000D03*
%TD*%
D15*
%TO.C,R1*%
X146344533Y-134849101D03*
X144694533Y-134849101D03*
%TD*%
D34*
%TO.C,H1*%
X163225000Y-79992666D03*
X163708274Y-78825940D03*
X163708274Y-81159392D03*
X164875000Y-78342666D03*
D35*
X164875000Y-79992666D03*
D34*
X164875000Y-81642666D03*
X166041726Y-78825940D03*
X166041726Y-81159392D03*
X166525000Y-79992666D03*
%TD*%
D36*
%TO.C,JP4*%
X170194583Y-73611332D03*
X169518583Y-74782198D03*
%TD*%
%TO.C,JP3*%
X172351287Y-74955814D03*
X171675287Y-76126680D03*
%TD*%
D37*
%TO.C,C13*%
X141819000Y-84428866D03*
X143169000Y-86767134D03*
%TD*%
D14*
%TO.C,C16*%
X167554277Y-101119677D03*
X166004275Y-101119677D03*
%TD*%
D28*
%TO.C,FB2*%
X153861000Y-139192000D03*
X155511000Y-139192000D03*
%TD*%
D22*
%TO.C,J12*%
X134790826Y-91810644D03*
X141065875Y-91091350D03*
D23*
X137685811Y-96415711D03*
X142347865Y-93699828D03*
X138177866Y-86477175D03*
X133496135Y-89180172D03*
%TD*%
D61*
%TO.C,C33*%
X117014000Y-113284000D03*
X119714000Y-113284000D03*
%TD*%
D62*
%TO.C,J10*%
X130718817Y-133857999D03*
D63*
X128519110Y-132587997D03*
X126319408Y-131317999D03*
X124119703Y-130047999D03*
X121920000Y-128777999D03*
X119720295Y-127507999D03*
X117520589Y-126237998D03*
X115320886Y-124967999D03*
%TD*%
D36*
%TO.C,JP9*%
X167992289Y-72320817D03*
X167316289Y-73491683D03*
%TD*%
D64*
%TO.C,L2*%
X181340001Y-115270498D03*
X181339999Y-114300500D03*
%TD*%
D44*
%TO.C,J8*%
X192741999Y-81329997D03*
X192742001Y-82579998D03*
X192742001Y-83829999D03*
X192742000Y-85079998D03*
D45*
X189992000Y-87630000D03*
X189991999Y-78779998D03*
%TD*%
D37*
%TO.C,C14*%
X126579000Y-82142866D03*
X127929000Y-84481134D03*
%TD*%
D65*
%TO.C,Q3*%
X121736773Y-92508034D03*
D66*
X123242874Y-89703770D03*
D65*
X124739052Y-92508035D03*
%TD*%
D15*
%TO.C,R20*%
X168973000Y-104648000D03*
X167323000Y-104648000D03*
%TD*%
D67*
%TO.C,J4*%
X158330739Y-144399001D03*
D68*
X160530445Y-143129001D03*
X162730148Y-141859001D03*
X164929853Y-140589001D03*
X167129556Y-139319002D03*
X169329261Y-138049002D03*
%TD*%
D14*
%TO.C,C11*%
X148857001Y-119634000D03*
X147306999Y-119634000D03*
%TD*%
D26*
%TO.C,R22*%
X164084000Y-93917000D03*
X164084000Y-95567000D03*
%TD*%
D69*
%TO.C,C27*%
X119643552Y-119801363D03*
X119643552Y-117101363D03*
%TD*%
D34*
%TO.C,H6*%
X138275000Y-123207334D03*
X138758274Y-122040608D03*
X138758274Y-124374060D03*
X139925000Y-121557334D03*
D35*
X139925000Y-123207334D03*
D34*
X139925000Y-124857334D03*
X141091726Y-122040608D03*
X141091726Y-124374060D03*
X141575000Y-123207334D03*
%TD*%
D15*
%TO.C,R30*%
X177863000Y-122405500D03*
X176213000Y-122405500D03*
%TD*%
D18*
%TO.C,C1*%
X144780000Y-136638999D03*
X144780000Y-138189001D03*
%TD*%
M02*
