%TF.GenerationSoftware,KiCad,Pcbnew,8.0.5*%
%TF.CreationDate,2024-10-28T13:04:21+01:00*%
%TF.ProjectId,Hexapod_kiCad,48657861-706f-4645-9f6b-694361642e6b,rev?*%
%TF.SameCoordinates,Original*%
%TF.FileFunction,Legend,Bot*%
%TF.FilePolarity,Positive*%
%FSLAX46Y46*%
G04 Gerber Fmt 4.6, Leading zero omitted, Abs format (unit mm)*
G04 Created by KiCad (PCBNEW 8.0.5) date 2024-10-28 13:04:21*
%MOMM*%
%LPD*%
G01*
G04 APERTURE LIST*
%ADD10C,0.150000*%
%ADD11C,0.200000*%
%ADD12C,0.120000*%
G04 APERTURE END LIST*
D10*
X128511495Y-128502612D02*
X128154352Y-129121202D01*
X128154352Y-129121202D02*
X128124163Y-129268729D01*
X128124163Y-129268729D02*
X128159022Y-129398827D01*
X128159022Y-129398827D02*
X128258931Y-129511495D01*
X128258931Y-129511495D02*
X128341409Y-129559114D01*
X127186708Y-128892447D02*
X127599102Y-129130542D01*
X127599102Y-129130542D02*
X128099102Y-128264517D01*
X126450781Y-128357587D02*
X126468210Y-128422636D01*
X126468210Y-128422636D02*
X126568119Y-128535304D01*
X126568119Y-128535304D02*
X126650597Y-128582923D01*
X126650597Y-128582923D02*
X126798125Y-128613112D01*
X126798125Y-128613112D02*
X126928222Y-128578253D01*
X126928222Y-128578253D02*
X127017081Y-128519584D01*
X127017081Y-128519584D02*
X127153558Y-128378436D01*
X127153558Y-128378436D02*
X127224987Y-128254718D01*
X127224987Y-128254718D02*
X127278986Y-128065951D01*
X127278986Y-128065951D02*
X127285365Y-127959663D01*
X127285365Y-127959663D02*
X127250506Y-127829566D01*
X127250506Y-127829566D02*
X127150597Y-127716898D01*
X127150597Y-127716898D02*
X127068119Y-127669279D01*
X127068119Y-127669279D02*
X126920591Y-127639089D01*
X126920591Y-127639089D02*
X126855542Y-127656519D01*
X126284572Y-127216898D02*
X125927429Y-127835487D01*
X125927429Y-127835487D02*
X125897240Y-127983015D01*
X125897240Y-127983015D02*
X125932099Y-128113112D01*
X125932099Y-128113112D02*
X126032008Y-128225780D01*
X126032008Y-128225780D02*
X126114486Y-128273399D01*
X124959786Y-127606732D02*
X125372179Y-127844828D01*
X125372179Y-127844828D02*
X125872179Y-126978802D01*
X124223858Y-127071873D02*
X124241287Y-127136922D01*
X124241287Y-127136922D02*
X124341196Y-127249590D01*
X124341196Y-127249590D02*
X124423674Y-127297209D01*
X124423674Y-127297209D02*
X124571202Y-127327398D01*
X124571202Y-127327398D02*
X124701300Y-127292538D01*
X124701300Y-127292538D02*
X124790158Y-127233869D01*
X124790158Y-127233869D02*
X124926635Y-127092722D01*
X124926635Y-127092722D02*
X124998064Y-126969004D01*
X124998064Y-126969004D02*
X125052063Y-126780237D01*
X125052063Y-126780237D02*
X125058442Y-126673949D01*
X125058442Y-126673949D02*
X125023583Y-126543851D01*
X125023583Y-126543851D02*
X124923674Y-126431183D01*
X124923674Y-126431183D02*
X124841196Y-126383564D01*
X124841196Y-126383564D02*
X124693668Y-126353375D01*
X124693668Y-126353375D02*
X124628620Y-126370805D01*
X124057649Y-125931183D02*
X123700506Y-126549773D01*
X123700506Y-126549773D02*
X123670317Y-126697300D01*
X123670317Y-126697300D02*
X123705177Y-126827398D01*
X123705177Y-126827398D02*
X123805085Y-126940066D01*
X123805085Y-126940066D02*
X123887564Y-126987685D01*
X122732863Y-126321018D02*
X123145256Y-126559113D01*
X123145256Y-126559113D02*
X123645256Y-125693088D01*
X121996935Y-125786158D02*
X122014365Y-125851207D01*
X122014365Y-125851207D02*
X122114273Y-125963875D01*
X122114273Y-125963875D02*
X122196752Y-126011494D01*
X122196752Y-126011494D02*
X122344279Y-126041683D01*
X122344279Y-126041683D02*
X122474377Y-126006824D01*
X122474377Y-126006824D02*
X122563235Y-125948155D01*
X122563235Y-125948155D02*
X122699713Y-125807007D01*
X122699713Y-125807007D02*
X122771141Y-125683289D01*
X122771141Y-125683289D02*
X122825140Y-125494522D01*
X122825140Y-125494522D02*
X122831520Y-125388234D01*
X122831520Y-125388234D02*
X122796660Y-125258137D01*
X122796660Y-125258137D02*
X122696752Y-125145469D01*
X122696752Y-125145469D02*
X122614273Y-125097850D01*
X122614273Y-125097850D02*
X122466746Y-125067660D01*
X122466746Y-125067660D02*
X122401697Y-125085090D01*
X121830726Y-124645469D02*
X121473583Y-125264058D01*
X121473583Y-125264058D02*
X121443394Y-125411586D01*
X121443394Y-125411586D02*
X121478254Y-125541683D01*
X121478254Y-125541683D02*
X121578162Y-125654351D01*
X121578162Y-125654351D02*
X121660641Y-125701970D01*
X120505940Y-125035303D02*
X120918333Y-125273399D01*
X120918333Y-125273399D02*
X121418333Y-124407373D01*
X119770012Y-124500444D02*
X119787442Y-124565493D01*
X119787442Y-124565493D02*
X119887350Y-124678161D01*
X119887350Y-124678161D02*
X119969829Y-124725780D01*
X119969829Y-124725780D02*
X120117356Y-124755969D01*
X120117356Y-124755969D02*
X120247454Y-124721109D01*
X120247454Y-124721109D02*
X120336312Y-124662440D01*
X120336312Y-124662440D02*
X120472790Y-124521293D01*
X120472790Y-124521293D02*
X120544218Y-124397575D01*
X120544218Y-124397575D02*
X120598217Y-124208808D01*
X120598217Y-124208808D02*
X120604597Y-124102520D01*
X120604597Y-124102520D02*
X120569737Y-123972422D01*
X120569737Y-123972422D02*
X120469829Y-123859754D01*
X120469829Y-123859754D02*
X120387350Y-123812135D01*
X120387350Y-123812135D02*
X120239823Y-123781946D01*
X120239823Y-123781946D02*
X120174774Y-123799376D01*
D11*
X142201019Y-61999304D02*
X141601019Y-60960073D01*
X141886733Y-61454945D02*
X141292888Y-61797802D01*
X141607173Y-62342161D02*
X141007173Y-61302930D01*
X140687833Y-62806960D02*
X140815378Y-62799304D01*
X140815378Y-62799304D02*
X141013327Y-62685018D01*
X141013327Y-62685018D02*
X141083730Y-62578388D01*
X141083730Y-62578388D02*
X141076074Y-62450842D01*
X141076074Y-62450842D02*
X140847503Y-62054945D01*
X140847503Y-62054945D02*
X140740873Y-61984542D01*
X140740873Y-61984542D02*
X140613327Y-61992198D01*
X140613327Y-61992198D02*
X140415378Y-62106484D01*
X140415378Y-62106484D02*
X140344976Y-62213114D01*
X140344976Y-62213114D02*
X140352631Y-62340659D01*
X140352631Y-62340659D02*
X140409774Y-62439634D01*
X140409774Y-62439634D02*
X140961789Y-62252894D01*
X140320507Y-63085018D02*
X139376148Y-62706483D01*
X139920507Y-62392198D02*
X139776148Y-63399304D01*
X138934866Y-63885018D02*
X138620580Y-63340659D01*
X138620580Y-63340659D02*
X138612925Y-63213114D01*
X138612925Y-63213114D02*
X138683328Y-63106484D01*
X138683328Y-63106484D02*
X138881276Y-62992198D01*
X138881276Y-62992198D02*
X139008822Y-62984542D01*
X138906295Y-63835531D02*
X139033840Y-63827875D01*
X139033840Y-63827875D02*
X139281276Y-63685018D01*
X139281276Y-63685018D02*
X139351679Y-63578388D01*
X139351679Y-63578388D02*
X139344024Y-63450842D01*
X139344024Y-63450842D02*
X139286881Y-63351868D01*
X139286881Y-63351868D02*
X139180251Y-63281465D01*
X139180251Y-63281465D02*
X139052705Y-63289121D01*
X139052705Y-63289121D02*
X138805269Y-63431978D01*
X138805269Y-63431978D02*
X138677723Y-63439634D01*
X138039995Y-63477912D02*
X138639995Y-64517142D01*
X138068566Y-63527399D02*
X137941020Y-63535055D01*
X137941020Y-63535055D02*
X137743072Y-63649341D01*
X137743072Y-63649341D02*
X137672669Y-63755971D01*
X137672669Y-63755971D02*
X137651753Y-63834029D01*
X137651753Y-63834029D02*
X137659409Y-63961575D01*
X137659409Y-63961575D02*
X137830837Y-64258498D01*
X137830837Y-64258498D02*
X137937467Y-64328901D01*
X137937467Y-64328901D02*
X138015526Y-64349817D01*
X138015526Y-64349817D02*
X138143072Y-64342161D01*
X138143072Y-64342161D02*
X138341020Y-64227875D01*
X138341020Y-64227875D02*
X138411423Y-64121245D01*
X137351277Y-64799304D02*
X137421680Y-64692674D01*
X137421680Y-64692674D02*
X137442596Y-64614615D01*
X137442596Y-64614615D02*
X137434940Y-64487069D01*
X137434940Y-64487069D02*
X137263512Y-64190146D01*
X137263512Y-64190146D02*
X137156882Y-64119743D01*
X137156882Y-64119743D02*
X137078823Y-64098828D01*
X137078823Y-64098828D02*
X136951277Y-64106483D01*
X136951277Y-64106483D02*
X136802816Y-64192198D01*
X136802816Y-64192198D02*
X136732413Y-64298828D01*
X136732413Y-64298828D02*
X136711497Y-64376886D01*
X136711497Y-64376886D02*
X136719153Y-64504432D01*
X136719153Y-64504432D02*
X136890581Y-64801355D01*
X136890581Y-64801355D02*
X136997211Y-64871758D01*
X136997211Y-64871758D02*
X137075270Y-64892674D01*
X137075270Y-64892674D02*
X137202816Y-64885018D01*
X137202816Y-64885018D02*
X137351277Y-64799304D01*
X136114098Y-65513589D02*
X135514098Y-64474359D01*
X136085527Y-65464102D02*
X136213073Y-65456446D01*
X136213073Y-65456446D02*
X136411021Y-65342161D01*
X136411021Y-65342161D02*
X136481424Y-65235531D01*
X136481424Y-65235531D02*
X136502340Y-65157472D01*
X136502340Y-65157472D02*
X136494684Y-65029926D01*
X136494684Y-65029926D02*
X136323256Y-64733003D01*
X136323256Y-64733003D02*
X136216626Y-64662600D01*
X136216626Y-64662600D02*
X136138567Y-64641685D01*
X136138567Y-64641685D02*
X136011021Y-64649340D01*
X136011021Y-64649340D02*
X135813073Y-64763626D01*
X135813073Y-64763626D02*
X135742670Y-64870256D01*
X134326406Y-65160073D02*
X133683073Y-65531502D01*
X133683073Y-65531502D02*
X134258055Y-65727399D01*
X134258055Y-65727399D02*
X134109593Y-65813113D01*
X134109593Y-65813113D02*
X134039190Y-65919743D01*
X134039190Y-65919743D02*
X134018275Y-65997802D01*
X134018275Y-65997802D02*
X134025930Y-66125348D01*
X134025930Y-66125348D02*
X134168788Y-66372783D01*
X134168788Y-66372783D02*
X134275418Y-66443186D01*
X134275418Y-66443186D02*
X134353476Y-66464102D01*
X134353476Y-66464102D02*
X134481022Y-66456446D01*
X134481022Y-66456446D02*
X134777945Y-66285018D01*
X134777945Y-66285018D02*
X134848348Y-66178388D01*
X134848348Y-66178388D02*
X134869264Y-66100329D01*
X133780546Y-66728900D02*
X133759630Y-66806959D01*
X133759630Y-66806959D02*
X133837689Y-66827875D01*
X133837689Y-66827875D02*
X133858605Y-66749816D01*
X133858605Y-66749816D02*
X133780546Y-66728900D01*
X133780546Y-66728900D02*
X133837689Y-66827875D01*
X132849447Y-66144762D02*
X132771388Y-66123846D01*
X132771388Y-66123846D02*
X132643843Y-66131502D01*
X132643843Y-66131502D02*
X132396407Y-66274359D01*
X132396407Y-66274359D02*
X132326004Y-66380989D01*
X132326004Y-66380989D02*
X132305088Y-66459047D01*
X132305088Y-66459047D02*
X132312744Y-66586593D01*
X132312744Y-66586593D02*
X132369887Y-66685568D01*
X132369887Y-66685568D02*
X132505088Y-66805458D01*
X132505088Y-66805458D02*
X133441791Y-67056446D01*
X133441791Y-67056446D02*
X132798458Y-67427875D01*
X131332707Y-67746263D02*
X130540913Y-68203406D01*
X129482818Y-69342161D02*
X128882818Y-68302930D01*
X128882818Y-68302930D02*
X128964979Y-69245238D01*
X128964979Y-69245238D02*
X128189997Y-68702930D01*
X128189997Y-68702930D02*
X128789997Y-69742161D01*
X127849741Y-70285018D02*
X127535455Y-69740659D01*
X127535455Y-69740659D02*
X127527800Y-69613114D01*
X127527800Y-69613114D02*
X127598202Y-69506484D01*
X127598202Y-69506484D02*
X127796151Y-69392198D01*
X127796151Y-69392198D02*
X127923697Y-69384542D01*
X127821170Y-70235531D02*
X127948715Y-70227875D01*
X127948715Y-70227875D02*
X128196151Y-70085018D01*
X128196151Y-70085018D02*
X128266554Y-69978388D01*
X128266554Y-69978388D02*
X128258898Y-69850842D01*
X128258898Y-69850842D02*
X128201755Y-69751868D01*
X128201755Y-69751868D02*
X128095125Y-69681465D01*
X128095125Y-69681465D02*
X127967580Y-69689121D01*
X127967580Y-69689121D02*
X127720144Y-69831978D01*
X127720144Y-69831978D02*
X127592598Y-69839634D01*
X127354870Y-70570732D02*
X126954870Y-69877912D01*
X126754870Y-69531502D02*
X126832928Y-69552418D01*
X126832928Y-69552418D02*
X126812012Y-69630476D01*
X126812012Y-69630476D02*
X126733954Y-69609560D01*
X126733954Y-69609560D02*
X126754870Y-69531502D01*
X126754870Y-69531502D02*
X126812012Y-69630476D01*
X126459998Y-70163626D02*
X126859998Y-70856447D01*
X126517140Y-70262601D02*
X126439082Y-70241685D01*
X126439082Y-70241685D02*
X126311536Y-70249341D01*
X126311536Y-70249341D02*
X126163075Y-70335055D01*
X126163075Y-70335055D02*
X126092672Y-70441685D01*
X126092672Y-70441685D02*
X126100327Y-70569231D01*
X126100327Y-70569231D02*
X126414613Y-71113590D01*
X125919742Y-71399304D02*
X125319742Y-70360073D01*
X125548313Y-70755971D02*
X125420767Y-70763626D01*
X125420767Y-70763626D02*
X125222819Y-70877912D01*
X125222819Y-70877912D02*
X125152416Y-70984542D01*
X125152416Y-70984542D02*
X125131500Y-71062601D01*
X125131500Y-71062601D02*
X125139156Y-71190146D01*
X125139156Y-71190146D02*
X125310584Y-71487069D01*
X125310584Y-71487069D02*
X125417214Y-71557472D01*
X125417214Y-71557472D02*
X125495273Y-71578388D01*
X125495273Y-71578388D02*
X125622819Y-71570732D01*
X125622819Y-71570732D02*
X125820767Y-71456447D01*
X125820767Y-71456447D02*
X125891170Y-71349817D01*
X124831024Y-72027875D02*
X124901427Y-71921245D01*
X124901427Y-71921245D02*
X124922343Y-71843186D01*
X124922343Y-71843186D02*
X124914687Y-71715641D01*
X124914687Y-71715641D02*
X124743259Y-71418718D01*
X124743259Y-71418718D02*
X124636629Y-71348315D01*
X124636629Y-71348315D02*
X124558570Y-71327399D01*
X124558570Y-71327399D02*
X124431024Y-71335055D01*
X124431024Y-71335055D02*
X124282563Y-71420769D01*
X124282563Y-71420769D02*
X124212160Y-71527399D01*
X124212160Y-71527399D02*
X124191244Y-71605458D01*
X124191244Y-71605458D02*
X124198900Y-71733003D01*
X124198900Y-71733003D02*
X124370328Y-72029926D01*
X124370328Y-72029926D02*
X124476958Y-72100329D01*
X124476958Y-72100329D02*
X124555017Y-72121245D01*
X124555017Y-72121245D02*
X124682563Y-72113589D01*
X124682563Y-72113589D02*
X124831024Y-72027875D01*
X123593845Y-72742161D02*
X123279560Y-72197802D01*
X123279560Y-72197802D02*
X123271904Y-72070256D01*
X123271904Y-72070256D02*
X123342307Y-71963626D01*
X123342307Y-71963626D02*
X123540255Y-71849340D01*
X123540255Y-71849340D02*
X123667801Y-71841685D01*
X123565274Y-72692673D02*
X123692820Y-72685018D01*
X123692820Y-72685018D02*
X123940255Y-72542161D01*
X123940255Y-72542161D02*
X124010658Y-72435531D01*
X124010658Y-72435531D02*
X124003003Y-72307985D01*
X124003003Y-72307985D02*
X123945860Y-72209011D01*
X123945860Y-72209011D02*
X123839230Y-72138608D01*
X123839230Y-72138608D02*
X123711684Y-72146263D01*
X123711684Y-72146263D02*
X123464248Y-72289120D01*
X123464248Y-72289120D02*
X123336702Y-72296776D01*
X123098974Y-73027875D02*
X122698974Y-72335054D01*
X122813260Y-72533003D02*
X122706630Y-72462600D01*
X122706630Y-72462600D02*
X122628571Y-72441684D01*
X122628571Y-72441684D02*
X122501025Y-72449340D01*
X122501025Y-72449340D02*
X122402051Y-72506483D01*
X122010256Y-73656446D02*
X121410256Y-72617216D01*
X121981685Y-73606959D02*
X122109231Y-73599303D01*
X122109231Y-73599303D02*
X122307179Y-73485018D01*
X122307179Y-73485018D02*
X122377582Y-73378388D01*
X122377582Y-73378388D02*
X122398498Y-73300329D01*
X122398498Y-73300329D02*
X122390842Y-73172783D01*
X122390842Y-73172783D02*
X122219414Y-72875860D01*
X122219414Y-72875860D02*
X122112784Y-72805457D01*
X122112784Y-72805457D02*
X122034725Y-72784542D01*
X122034725Y-72784542D02*
X121907179Y-72792197D01*
X121907179Y-72792197D02*
X121709231Y-72906483D01*
X121709231Y-72906483D02*
X121638828Y-73013113D01*
X142506289Y-63328048D02*
X142386399Y-63463249D01*
X142386399Y-63463249D02*
X142365484Y-63541308D01*
X142365484Y-63541308D02*
X142373139Y-63668854D01*
X142373139Y-63668854D02*
X142458854Y-63817315D01*
X142458854Y-63817315D02*
X142565484Y-63887718D01*
X142565484Y-63887718D02*
X142643542Y-63908634D01*
X142643542Y-63908634D02*
X142771088Y-63900978D01*
X142771088Y-63900978D02*
X143166985Y-63672407D01*
X143166985Y-63672407D02*
X142566985Y-62633176D01*
X142566985Y-62633176D02*
X142220575Y-62833176D01*
X142220575Y-62833176D02*
X142150172Y-62939806D01*
X142150172Y-62939806D02*
X142129256Y-63017865D01*
X142129256Y-63017865D02*
X142136912Y-63145411D01*
X142136912Y-63145411D02*
X142194055Y-63244385D01*
X142194055Y-63244385D02*
X142300685Y-63314788D01*
X142300685Y-63314788D02*
X142378744Y-63335704D01*
X142378744Y-63335704D02*
X142506289Y-63328048D01*
X142506289Y-63328048D02*
X142852699Y-63128048D01*
X141979293Y-64358121D02*
X142049696Y-64251491D01*
X142049696Y-64251491D02*
X142070612Y-64173432D01*
X142070612Y-64173432D02*
X142062956Y-64045887D01*
X142062956Y-64045887D02*
X141891528Y-63748964D01*
X141891528Y-63748964D02*
X141784898Y-63678561D01*
X141784898Y-63678561D02*
X141706839Y-63657645D01*
X141706839Y-63657645D02*
X141579293Y-63665301D01*
X141579293Y-63665301D02*
X141430832Y-63751015D01*
X141430832Y-63751015D02*
X141360429Y-63857645D01*
X141360429Y-63857645D02*
X141339513Y-63935704D01*
X141339513Y-63935704D02*
X141347169Y-64063249D01*
X141347169Y-64063249D02*
X141518597Y-64360172D01*
X141518597Y-64360172D02*
X141625227Y-64430575D01*
X141625227Y-64430575D02*
X141703286Y-64451491D01*
X141703286Y-64451491D02*
X141830832Y-64443835D01*
X141830832Y-64443835D02*
X141979293Y-64358121D01*
X140742114Y-65072407D02*
X140427829Y-64528048D01*
X140427829Y-64528048D02*
X140420173Y-64400502D01*
X140420173Y-64400502D02*
X140490576Y-64293872D01*
X140490576Y-64293872D02*
X140688524Y-64179586D01*
X140688524Y-64179586D02*
X140816070Y-64171931D01*
X140713543Y-65022919D02*
X140841089Y-65015264D01*
X140841089Y-65015264D02*
X141088524Y-64872407D01*
X141088524Y-64872407D02*
X141158927Y-64765777D01*
X141158927Y-64765777D02*
X141151272Y-64638231D01*
X141151272Y-64638231D02*
X141094129Y-64539257D01*
X141094129Y-64539257D02*
X140987499Y-64468854D01*
X140987499Y-64468854D02*
X140859953Y-64476509D01*
X140859953Y-64476509D02*
X140612517Y-64619366D01*
X140612517Y-64619366D02*
X140484971Y-64627022D01*
X140247243Y-65358121D02*
X139847243Y-64665300D01*
X139961529Y-64863249D02*
X139854899Y-64792846D01*
X139854899Y-64792846D02*
X139776840Y-64771930D01*
X139776840Y-64771930D02*
X139649294Y-64779586D01*
X139649294Y-64779586D02*
X139550320Y-64836729D01*
X139158525Y-65986692D02*
X138558525Y-64947462D01*
X139129954Y-65937205D02*
X139257500Y-65929549D01*
X139257500Y-65929549D02*
X139455448Y-65815264D01*
X139455448Y-65815264D02*
X139525851Y-65708634D01*
X139525851Y-65708634D02*
X139546767Y-65630575D01*
X139546767Y-65630575D02*
X139539111Y-65503029D01*
X139539111Y-65503029D02*
X139367683Y-65206106D01*
X139367683Y-65206106D02*
X139261053Y-65135703D01*
X139261053Y-65135703D02*
X139182994Y-65114788D01*
X139182994Y-65114788D02*
X139055448Y-65122443D01*
X139055448Y-65122443D02*
X138857500Y-65236729D01*
X138857500Y-65236729D02*
X138787097Y-65343359D01*
X137426475Y-66986692D02*
X136826475Y-65947462D01*
X137397903Y-66937205D02*
X137525449Y-66929549D01*
X137525449Y-66929549D02*
X137723398Y-66815264D01*
X137723398Y-66815264D02*
X137793800Y-66708634D01*
X137793800Y-66708634D02*
X137814716Y-66630575D01*
X137814716Y-66630575D02*
X137807061Y-66503029D01*
X137807061Y-66503029D02*
X137635632Y-66206106D01*
X137635632Y-66206106D02*
X137529002Y-66135703D01*
X137529002Y-66135703D02*
X137450943Y-66114788D01*
X137450943Y-66114788D02*
X137323398Y-66122443D01*
X137323398Y-66122443D02*
X137125449Y-66236729D01*
X137125449Y-66236729D02*
X137055046Y-66343359D01*
X136507134Y-67451491D02*
X136634680Y-67443835D01*
X136634680Y-67443835D02*
X136832629Y-67329549D01*
X136832629Y-67329549D02*
X136903032Y-67222919D01*
X136903032Y-67222919D02*
X136895376Y-67095373D01*
X136895376Y-67095373D02*
X136666805Y-66699476D01*
X136666805Y-66699476D02*
X136560175Y-66629073D01*
X136560175Y-66629073D02*
X136432629Y-66636729D01*
X136432629Y-66636729D02*
X136234680Y-66751015D01*
X136234680Y-66751015D02*
X136164277Y-66857645D01*
X136164277Y-66857645D02*
X136171933Y-66985190D01*
X136171933Y-66985190D02*
X136229076Y-67084165D01*
X136229076Y-67084165D02*
X136781090Y-66897425D01*
X136061750Y-67708633D02*
X135991347Y-67815263D01*
X135991347Y-67815263D02*
X135793399Y-67929549D01*
X135793399Y-67929549D02*
X135665853Y-67937205D01*
X135665853Y-67937205D02*
X135559223Y-67866802D01*
X135559223Y-67866802D02*
X135530652Y-67817315D01*
X135530652Y-67817315D02*
X135522996Y-67689769D01*
X135522996Y-67689769D02*
X135593399Y-67583139D01*
X135593399Y-67583139D02*
X135741860Y-67497424D01*
X135741860Y-67497424D02*
X135812263Y-67390794D01*
X135812263Y-67390794D02*
X135804607Y-67263249D01*
X135804607Y-67263249D02*
X135776036Y-67213762D01*
X135776036Y-67213762D02*
X135669406Y-67143359D01*
X135669406Y-67143359D02*
X135541860Y-67151014D01*
X135541860Y-67151014D02*
X135393399Y-67236729D01*
X135393399Y-67236729D02*
X135322996Y-67343359D01*
X135199552Y-68272406D02*
X134799552Y-67579586D01*
X134599552Y-67233176D02*
X134677611Y-67254092D01*
X134677611Y-67254092D02*
X134656695Y-67332150D01*
X134656695Y-67332150D02*
X134578637Y-67311234D01*
X134578637Y-67311234D02*
X134599552Y-67233176D01*
X134599552Y-67233176D02*
X134656695Y-67332150D01*
X133859296Y-68122443D02*
X134345010Y-68963725D01*
X134345010Y-68963725D02*
X134451640Y-69034128D01*
X134451640Y-69034128D02*
X134529699Y-69055044D01*
X134529699Y-69055044D02*
X134657244Y-69047388D01*
X134657244Y-69047388D02*
X134805706Y-68961674D01*
X134805706Y-68961674D02*
X134876109Y-68855044D01*
X134230724Y-68765776D02*
X134358270Y-68758121D01*
X134358270Y-68758121D02*
X134556219Y-68643835D01*
X134556219Y-68643835D02*
X134626622Y-68537205D01*
X134626622Y-68537205D02*
X134647537Y-68459146D01*
X134647537Y-68459146D02*
X134639882Y-68331601D01*
X134639882Y-68331601D02*
X134468453Y-68034678D01*
X134468453Y-68034678D02*
X134361823Y-67964275D01*
X134361823Y-67964275D02*
X134283765Y-67943359D01*
X134283765Y-67943359D02*
X134156219Y-67951015D01*
X134156219Y-67951015D02*
X133958270Y-68065300D01*
X133958270Y-68065300D02*
X133887867Y-68171930D01*
X133364424Y-68408157D02*
X133764424Y-69100978D01*
X133421567Y-68507132D02*
X133343509Y-68486216D01*
X133343509Y-68486216D02*
X133215963Y-68493872D01*
X133215963Y-68493872D02*
X133067501Y-68579586D01*
X133067501Y-68579586D02*
X132997099Y-68686216D01*
X132997099Y-68686216D02*
X133004754Y-68813762D01*
X133004754Y-68813762D02*
X133319040Y-69358121D01*
X132399700Y-69822919D02*
X132527246Y-69815263D01*
X132527246Y-69815263D02*
X132725194Y-69700978D01*
X132725194Y-69700978D02*
X132795597Y-69594348D01*
X132795597Y-69594348D02*
X132787941Y-69466802D01*
X132787941Y-69466802D02*
X132559370Y-69070905D01*
X132559370Y-69070905D02*
X132452740Y-69000502D01*
X132452740Y-69000502D02*
X132325194Y-69008157D01*
X132325194Y-69008157D02*
X132127246Y-69122443D01*
X132127246Y-69122443D02*
X132056843Y-69229073D01*
X132056843Y-69229073D02*
X132064498Y-69356619D01*
X132064498Y-69356619D02*
X132121641Y-69455593D01*
X132121641Y-69455593D02*
X132673656Y-69268853D01*
X131488015Y-70415263D02*
X130888015Y-69376033D01*
X131459444Y-70365776D02*
X131586990Y-70358120D01*
X131586990Y-70358120D02*
X131784938Y-70243835D01*
X131784938Y-70243835D02*
X131855341Y-70137205D01*
X131855341Y-70137205D02*
X131876257Y-70059146D01*
X131876257Y-70059146D02*
X131868601Y-69931600D01*
X131868601Y-69931600D02*
X131697173Y-69634677D01*
X131697173Y-69634677D02*
X131590543Y-69564274D01*
X131590543Y-69564274D02*
X131512484Y-69543359D01*
X131512484Y-69543359D02*
X131384938Y-69551014D01*
X131384938Y-69551014D02*
X131186990Y-69665300D01*
X131186990Y-69665300D02*
X131116587Y-69771930D01*
X130201349Y-71158120D02*
X129601349Y-70118890D01*
X129829921Y-70514787D02*
X129702375Y-70522443D01*
X129702375Y-70522443D02*
X129504426Y-70636729D01*
X129504426Y-70636729D02*
X129434023Y-70743359D01*
X129434023Y-70743359D02*
X129413107Y-70821417D01*
X129413107Y-70821417D02*
X129420763Y-70948963D01*
X129420763Y-70948963D02*
X129592192Y-71245886D01*
X129592192Y-71245886D02*
X129698822Y-71316289D01*
X129698822Y-71316289D02*
X129776880Y-71337205D01*
X129776880Y-71337205D02*
X129904426Y-71329549D01*
X129904426Y-71329549D02*
X130102375Y-71215263D01*
X130102375Y-71215263D02*
X130172778Y-71108633D01*
X128960068Y-70951014D02*
X129112632Y-71786692D01*
X128465196Y-71236728D02*
X129112632Y-71786692D01*
X129112632Y-71786692D02*
X129354463Y-71976985D01*
X129354463Y-71976985D02*
X129432522Y-71997900D01*
X129432522Y-71997900D02*
X129560068Y-71990245D01*
X143472255Y-65001151D02*
X143818665Y-64801151D01*
X144132951Y-65345510D02*
X143532951Y-64306279D01*
X143532951Y-64306279D02*
X143038080Y-64591994D01*
X143242183Y-65859795D02*
X142842183Y-65166975D01*
X142642183Y-64820565D02*
X142720241Y-64841481D01*
X142720241Y-64841481D02*
X142699325Y-64919539D01*
X142699325Y-64919539D02*
X142621267Y-64898623D01*
X142621267Y-64898623D02*
X142642183Y-64820565D01*
X142642183Y-64820565D02*
X142699325Y-64919539D01*
X142598849Y-66231224D02*
X142669252Y-66124594D01*
X142669252Y-66124594D02*
X142661596Y-65997048D01*
X142661596Y-65997048D02*
X142147311Y-65106279D01*
X142202952Y-66459795D02*
X141802952Y-65766975D01*
X141602952Y-65420565D02*
X141681011Y-65441481D01*
X141681011Y-65441481D02*
X141660095Y-65519539D01*
X141660095Y-65519539D02*
X141582036Y-65498623D01*
X141582036Y-65498623D02*
X141602952Y-65420565D01*
X141602952Y-65420565D02*
X141660095Y-65519539D01*
X141308080Y-66052689D02*
X141908080Y-67091920D01*
X141336652Y-66102177D02*
X141209106Y-66109832D01*
X141209106Y-66109832D02*
X141011157Y-66224118D01*
X141011157Y-66224118D02*
X140940754Y-66330748D01*
X140940754Y-66330748D02*
X140919838Y-66408807D01*
X140919838Y-66408807D02*
X140927494Y-66536352D01*
X140927494Y-66536352D02*
X141098923Y-66833275D01*
X141098923Y-66833275D02*
X141205553Y-66903678D01*
X141205553Y-66903678D02*
X141283611Y-66924594D01*
X141283611Y-66924594D02*
X141411157Y-66916938D01*
X141411157Y-66916938D02*
X141609106Y-66802653D01*
X141609106Y-66802653D02*
X141679509Y-66696023D01*
X139976029Y-67745510D02*
X139376029Y-66706279D01*
X139661744Y-67201151D02*
X139067898Y-67544008D01*
X139382183Y-68088367D02*
X138782183Y-67049136D01*
X138041927Y-67938404D02*
X138441927Y-68631224D01*
X138487311Y-67681261D02*
X138801597Y-68225620D01*
X138801597Y-68225620D02*
X138809253Y-68353166D01*
X138809253Y-68353166D02*
X138738850Y-68459796D01*
X138738850Y-68459796D02*
X138590389Y-68545510D01*
X138590389Y-68545510D02*
X138462843Y-68553166D01*
X138462843Y-68553166D02*
X138384784Y-68532250D01*
X137473100Y-69124594D02*
X137600645Y-69116938D01*
X137600645Y-69116938D02*
X137798594Y-69002653D01*
X137798594Y-69002653D02*
X137868997Y-68896023D01*
X137868997Y-68896023D02*
X137889913Y-68817964D01*
X137889913Y-68817964D02*
X137882257Y-68690418D01*
X137882257Y-68690418D02*
X137710828Y-68393495D01*
X137710828Y-68393495D02*
X137604198Y-68323092D01*
X137604198Y-68323092D02*
X137526140Y-68302177D01*
X137526140Y-68302177D02*
X137398594Y-68309832D01*
X137398594Y-68309832D02*
X137200645Y-68424118D01*
X137200645Y-68424118D02*
X137130243Y-68530748D01*
X136755261Y-68681261D02*
X136210902Y-68995546D01*
X136210902Y-68995546D02*
X137155261Y-69374081D01*
X137155261Y-69374081D02*
X136610902Y-69688367D01*
X135790536Y-70096023D02*
X135918082Y-70088367D01*
X135918082Y-70088367D02*
X136116030Y-69974081D01*
X136116030Y-69974081D02*
X136186433Y-69867451D01*
X136186433Y-69867451D02*
X136178778Y-69739905D01*
X136178778Y-69739905D02*
X135950206Y-69344008D01*
X135950206Y-69344008D02*
X135843576Y-69273605D01*
X135843576Y-69273605D02*
X135716030Y-69281261D01*
X135716030Y-69281261D02*
X135518082Y-69395547D01*
X135518082Y-69395547D02*
X135447679Y-69502177D01*
X135447679Y-69502177D02*
X135455335Y-69629722D01*
X135455335Y-69629722D02*
X135512477Y-69728697D01*
X135512477Y-69728697D02*
X136064492Y-69541957D01*
X135324236Y-70431224D02*
X134724236Y-69391993D01*
X134996690Y-70092469D02*
X134928339Y-70659795D01*
X134528339Y-69966975D02*
X135152808Y-70134301D01*
D10*
X187332857Y-86560819D02*
X187666190Y-86084628D01*
X187904285Y-86560819D02*
X187904285Y-85560819D01*
X187904285Y-85560819D02*
X187523333Y-85560819D01*
X187523333Y-85560819D02*
X187428095Y-85608438D01*
X187428095Y-85608438D02*
X187380476Y-85656057D01*
X187380476Y-85656057D02*
X187332857Y-85751295D01*
X187332857Y-85751295D02*
X187332857Y-85894152D01*
X187332857Y-85894152D02*
X187380476Y-85989390D01*
X187380476Y-85989390D02*
X187428095Y-86037009D01*
X187428095Y-86037009D02*
X187523333Y-86084628D01*
X187523333Y-86084628D02*
X187904285Y-86084628D01*
X186380476Y-86560819D02*
X186951904Y-86560819D01*
X186666190Y-86560819D02*
X186666190Y-85560819D01*
X186666190Y-85560819D02*
X186761428Y-85703676D01*
X186761428Y-85703676D02*
X186856666Y-85798914D01*
X186856666Y-85798914D02*
X186951904Y-85846533D01*
X185523333Y-85894152D02*
X185523333Y-86560819D01*
X185761428Y-85513200D02*
X185999523Y-86227485D01*
X185999523Y-86227485D02*
X185380476Y-86227485D01*
X177204666Y-86306819D02*
X177537999Y-85830628D01*
X177776094Y-86306819D02*
X177776094Y-85306819D01*
X177776094Y-85306819D02*
X177395142Y-85306819D01*
X177395142Y-85306819D02*
X177299904Y-85354438D01*
X177299904Y-85354438D02*
X177252285Y-85402057D01*
X177252285Y-85402057D02*
X177204666Y-85497295D01*
X177204666Y-85497295D02*
X177204666Y-85640152D01*
X177204666Y-85640152D02*
X177252285Y-85735390D01*
X177252285Y-85735390D02*
X177299904Y-85783009D01*
X177299904Y-85783009D02*
X177395142Y-85830628D01*
X177395142Y-85830628D02*
X177776094Y-85830628D01*
X176871332Y-85306819D02*
X176204666Y-85306819D01*
X176204666Y-85306819D02*
X176633237Y-86306819D01*
X175172666Y-93926819D02*
X175505999Y-93450628D01*
X175744094Y-93926819D02*
X175744094Y-92926819D01*
X175744094Y-92926819D02*
X175363142Y-92926819D01*
X175363142Y-92926819D02*
X175267904Y-92974438D01*
X175267904Y-92974438D02*
X175220285Y-93022057D01*
X175220285Y-93022057D02*
X175172666Y-93117295D01*
X175172666Y-93117295D02*
X175172666Y-93260152D01*
X175172666Y-93260152D02*
X175220285Y-93355390D01*
X175220285Y-93355390D02*
X175267904Y-93403009D01*
X175267904Y-93403009D02*
X175363142Y-93450628D01*
X175363142Y-93450628D02*
X175744094Y-93450628D01*
X174267904Y-92926819D02*
X174744094Y-92926819D01*
X174744094Y-92926819D02*
X174791713Y-93403009D01*
X174791713Y-93403009D02*
X174744094Y-93355390D01*
X174744094Y-93355390D02*
X174648856Y-93307771D01*
X174648856Y-93307771D02*
X174410761Y-93307771D01*
X174410761Y-93307771D02*
X174315523Y-93355390D01*
X174315523Y-93355390D02*
X174267904Y-93403009D01*
X174267904Y-93403009D02*
X174220285Y-93498247D01*
X174220285Y-93498247D02*
X174220285Y-93736342D01*
X174220285Y-93736342D02*
X174267904Y-93831580D01*
X174267904Y-93831580D02*
X174315523Y-93879200D01*
X174315523Y-93879200D02*
X174410761Y-93926819D01*
X174410761Y-93926819D02*
X174648856Y-93926819D01*
X174648856Y-93926819D02*
X174744094Y-93879200D01*
X174744094Y-93879200D02*
X174791713Y-93831580D01*
X187332857Y-80718819D02*
X187666190Y-80242628D01*
X187904285Y-80718819D02*
X187904285Y-79718819D01*
X187904285Y-79718819D02*
X187523333Y-79718819D01*
X187523333Y-79718819D02*
X187428095Y-79766438D01*
X187428095Y-79766438D02*
X187380476Y-79814057D01*
X187380476Y-79814057D02*
X187332857Y-79909295D01*
X187332857Y-79909295D02*
X187332857Y-80052152D01*
X187332857Y-80052152D02*
X187380476Y-80147390D01*
X187380476Y-80147390D02*
X187428095Y-80195009D01*
X187428095Y-80195009D02*
X187523333Y-80242628D01*
X187523333Y-80242628D02*
X187904285Y-80242628D01*
X186380476Y-80718819D02*
X186951904Y-80718819D01*
X186666190Y-80718819D02*
X186666190Y-79718819D01*
X186666190Y-79718819D02*
X186761428Y-79861676D01*
X186761428Y-79861676D02*
X186856666Y-79956914D01*
X186856666Y-79956914D02*
X186951904Y-80004533D01*
X185428095Y-80718819D02*
X185999523Y-80718819D01*
X185713809Y-80718819D02*
X185713809Y-79718819D01*
X185713809Y-79718819D02*
X185809047Y-79861676D01*
X185809047Y-79861676D02*
X185904285Y-79956914D01*
X185904285Y-79956914D02*
X185999523Y-80004533D01*
X177204666Y-84528819D02*
X177537999Y-84052628D01*
X177776094Y-84528819D02*
X177776094Y-83528819D01*
X177776094Y-83528819D02*
X177395142Y-83528819D01*
X177395142Y-83528819D02*
X177299904Y-83576438D01*
X177299904Y-83576438D02*
X177252285Y-83624057D01*
X177252285Y-83624057D02*
X177204666Y-83719295D01*
X177204666Y-83719295D02*
X177204666Y-83862152D01*
X177204666Y-83862152D02*
X177252285Y-83957390D01*
X177252285Y-83957390D02*
X177299904Y-84005009D01*
X177299904Y-84005009D02*
X177395142Y-84052628D01*
X177395142Y-84052628D02*
X177776094Y-84052628D01*
X176633237Y-83957390D02*
X176728475Y-83909771D01*
X176728475Y-83909771D02*
X176776094Y-83862152D01*
X176776094Y-83862152D02*
X176823713Y-83766914D01*
X176823713Y-83766914D02*
X176823713Y-83719295D01*
X176823713Y-83719295D02*
X176776094Y-83624057D01*
X176776094Y-83624057D02*
X176728475Y-83576438D01*
X176728475Y-83576438D02*
X176633237Y-83528819D01*
X176633237Y-83528819D02*
X176442761Y-83528819D01*
X176442761Y-83528819D02*
X176347523Y-83576438D01*
X176347523Y-83576438D02*
X176299904Y-83624057D01*
X176299904Y-83624057D02*
X176252285Y-83719295D01*
X176252285Y-83719295D02*
X176252285Y-83766914D01*
X176252285Y-83766914D02*
X176299904Y-83862152D01*
X176299904Y-83862152D02*
X176347523Y-83909771D01*
X176347523Y-83909771D02*
X176442761Y-83957390D01*
X176442761Y-83957390D02*
X176633237Y-83957390D01*
X176633237Y-83957390D02*
X176728475Y-84005009D01*
X176728475Y-84005009D02*
X176776094Y-84052628D01*
X176776094Y-84052628D02*
X176823713Y-84147866D01*
X176823713Y-84147866D02*
X176823713Y-84338342D01*
X176823713Y-84338342D02*
X176776094Y-84433580D01*
X176776094Y-84433580D02*
X176728475Y-84481200D01*
X176728475Y-84481200D02*
X176633237Y-84528819D01*
X176633237Y-84528819D02*
X176442761Y-84528819D01*
X176442761Y-84528819D02*
X176347523Y-84481200D01*
X176347523Y-84481200D02*
X176299904Y-84433580D01*
X176299904Y-84433580D02*
X176252285Y-84338342D01*
X176252285Y-84338342D02*
X176252285Y-84147866D01*
X176252285Y-84147866D02*
X176299904Y-84052628D01*
X176299904Y-84052628D02*
X176347523Y-84005009D01*
X176347523Y-84005009D02*
X176442761Y-83957390D01*
X177972693Y-73903399D02*
X177726967Y-73376629D01*
X178258407Y-73408528D02*
X177392382Y-72908528D01*
X177392382Y-72908528D02*
X177201906Y-73238442D01*
X177201906Y-73238442D02*
X177195526Y-73344730D01*
X177195526Y-73344730D02*
X177212956Y-73409779D01*
X177212956Y-73409779D02*
X177271625Y-73498637D01*
X177271625Y-73498637D02*
X177395343Y-73570066D01*
X177395343Y-73570066D02*
X177501631Y-73576446D01*
X177501631Y-73576446D02*
X177566680Y-73559016D01*
X177566680Y-73559016D02*
X177655538Y-73500347D01*
X177655538Y-73500347D02*
X177846014Y-73170432D01*
X176998670Y-73780933D02*
X176933621Y-73798363D01*
X176933621Y-73798363D02*
X176844763Y-73857032D01*
X176844763Y-73857032D02*
X176725715Y-74063228D01*
X176725715Y-74063228D02*
X176719335Y-74169516D01*
X176719335Y-74169516D02*
X176736765Y-74234565D01*
X176736765Y-74234565D02*
X176795434Y-74323424D01*
X176795434Y-74323424D02*
X176877913Y-74371043D01*
X176877913Y-74371043D02*
X177025440Y-74401232D01*
X177025440Y-74401232D02*
X177806026Y-74192075D01*
X177806026Y-74192075D02*
X177496502Y-74728185D01*
X176463810Y-74516861D02*
X176154287Y-75052972D01*
X176154287Y-75052972D02*
X176650868Y-74954773D01*
X176650868Y-74954773D02*
X176579439Y-75078491D01*
X176579439Y-75078491D02*
X176573059Y-75184779D01*
X176573059Y-75184779D02*
X176590489Y-75249828D01*
X176590489Y-75249828D02*
X176649158Y-75338686D01*
X176649158Y-75338686D02*
X176855355Y-75457734D01*
X176855355Y-75457734D02*
X176961643Y-75464113D01*
X176961643Y-75464113D02*
X177026692Y-75446683D01*
X177026692Y-75446683D02*
X177115550Y-75388014D01*
X177115550Y-75388014D02*
X177258407Y-75140579D01*
X177258407Y-75140579D02*
X177264787Y-75034290D01*
X177264787Y-75034290D02*
X177247357Y-74969242D01*
X175747040Y-72666925D02*
X175501314Y-72140155D01*
X176032754Y-72172054D02*
X175166729Y-71672054D01*
X175166729Y-71672054D02*
X174976253Y-72001968D01*
X174976253Y-72001968D02*
X174969873Y-72108256D01*
X174969873Y-72108256D02*
X174987303Y-72173305D01*
X174987303Y-72173305D02*
X175045972Y-72262163D01*
X175045972Y-72262163D02*
X175169690Y-72333592D01*
X175169690Y-72333592D02*
X175275978Y-72339972D01*
X175275978Y-72339972D02*
X175341027Y-72322542D01*
X175341027Y-72322542D02*
X175429885Y-72263873D01*
X175429885Y-72263873D02*
X175620361Y-71933958D01*
X174773017Y-72544459D02*
X174707968Y-72561889D01*
X174707968Y-72561889D02*
X174619110Y-72620558D01*
X174619110Y-72620558D02*
X174500062Y-72826754D01*
X174500062Y-72826754D02*
X174493682Y-72933042D01*
X174493682Y-72933042D02*
X174511112Y-72998091D01*
X174511112Y-72998091D02*
X174569781Y-73086950D01*
X174569781Y-73086950D02*
X174652260Y-73134569D01*
X174652260Y-73134569D02*
X174799787Y-73164758D01*
X174799787Y-73164758D02*
X175580373Y-72955601D01*
X175580373Y-72955601D02*
X175270849Y-73491711D01*
X174264928Y-73900686D02*
X174842278Y-74234019D01*
X174054061Y-73504013D02*
X174791698Y-73654959D01*
X174791698Y-73654959D02*
X174482174Y-74191070D01*
X170504127Y-135864073D02*
X170569176Y-135881502D01*
X170569176Y-135881502D02*
X170716703Y-135851313D01*
X170716703Y-135851313D02*
X170799182Y-135803694D01*
X170799182Y-135803694D02*
X170899090Y-135691026D01*
X170899090Y-135691026D02*
X170933950Y-135560929D01*
X170933950Y-135560929D02*
X170927570Y-135454640D01*
X170927570Y-135454640D02*
X170873571Y-135265874D01*
X170873571Y-135265874D02*
X170802143Y-135142156D01*
X170802143Y-135142156D02*
X170665665Y-135001008D01*
X170665665Y-135001008D02*
X170576807Y-134942339D01*
X170576807Y-134942339D02*
X170446709Y-134907479D01*
X170446709Y-134907479D02*
X170299182Y-134937669D01*
X170299182Y-134937669D02*
X170216703Y-134985288D01*
X170216703Y-134985288D02*
X170116795Y-135097956D01*
X170116795Y-135097956D02*
X170099365Y-135163004D01*
X169769451Y-135353481D02*
X169704402Y-135336051D01*
X169704402Y-135336051D02*
X169598114Y-135342431D01*
X169598114Y-135342431D02*
X169391917Y-135461478D01*
X169391917Y-135461478D02*
X169333248Y-135550337D01*
X169333248Y-135550337D02*
X169315818Y-135615385D01*
X169315818Y-135615385D02*
X169322198Y-135721674D01*
X169322198Y-135721674D02*
X169369817Y-135804152D01*
X169369817Y-135804152D02*
X169482485Y-135904061D01*
X169482485Y-135904061D02*
X170263071Y-136113218D01*
X170263071Y-136113218D02*
X169726960Y-136422742D01*
X177172857Y-80972819D02*
X177506190Y-80496628D01*
X177744285Y-80972819D02*
X177744285Y-79972819D01*
X177744285Y-79972819D02*
X177363333Y-79972819D01*
X177363333Y-79972819D02*
X177268095Y-80020438D01*
X177268095Y-80020438D02*
X177220476Y-80068057D01*
X177220476Y-80068057D02*
X177172857Y-80163295D01*
X177172857Y-80163295D02*
X177172857Y-80306152D01*
X177172857Y-80306152D02*
X177220476Y-80401390D01*
X177220476Y-80401390D02*
X177268095Y-80449009D01*
X177268095Y-80449009D02*
X177363333Y-80496628D01*
X177363333Y-80496628D02*
X177744285Y-80496628D01*
X176220476Y-80972819D02*
X176791904Y-80972819D01*
X176506190Y-80972819D02*
X176506190Y-79972819D01*
X176506190Y-79972819D02*
X176601428Y-80115676D01*
X176601428Y-80115676D02*
X176696666Y-80210914D01*
X176696666Y-80210914D02*
X176791904Y-80258533D01*
X175601428Y-79972819D02*
X175506190Y-79972819D01*
X175506190Y-79972819D02*
X175410952Y-80020438D01*
X175410952Y-80020438D02*
X175363333Y-80068057D01*
X175363333Y-80068057D02*
X175315714Y-80163295D01*
X175315714Y-80163295D02*
X175268095Y-80353771D01*
X175268095Y-80353771D02*
X175268095Y-80591866D01*
X175268095Y-80591866D02*
X175315714Y-80782342D01*
X175315714Y-80782342D02*
X175363333Y-80877580D01*
X175363333Y-80877580D02*
X175410952Y-80925200D01*
X175410952Y-80925200D02*
X175506190Y-80972819D01*
X175506190Y-80972819D02*
X175601428Y-80972819D01*
X175601428Y-80972819D02*
X175696666Y-80925200D01*
X175696666Y-80925200D02*
X175744285Y-80877580D01*
X175744285Y-80877580D02*
X175791904Y-80782342D01*
X175791904Y-80782342D02*
X175839523Y-80591866D01*
X175839523Y-80591866D02*
X175839523Y-80353771D01*
X175839523Y-80353771D02*
X175791904Y-80163295D01*
X175791904Y-80163295D02*
X175744285Y-80068057D01*
X175744285Y-80068057D02*
X175696666Y-80020438D01*
X175696666Y-80020438D02*
X175601428Y-79972819D01*
X187332857Y-82750819D02*
X187666190Y-82274628D01*
X187904285Y-82750819D02*
X187904285Y-81750819D01*
X187904285Y-81750819D02*
X187523333Y-81750819D01*
X187523333Y-81750819D02*
X187428095Y-81798438D01*
X187428095Y-81798438D02*
X187380476Y-81846057D01*
X187380476Y-81846057D02*
X187332857Y-81941295D01*
X187332857Y-81941295D02*
X187332857Y-82084152D01*
X187332857Y-82084152D02*
X187380476Y-82179390D01*
X187380476Y-82179390D02*
X187428095Y-82227009D01*
X187428095Y-82227009D02*
X187523333Y-82274628D01*
X187523333Y-82274628D02*
X187904285Y-82274628D01*
X186380476Y-82750819D02*
X186951904Y-82750819D01*
X186666190Y-82750819D02*
X186666190Y-81750819D01*
X186666190Y-81750819D02*
X186761428Y-81893676D01*
X186761428Y-81893676D02*
X186856666Y-81988914D01*
X186856666Y-81988914D02*
X186951904Y-82036533D01*
X185999523Y-81846057D02*
X185951904Y-81798438D01*
X185951904Y-81798438D02*
X185856666Y-81750819D01*
X185856666Y-81750819D02*
X185618571Y-81750819D01*
X185618571Y-81750819D02*
X185523333Y-81798438D01*
X185523333Y-81798438D02*
X185475714Y-81846057D01*
X185475714Y-81846057D02*
X185428095Y-81941295D01*
X185428095Y-81941295D02*
X185428095Y-82036533D01*
X185428095Y-82036533D02*
X185475714Y-82179390D01*
X185475714Y-82179390D02*
X186047142Y-82750819D01*
X186047142Y-82750819D02*
X185428095Y-82750819D01*
X175172666Y-92148819D02*
X175505999Y-91672628D01*
X175744094Y-92148819D02*
X175744094Y-91148819D01*
X175744094Y-91148819D02*
X175363142Y-91148819D01*
X175363142Y-91148819D02*
X175267904Y-91196438D01*
X175267904Y-91196438D02*
X175220285Y-91244057D01*
X175220285Y-91244057D02*
X175172666Y-91339295D01*
X175172666Y-91339295D02*
X175172666Y-91482152D01*
X175172666Y-91482152D02*
X175220285Y-91577390D01*
X175220285Y-91577390D02*
X175267904Y-91625009D01*
X175267904Y-91625009D02*
X175363142Y-91672628D01*
X175363142Y-91672628D02*
X175744094Y-91672628D01*
X174315523Y-91148819D02*
X174505999Y-91148819D01*
X174505999Y-91148819D02*
X174601237Y-91196438D01*
X174601237Y-91196438D02*
X174648856Y-91244057D01*
X174648856Y-91244057D02*
X174744094Y-91386914D01*
X174744094Y-91386914D02*
X174791713Y-91577390D01*
X174791713Y-91577390D02*
X174791713Y-91958342D01*
X174791713Y-91958342D02*
X174744094Y-92053580D01*
X174744094Y-92053580D02*
X174696475Y-92101200D01*
X174696475Y-92101200D02*
X174601237Y-92148819D01*
X174601237Y-92148819D02*
X174410761Y-92148819D01*
X174410761Y-92148819D02*
X174315523Y-92101200D01*
X174315523Y-92101200D02*
X174267904Y-92053580D01*
X174267904Y-92053580D02*
X174220285Y-91958342D01*
X174220285Y-91958342D02*
X174220285Y-91720247D01*
X174220285Y-91720247D02*
X174267904Y-91625009D01*
X174267904Y-91625009D02*
X174315523Y-91577390D01*
X174315523Y-91577390D02*
X174410761Y-91529771D01*
X174410761Y-91529771D02*
X174601237Y-91529771D01*
X174601237Y-91529771D02*
X174696475Y-91577390D01*
X174696475Y-91577390D02*
X174744094Y-91625009D01*
X174744094Y-91625009D02*
X174791713Y-91720247D01*
X188602857Y-97990819D02*
X188936190Y-97514628D01*
X189174285Y-97990819D02*
X189174285Y-96990819D01*
X189174285Y-96990819D02*
X188793333Y-96990819D01*
X188793333Y-96990819D02*
X188698095Y-97038438D01*
X188698095Y-97038438D02*
X188650476Y-97086057D01*
X188650476Y-97086057D02*
X188602857Y-97181295D01*
X188602857Y-97181295D02*
X188602857Y-97324152D01*
X188602857Y-97324152D02*
X188650476Y-97419390D01*
X188650476Y-97419390D02*
X188698095Y-97467009D01*
X188698095Y-97467009D02*
X188793333Y-97514628D01*
X188793333Y-97514628D02*
X189174285Y-97514628D01*
X187650476Y-97990819D02*
X188221904Y-97990819D01*
X187936190Y-97990819D02*
X187936190Y-96990819D01*
X187936190Y-96990819D02*
X188031428Y-97133676D01*
X188031428Y-97133676D02*
X188126666Y-97228914D01*
X188126666Y-97228914D02*
X188221904Y-97276533D01*
X186793333Y-96990819D02*
X186983809Y-96990819D01*
X186983809Y-96990819D02*
X187079047Y-97038438D01*
X187079047Y-97038438D02*
X187126666Y-97086057D01*
X187126666Y-97086057D02*
X187221904Y-97228914D01*
X187221904Y-97228914D02*
X187269523Y-97419390D01*
X187269523Y-97419390D02*
X187269523Y-97800342D01*
X187269523Y-97800342D02*
X187221904Y-97895580D01*
X187221904Y-97895580D02*
X187174285Y-97943200D01*
X187174285Y-97943200D02*
X187079047Y-97990819D01*
X187079047Y-97990819D02*
X186888571Y-97990819D01*
X186888571Y-97990819D02*
X186793333Y-97943200D01*
X186793333Y-97943200D02*
X186745714Y-97895580D01*
X186745714Y-97895580D02*
X186698095Y-97800342D01*
X186698095Y-97800342D02*
X186698095Y-97562247D01*
X186698095Y-97562247D02*
X186745714Y-97467009D01*
X186745714Y-97467009D02*
X186793333Y-97419390D01*
X186793333Y-97419390D02*
X186888571Y-97371771D01*
X186888571Y-97371771D02*
X187079047Y-97371771D01*
X187079047Y-97371771D02*
X187174285Y-97419390D01*
X187174285Y-97419390D02*
X187221904Y-97467009D01*
X187221904Y-97467009D02*
X187269523Y-97562247D01*
X171333782Y-70003752D02*
X171088056Y-69476982D01*
X171619496Y-69508881D02*
X170753471Y-69008881D01*
X170753471Y-69008881D02*
X170562995Y-69338795D01*
X170562995Y-69338795D02*
X170556615Y-69445083D01*
X170556615Y-69445083D02*
X170574045Y-69510132D01*
X170574045Y-69510132D02*
X170632714Y-69598990D01*
X170632714Y-69598990D02*
X170756432Y-69670419D01*
X170756432Y-69670419D02*
X170862720Y-69676799D01*
X170862720Y-69676799D02*
X170927769Y-69659369D01*
X170927769Y-69659369D02*
X171016627Y-69600700D01*
X171016627Y-69600700D02*
X171207103Y-69270785D01*
X170359759Y-69881286D02*
X170294710Y-69898716D01*
X170294710Y-69898716D02*
X170205852Y-69957385D01*
X170205852Y-69957385D02*
X170086804Y-70163581D01*
X170086804Y-70163581D02*
X170080424Y-70269869D01*
X170080424Y-70269869D02*
X170097854Y-70334918D01*
X170097854Y-70334918D02*
X170156523Y-70423777D01*
X170156523Y-70423777D02*
X170239002Y-70471396D01*
X170239002Y-70471396D02*
X170386529Y-70501585D01*
X170386529Y-70501585D02*
X171167115Y-70292428D01*
X171167115Y-70292428D02*
X170857591Y-70828538D01*
X169562995Y-71070846D02*
X169658233Y-70905889D01*
X169658233Y-70905889D02*
X169747091Y-70847220D01*
X169747091Y-70847220D02*
X169812140Y-70829790D01*
X169812140Y-70829790D02*
X169983477Y-70818740D01*
X169983477Y-70818740D02*
X170172244Y-70872739D01*
X170172244Y-70872739D02*
X170502158Y-71063215D01*
X170502158Y-71063215D02*
X170560827Y-71152073D01*
X170560827Y-71152073D02*
X170578257Y-71217122D01*
X170578257Y-71217122D02*
X170571877Y-71323410D01*
X170571877Y-71323410D02*
X170476639Y-71488367D01*
X170476639Y-71488367D02*
X170387781Y-71547036D01*
X170387781Y-71547036D02*
X170322732Y-71564466D01*
X170322732Y-71564466D02*
X170216444Y-71558087D01*
X170216444Y-71558087D02*
X170010247Y-71439039D01*
X170010247Y-71439039D02*
X169951578Y-71350181D01*
X169951578Y-71350181D02*
X169934148Y-71285132D01*
X169934148Y-71285132D02*
X169940528Y-71178844D01*
X169940528Y-71178844D02*
X170035766Y-71013886D01*
X170035766Y-71013886D02*
X170124625Y-70955217D01*
X170124625Y-70955217D02*
X170189673Y-70937787D01*
X170189673Y-70937787D02*
X170295962Y-70944167D01*
X173597479Y-71354362D02*
X173351753Y-70827592D01*
X173883193Y-70859491D02*
X173017168Y-70359491D01*
X173017168Y-70359491D02*
X172826692Y-70689405D01*
X172826692Y-70689405D02*
X172820312Y-70795693D01*
X172820312Y-70795693D02*
X172837742Y-70860742D01*
X172837742Y-70860742D02*
X172896411Y-70949600D01*
X172896411Y-70949600D02*
X173020129Y-71021029D01*
X173020129Y-71021029D02*
X173126417Y-71027409D01*
X173126417Y-71027409D02*
X173191466Y-71009979D01*
X173191466Y-71009979D02*
X173280324Y-70951310D01*
X173280324Y-70951310D02*
X173470800Y-70621395D01*
X172623456Y-71231896D02*
X172558407Y-71249326D01*
X172558407Y-71249326D02*
X172469549Y-71307995D01*
X172469549Y-71307995D02*
X172350501Y-71514191D01*
X172350501Y-71514191D02*
X172344121Y-71620479D01*
X172344121Y-71620479D02*
X172361551Y-71685528D01*
X172361551Y-71685528D02*
X172420220Y-71774387D01*
X172420220Y-71774387D02*
X172502699Y-71822006D01*
X172502699Y-71822006D02*
X172650226Y-71852195D01*
X172650226Y-71852195D02*
X173430812Y-71643038D01*
X173430812Y-71643038D02*
X173121288Y-72179148D01*
X171802882Y-72462695D02*
X172040977Y-72050302D01*
X172040977Y-72050302D02*
X172477180Y-72247158D01*
X172477180Y-72247158D02*
X172412131Y-72264588D01*
X172412131Y-72264588D02*
X172323273Y-72323257D01*
X172323273Y-72323257D02*
X172204225Y-72529454D01*
X172204225Y-72529454D02*
X172197845Y-72635742D01*
X172197845Y-72635742D02*
X172215275Y-72700791D01*
X172215275Y-72700791D02*
X172273944Y-72789649D01*
X172273944Y-72789649D02*
X172480141Y-72908697D01*
X172480141Y-72908697D02*
X172586429Y-72915076D01*
X172586429Y-72915076D02*
X172651478Y-72897646D01*
X172651478Y-72897646D02*
X172740336Y-72838977D01*
X172740336Y-72838977D02*
X172859384Y-72632781D01*
X172859384Y-72632781D02*
X172865763Y-72526493D01*
X172865763Y-72526493D02*
X172848334Y-72461444D01*
X169742127Y-134423750D02*
X169807176Y-134441179D01*
X169807176Y-134441179D02*
X169954703Y-134410990D01*
X169954703Y-134410990D02*
X170037182Y-134363371D01*
X170037182Y-134363371D02*
X170137090Y-134250703D01*
X170137090Y-134250703D02*
X170171950Y-134120606D01*
X170171950Y-134120606D02*
X170165570Y-134014317D01*
X170165570Y-134014317D02*
X170111571Y-133825551D01*
X170111571Y-133825551D02*
X170040143Y-133701833D01*
X170040143Y-133701833D02*
X169903665Y-133560685D01*
X169903665Y-133560685D02*
X169814807Y-133502016D01*
X169814807Y-133502016D02*
X169684709Y-133467156D01*
X169684709Y-133467156D02*
X169537182Y-133497346D01*
X169537182Y-133497346D02*
X169454703Y-133544965D01*
X169454703Y-133544965D02*
X169354795Y-133657633D01*
X169354795Y-133657633D02*
X169337365Y-133722681D01*
X169001071Y-133806870D02*
X168464960Y-134116393D01*
X168464960Y-134116393D02*
X168944111Y-134279641D01*
X168944111Y-134279641D02*
X168820393Y-134351070D01*
X168820393Y-134351070D02*
X168761724Y-134439928D01*
X168761724Y-134439928D02*
X168744295Y-134504977D01*
X168744295Y-134504977D02*
X168750674Y-134611265D01*
X168750674Y-134611265D02*
X168869722Y-134817462D01*
X168869722Y-134817462D02*
X168958580Y-134876131D01*
X168958580Y-134876131D02*
X169023629Y-134893560D01*
X169023629Y-134893560D02*
X169129917Y-134887181D01*
X169129917Y-134887181D02*
X169377353Y-134744323D01*
X169377353Y-134744323D02*
X169436022Y-134655465D01*
X169436022Y-134655465D02*
X169453452Y-134590416D01*
X188602857Y-99768819D02*
X188936190Y-99292628D01*
X189174285Y-99768819D02*
X189174285Y-98768819D01*
X189174285Y-98768819D02*
X188793333Y-98768819D01*
X188793333Y-98768819D02*
X188698095Y-98816438D01*
X188698095Y-98816438D02*
X188650476Y-98864057D01*
X188650476Y-98864057D02*
X188602857Y-98959295D01*
X188602857Y-98959295D02*
X188602857Y-99102152D01*
X188602857Y-99102152D02*
X188650476Y-99197390D01*
X188650476Y-99197390D02*
X188698095Y-99245009D01*
X188698095Y-99245009D02*
X188793333Y-99292628D01*
X188793333Y-99292628D02*
X189174285Y-99292628D01*
X187650476Y-99768819D02*
X188221904Y-99768819D01*
X187936190Y-99768819D02*
X187936190Y-98768819D01*
X187936190Y-98768819D02*
X188031428Y-98911676D01*
X188031428Y-98911676D02*
X188126666Y-99006914D01*
X188126666Y-99006914D02*
X188221904Y-99054533D01*
X187317142Y-98768819D02*
X186650476Y-98768819D01*
X186650476Y-98768819D02*
X187079047Y-99768819D01*
X175172666Y-95704819D02*
X175505999Y-95228628D01*
X175744094Y-95704819D02*
X175744094Y-94704819D01*
X175744094Y-94704819D02*
X175363142Y-94704819D01*
X175363142Y-94704819D02*
X175267904Y-94752438D01*
X175267904Y-94752438D02*
X175220285Y-94800057D01*
X175220285Y-94800057D02*
X175172666Y-94895295D01*
X175172666Y-94895295D02*
X175172666Y-95038152D01*
X175172666Y-95038152D02*
X175220285Y-95133390D01*
X175220285Y-95133390D02*
X175267904Y-95181009D01*
X175267904Y-95181009D02*
X175363142Y-95228628D01*
X175363142Y-95228628D02*
X175744094Y-95228628D01*
X174839332Y-94704819D02*
X174220285Y-94704819D01*
X174220285Y-94704819D02*
X174553618Y-95085771D01*
X174553618Y-95085771D02*
X174410761Y-95085771D01*
X174410761Y-95085771D02*
X174315523Y-95133390D01*
X174315523Y-95133390D02*
X174267904Y-95181009D01*
X174267904Y-95181009D02*
X174220285Y-95276247D01*
X174220285Y-95276247D02*
X174220285Y-95514342D01*
X174220285Y-95514342D02*
X174267904Y-95609580D01*
X174267904Y-95609580D02*
X174315523Y-95657200D01*
X174315523Y-95657200D02*
X174410761Y-95704819D01*
X174410761Y-95704819D02*
X174696475Y-95704819D01*
X174696475Y-95704819D02*
X174791713Y-95657200D01*
X174791713Y-95657200D02*
X174839332Y-95609580D01*
X188602857Y-101546819D02*
X188936190Y-101070628D01*
X189174285Y-101546819D02*
X189174285Y-100546819D01*
X189174285Y-100546819D02*
X188793333Y-100546819D01*
X188793333Y-100546819D02*
X188698095Y-100594438D01*
X188698095Y-100594438D02*
X188650476Y-100642057D01*
X188650476Y-100642057D02*
X188602857Y-100737295D01*
X188602857Y-100737295D02*
X188602857Y-100880152D01*
X188602857Y-100880152D02*
X188650476Y-100975390D01*
X188650476Y-100975390D02*
X188698095Y-101023009D01*
X188698095Y-101023009D02*
X188793333Y-101070628D01*
X188793333Y-101070628D02*
X189174285Y-101070628D01*
X187650476Y-101546819D02*
X188221904Y-101546819D01*
X187936190Y-101546819D02*
X187936190Y-100546819D01*
X187936190Y-100546819D02*
X188031428Y-100689676D01*
X188031428Y-100689676D02*
X188126666Y-100784914D01*
X188126666Y-100784914D02*
X188221904Y-100832533D01*
X187079047Y-100975390D02*
X187174285Y-100927771D01*
X187174285Y-100927771D02*
X187221904Y-100880152D01*
X187221904Y-100880152D02*
X187269523Y-100784914D01*
X187269523Y-100784914D02*
X187269523Y-100737295D01*
X187269523Y-100737295D02*
X187221904Y-100642057D01*
X187221904Y-100642057D02*
X187174285Y-100594438D01*
X187174285Y-100594438D02*
X187079047Y-100546819D01*
X187079047Y-100546819D02*
X186888571Y-100546819D01*
X186888571Y-100546819D02*
X186793333Y-100594438D01*
X186793333Y-100594438D02*
X186745714Y-100642057D01*
X186745714Y-100642057D02*
X186698095Y-100737295D01*
X186698095Y-100737295D02*
X186698095Y-100784914D01*
X186698095Y-100784914D02*
X186745714Y-100880152D01*
X186745714Y-100880152D02*
X186793333Y-100927771D01*
X186793333Y-100927771D02*
X186888571Y-100975390D01*
X186888571Y-100975390D02*
X187079047Y-100975390D01*
X187079047Y-100975390D02*
X187174285Y-101023009D01*
X187174285Y-101023009D02*
X187221904Y-101070628D01*
X187221904Y-101070628D02*
X187269523Y-101165866D01*
X187269523Y-101165866D02*
X187269523Y-101356342D01*
X187269523Y-101356342D02*
X187221904Y-101451580D01*
X187221904Y-101451580D02*
X187174285Y-101499200D01*
X187174285Y-101499200D02*
X187079047Y-101546819D01*
X187079047Y-101546819D02*
X186888571Y-101546819D01*
X186888571Y-101546819D02*
X186793333Y-101499200D01*
X186793333Y-101499200D02*
X186745714Y-101451580D01*
X186745714Y-101451580D02*
X186698095Y-101356342D01*
X186698095Y-101356342D02*
X186698095Y-101165866D01*
X186698095Y-101165866D02*
X186745714Y-101070628D01*
X186745714Y-101070628D02*
X186793333Y-101023009D01*
X186793333Y-101023009D02*
X186888571Y-100975390D01*
X177204666Y-82750819D02*
X177537999Y-82274628D01*
X177776094Y-82750819D02*
X177776094Y-81750819D01*
X177776094Y-81750819D02*
X177395142Y-81750819D01*
X177395142Y-81750819D02*
X177299904Y-81798438D01*
X177299904Y-81798438D02*
X177252285Y-81846057D01*
X177252285Y-81846057D02*
X177204666Y-81941295D01*
X177204666Y-81941295D02*
X177204666Y-82084152D01*
X177204666Y-82084152D02*
X177252285Y-82179390D01*
X177252285Y-82179390D02*
X177299904Y-82227009D01*
X177299904Y-82227009D02*
X177395142Y-82274628D01*
X177395142Y-82274628D02*
X177776094Y-82274628D01*
X176728475Y-82750819D02*
X176537999Y-82750819D01*
X176537999Y-82750819D02*
X176442761Y-82703200D01*
X176442761Y-82703200D02*
X176395142Y-82655580D01*
X176395142Y-82655580D02*
X176299904Y-82512723D01*
X176299904Y-82512723D02*
X176252285Y-82322247D01*
X176252285Y-82322247D02*
X176252285Y-81941295D01*
X176252285Y-81941295D02*
X176299904Y-81846057D01*
X176299904Y-81846057D02*
X176347523Y-81798438D01*
X176347523Y-81798438D02*
X176442761Y-81750819D01*
X176442761Y-81750819D02*
X176633237Y-81750819D01*
X176633237Y-81750819D02*
X176728475Y-81798438D01*
X176728475Y-81798438D02*
X176776094Y-81846057D01*
X176776094Y-81846057D02*
X176823713Y-81941295D01*
X176823713Y-81941295D02*
X176823713Y-82179390D01*
X176823713Y-82179390D02*
X176776094Y-82274628D01*
X176776094Y-82274628D02*
X176728475Y-82322247D01*
X176728475Y-82322247D02*
X176633237Y-82369866D01*
X176633237Y-82369866D02*
X176442761Y-82369866D01*
X176442761Y-82369866D02*
X176347523Y-82322247D01*
X176347523Y-82322247D02*
X176299904Y-82274628D01*
X176299904Y-82274628D02*
X176252285Y-82179390D01*
X188602857Y-96212819D02*
X188936190Y-95736628D01*
X189174285Y-96212819D02*
X189174285Y-95212819D01*
X189174285Y-95212819D02*
X188793333Y-95212819D01*
X188793333Y-95212819D02*
X188698095Y-95260438D01*
X188698095Y-95260438D02*
X188650476Y-95308057D01*
X188650476Y-95308057D02*
X188602857Y-95403295D01*
X188602857Y-95403295D02*
X188602857Y-95546152D01*
X188602857Y-95546152D02*
X188650476Y-95641390D01*
X188650476Y-95641390D02*
X188698095Y-95689009D01*
X188698095Y-95689009D02*
X188793333Y-95736628D01*
X188793333Y-95736628D02*
X189174285Y-95736628D01*
X187650476Y-96212819D02*
X188221904Y-96212819D01*
X187936190Y-96212819D02*
X187936190Y-95212819D01*
X187936190Y-95212819D02*
X188031428Y-95355676D01*
X188031428Y-95355676D02*
X188126666Y-95450914D01*
X188126666Y-95450914D02*
X188221904Y-95498533D01*
X186745714Y-95212819D02*
X187221904Y-95212819D01*
X187221904Y-95212819D02*
X187269523Y-95689009D01*
X187269523Y-95689009D02*
X187221904Y-95641390D01*
X187221904Y-95641390D02*
X187126666Y-95593771D01*
X187126666Y-95593771D02*
X186888571Y-95593771D01*
X186888571Y-95593771D02*
X186793333Y-95641390D01*
X186793333Y-95641390D02*
X186745714Y-95689009D01*
X186745714Y-95689009D02*
X186698095Y-95784247D01*
X186698095Y-95784247D02*
X186698095Y-96022342D01*
X186698095Y-96022342D02*
X186745714Y-96117580D01*
X186745714Y-96117580D02*
X186793333Y-96165200D01*
X186793333Y-96165200D02*
X186888571Y-96212819D01*
X186888571Y-96212819D02*
X187126666Y-96212819D01*
X187126666Y-96212819D02*
X187221904Y-96165200D01*
X187221904Y-96165200D02*
X187269523Y-96117580D01*
X169260311Y-68938481D02*
X169014585Y-68411711D01*
X169546025Y-68443610D02*
X168680000Y-67943610D01*
X168680000Y-67943610D02*
X168489524Y-68273524D01*
X168489524Y-68273524D02*
X168483144Y-68379812D01*
X168483144Y-68379812D02*
X168500574Y-68444861D01*
X168500574Y-68444861D02*
X168559243Y-68533719D01*
X168559243Y-68533719D02*
X168682961Y-68605148D01*
X168682961Y-68605148D02*
X168789249Y-68611528D01*
X168789249Y-68611528D02*
X168854298Y-68594098D01*
X168854298Y-68594098D02*
X168943156Y-68535429D01*
X168943156Y-68535429D02*
X169133632Y-68205514D01*
X168286288Y-68816015D02*
X168221239Y-68833445D01*
X168221239Y-68833445D02*
X168132381Y-68892114D01*
X168132381Y-68892114D02*
X168013333Y-69098310D01*
X168013333Y-69098310D02*
X168006953Y-69204598D01*
X168006953Y-69204598D02*
X168024383Y-69269647D01*
X168024383Y-69269647D02*
X168083052Y-69358506D01*
X168083052Y-69358506D02*
X168165531Y-69406125D01*
X168165531Y-69406125D02*
X168313058Y-69436314D01*
X168313058Y-69436314D02*
X169093644Y-69227157D01*
X169093644Y-69227157D02*
X168784120Y-69763267D01*
X167751428Y-69551943D02*
X167418095Y-70129293D01*
X167418095Y-70129293D02*
X168498406Y-70258139D01*
X175172666Y-97482819D02*
X175505999Y-97006628D01*
X175744094Y-97482819D02*
X175744094Y-96482819D01*
X175744094Y-96482819D02*
X175363142Y-96482819D01*
X175363142Y-96482819D02*
X175267904Y-96530438D01*
X175267904Y-96530438D02*
X175220285Y-96578057D01*
X175220285Y-96578057D02*
X175172666Y-96673295D01*
X175172666Y-96673295D02*
X175172666Y-96816152D01*
X175172666Y-96816152D02*
X175220285Y-96911390D01*
X175220285Y-96911390D02*
X175267904Y-96959009D01*
X175267904Y-96959009D02*
X175363142Y-97006628D01*
X175363142Y-97006628D02*
X175744094Y-97006628D01*
X174315523Y-96816152D02*
X174315523Y-97482819D01*
X174553618Y-96435200D02*
X174791713Y-97149485D01*
X174791713Y-97149485D02*
X174172666Y-97149485D01*
X187332857Y-84528819D02*
X187666190Y-84052628D01*
X187904285Y-84528819D02*
X187904285Y-83528819D01*
X187904285Y-83528819D02*
X187523333Y-83528819D01*
X187523333Y-83528819D02*
X187428095Y-83576438D01*
X187428095Y-83576438D02*
X187380476Y-83624057D01*
X187380476Y-83624057D02*
X187332857Y-83719295D01*
X187332857Y-83719295D02*
X187332857Y-83862152D01*
X187332857Y-83862152D02*
X187380476Y-83957390D01*
X187380476Y-83957390D02*
X187428095Y-84005009D01*
X187428095Y-84005009D02*
X187523333Y-84052628D01*
X187523333Y-84052628D02*
X187904285Y-84052628D01*
X186380476Y-84528819D02*
X186951904Y-84528819D01*
X186666190Y-84528819D02*
X186666190Y-83528819D01*
X186666190Y-83528819D02*
X186761428Y-83671676D01*
X186761428Y-83671676D02*
X186856666Y-83766914D01*
X186856666Y-83766914D02*
X186951904Y-83814533D01*
X186047142Y-83528819D02*
X185428095Y-83528819D01*
X185428095Y-83528819D02*
X185761428Y-83909771D01*
X185761428Y-83909771D02*
X185618571Y-83909771D01*
X185618571Y-83909771D02*
X185523333Y-83957390D01*
X185523333Y-83957390D02*
X185475714Y-84005009D01*
X185475714Y-84005009D02*
X185428095Y-84100247D01*
X185428095Y-84100247D02*
X185428095Y-84338342D01*
X185428095Y-84338342D02*
X185475714Y-84433580D01*
X185475714Y-84433580D02*
X185523333Y-84481200D01*
X185523333Y-84481200D02*
X185618571Y-84528819D01*
X185618571Y-84528819D02*
X185904285Y-84528819D01*
X185904285Y-84528819D02*
X185999523Y-84481200D01*
X185999523Y-84481200D02*
X186047142Y-84433580D01*
X167085313Y-67488678D02*
X166839587Y-66961908D01*
X167371027Y-66993807D02*
X166505002Y-66493807D01*
X166505002Y-66493807D02*
X166314526Y-66823721D01*
X166314526Y-66823721D02*
X166308146Y-66930009D01*
X166308146Y-66930009D02*
X166325576Y-66995058D01*
X166325576Y-66995058D02*
X166384245Y-67083916D01*
X166384245Y-67083916D02*
X166507963Y-67155345D01*
X166507963Y-67155345D02*
X166614251Y-67161725D01*
X166614251Y-67161725D02*
X166679300Y-67144295D01*
X166679300Y-67144295D02*
X166768158Y-67085626D01*
X166768158Y-67085626D02*
X166958634Y-66755711D01*
X166111290Y-67366212D02*
X166046241Y-67383642D01*
X166046241Y-67383642D02*
X165957383Y-67442311D01*
X165957383Y-67442311D02*
X165838335Y-67648507D01*
X165838335Y-67648507D02*
X165831955Y-67754795D01*
X165831955Y-67754795D02*
X165849385Y-67819844D01*
X165849385Y-67819844D02*
X165908054Y-67908703D01*
X165908054Y-67908703D02*
X165990533Y-67956322D01*
X165990533Y-67956322D02*
X166138060Y-67986511D01*
X166138060Y-67986511D02*
X166918646Y-67777354D01*
X166918646Y-67777354D02*
X166609122Y-68313464D01*
X165828536Y-68522622D02*
X165834916Y-68416334D01*
X165834916Y-68416334D02*
X165817486Y-68351285D01*
X165817486Y-68351285D02*
X165758817Y-68262427D01*
X165758817Y-68262427D02*
X165717578Y-68238617D01*
X165717578Y-68238617D02*
X165611290Y-68232237D01*
X165611290Y-68232237D02*
X165546241Y-68249667D01*
X165546241Y-68249667D02*
X165457383Y-68308336D01*
X165457383Y-68308336D02*
X165362145Y-68473293D01*
X165362145Y-68473293D02*
X165355765Y-68579582D01*
X165355765Y-68579582D02*
X165373195Y-68644630D01*
X165373195Y-68644630D02*
X165431864Y-68733489D01*
X165431864Y-68733489D02*
X165473103Y-68757298D01*
X165473103Y-68757298D02*
X165579391Y-68763678D01*
X165579391Y-68763678D02*
X165644440Y-68746248D01*
X165644440Y-68746248D02*
X165733298Y-68687579D01*
X165733298Y-68687579D02*
X165828536Y-68522622D01*
X165828536Y-68522622D02*
X165917395Y-68463953D01*
X165917395Y-68463953D02*
X165982444Y-68446523D01*
X165982444Y-68446523D02*
X166088732Y-68452903D01*
X166088732Y-68452903D02*
X166253689Y-68548141D01*
X166253689Y-68548141D02*
X166312358Y-68636999D01*
X166312358Y-68636999D02*
X166329788Y-68702048D01*
X166329788Y-68702048D02*
X166323408Y-68808336D01*
X166323408Y-68808336D02*
X166228170Y-68973293D01*
X166228170Y-68973293D02*
X166139312Y-69031962D01*
X166139312Y-69031962D02*
X166074263Y-69049392D01*
X166074263Y-69049392D02*
X165967975Y-69043013D01*
X165967975Y-69043013D02*
X165803018Y-68947774D01*
X165803018Y-68947774D02*
X165744348Y-68858916D01*
X165744348Y-68858916D02*
X165726919Y-68793867D01*
X165726919Y-68793867D02*
X165733298Y-68687579D01*
D12*
%TO.C,R14*%
X189976388Y-85583500D02*
X189501872Y-85583500D01*
X189976388Y-86628500D02*
X189501872Y-86628500D01*
%TO.C,R7*%
X179815258Y-85329500D02*
X179340742Y-85329500D01*
X179815258Y-86374500D02*
X179340742Y-86374500D01*
%TO.C,R5*%
X177720258Y-92909505D02*
X177245742Y-92909505D01*
X177720258Y-93954505D02*
X177245742Y-93954505D01*
%TO.C,R11*%
X189976386Y-79741502D02*
X189501870Y-79741502D01*
X189976386Y-80786502D02*
X189501870Y-80786502D01*
%TO.C,R8*%
X179814129Y-83551500D02*
X179339613Y-83551500D01*
X179814129Y-84596500D02*
X179339613Y-84596500D01*
%TO.C,R23*%
X174280234Y-75625264D02*
X174042977Y-76036208D01*
X175185229Y-76147764D02*
X174947972Y-76558708D01*
%TO.C,R24*%
X172098968Y-74319040D02*
X171861711Y-74729984D01*
X173003963Y-74841540D02*
X172766706Y-75252484D01*
%TO.C,C2*%
X167669917Y-136514537D02*
X167426424Y-136655118D01*
X168179916Y-137397882D02*
X167936423Y-137538463D01*
%TO.C,R10*%
X179814128Y-79995500D02*
X179339612Y-79995500D01*
X179814128Y-81040500D02*
X179339612Y-81040500D01*
%TO.C,R12*%
X189976389Y-81773500D02*
X189501873Y-81773500D01*
X189976389Y-82818500D02*
X189501873Y-82818500D01*
%TO.C,R6*%
X177720260Y-91171500D02*
X177245744Y-91171500D01*
X177720260Y-92216500D02*
X177245744Y-92216500D01*
%TO.C,R16*%
X191245257Y-97120505D02*
X190770741Y-97120505D01*
X191245257Y-98165505D02*
X190770741Y-98165505D01*
%TO.C,R26*%
X167717811Y-71738853D02*
X167480554Y-72149797D01*
X168622806Y-72261353D02*
X168385549Y-72672297D01*
%TO.C,R25*%
X169917702Y-72987454D02*
X169680445Y-73398398D01*
X170822697Y-73509954D02*
X170585440Y-73920898D01*
%TO.C,C3*%
X166592084Y-135144118D02*
X166835577Y-135003537D01*
X167102083Y-136027463D02*
X167345576Y-135886882D01*
%TO.C,R17*%
X191245258Y-98898503D02*
X190770742Y-98898503D01*
X191245258Y-99943503D02*
X190770742Y-99943503D01*
%TO.C,R3*%
X177720258Y-94727500D02*
X177245742Y-94727500D01*
X177720258Y-95772500D02*
X177245742Y-95772500D01*
%TO.C,R18*%
X191245258Y-100676504D02*
X190770742Y-100676504D01*
X191245258Y-101721504D02*
X190770742Y-101721504D01*
%TO.C,R9*%
X179814130Y-81773500D02*
X179339614Y-81773500D01*
X179814130Y-82818500D02*
X179339614Y-82818500D01*
%TO.C,R15*%
X191245257Y-95342505D02*
X190770741Y-95342505D01*
X191245257Y-96387505D02*
X190770741Y-96387505D01*
%TO.C,R27*%
X165529807Y-70527189D02*
X165292550Y-70938133D01*
X166434802Y-71049689D02*
X166197545Y-71460633D01*
%TO.C,R4*%
X177720257Y-96505500D02*
X177245741Y-96505500D01*
X177720257Y-97550500D02*
X177245741Y-97550500D01*
%TO.C,R13*%
X189976389Y-83551502D02*
X189501873Y-83551502D01*
X189976389Y-84596502D02*
X189501873Y-84596502D01*
%TO.C,R28*%
X163373905Y-69297056D02*
X163136648Y-69708000D01*
X164278900Y-69819556D02*
X164041643Y-70230500D01*
%TD*%
M02*
