%TF.GenerationSoftware,KiCad,Pcbnew,8.0.5*%
%TF.CreationDate,2024-10-28T13:04:21+01:00*%
%TF.ProjectId,Hexapod_kiCad,48657861-706f-4645-9f6b-694361642e6b,rev?*%
%TF.SameCoordinates,Original*%
%TF.FileFunction,Soldermask,Bot*%
%TF.FilePolarity,Negative*%
%FSLAX46Y46*%
G04 Gerber Fmt 4.6, Leading zero omitted, Abs format (unit mm)*
G04 Created by KiCad (PCBNEW 8.0.5) date 2024-10-28 13:04:21*
%MOMM*%
%LPD*%
G01*
G04 APERTURE LIST*
G04 Aperture macros list*
%AMRoundRect*
0 Rectangle with rounded corners*
0 $1 Rounding radius*
0 $2 $3 $4 $5 $6 $7 $8 $9 X,Y pos of 4 corners*
0 Add a 4 corners polygon primitive as box body*
4,1,4,$2,$3,$4,$5,$6,$7,$8,$9,$2,$3,0*
0 Add four circle primitives for the rounded corners*
1,1,$1+$1,$2,$3*
1,1,$1+$1,$4,$5*
1,1,$1+$1,$6,$7*
1,1,$1+$1,$8,$9*
0 Add four rect primitives between the rounded corners*
20,1,$1+$1,$2,$3,$4,$5,0*
20,1,$1+$1,$4,$5,$6,$7,0*
20,1,$1+$1,$6,$7,$8,$9,0*
20,1,$1+$1,$8,$9,$2,$3,0*%
%AMHorizOval*
0 Thick line with rounded ends*
0 $1 width*
0 $2 $3 position (X,Y) of the first rounded end (center of the circle)*
0 $4 $5 position (X,Y) of the second rounded end (center of the circle)*
0 Add line between two ends*
20,1,$1,$2,$3,$4,$5,0*
0 Add two circle primitives to create the rounded ends*
1,1,$1,$2,$3*
1,1,$1,$4,$5*%
%AMRotRect*
0 Rectangle, with rotation*
0 The origin of the aperture is its center*
0 $1 length*
0 $2 width*
0 $3 Rotation angle, in degrees counterclockwise*
0 Add horizontal line*
21,1,$1,$2,0,0,$3*%
G04 Aperture macros list end*
%ADD10R,1.700000X1.700000*%
%ADD11O,1.700000X1.700000*%
%ADD12C,0.700000*%
%ADD13C,4.400000*%
%ADD14RoundRect,0.250000X-0.750000X0.600000X-0.750000X-0.600000X0.750000X-0.600000X0.750000X0.600000X0*%
%ADD15O,2.000000X1.700000*%
%ADD16RotRect,1.700000X1.700000X240.000000*%
%ADD17HorizOval,1.700000X0.000000X0.000000X0.000000X0.000000X0*%
%ADD18RotRect,1.700000X1.700000X120.000000*%
%ADD19HorizOval,1.700000X0.000000X0.000000X0.000000X0.000000X0*%
%ADD20RoundRect,0.200000X-0.200000X-0.275000X0.200000X-0.275000X0.200000X0.275000X-0.200000X0.275000X0*%
%ADD21RoundRect,0.200000X0.138157X-0.310705X0.338157X0.035705X-0.138157X0.310705X-0.338157X-0.035705X0*%
%ADD22RoundRect,0.225000X-0.069856X-0.329006X0.319856X-0.104006X0.069856X0.329006X-0.319856X0.104006X0*%
%ADD23RoundRect,0.225000X0.069856X0.329006X-0.319856X0.104006X-0.069856X-0.329006X0.319856X-0.104006X0*%
G04 APERTURE END LIST*
D10*
%TO.C,St-Link*%
X135128000Y-128016000D03*
D11*
X137668001Y-128016001D03*
X140208000Y-128016000D03*
X142748000Y-128016000D03*
X145287999Y-128016000D03*
%TD*%
D10*
%TO.C,J5*%
X122179000Y-109728000D03*
D11*
X119639000Y-109728000D03*
%TD*%
D10*
%TO.C,J16*%
X151638000Y-123195000D03*
D11*
X151638001Y-120654997D03*
%TD*%
D12*
%TO.C,H5*%
X138275000Y-79992666D03*
X138758274Y-78825940D03*
X138758274Y-81159392D03*
X139925000Y-78342666D03*
D13*
X139925000Y-79992666D03*
D12*
X139925000Y-81642666D03*
X141091726Y-78825940D03*
X141091726Y-81159392D03*
X141575000Y-79992666D03*
%TD*%
%TO.C,H4*%
X163225000Y-123207334D03*
X163708274Y-122040608D03*
X163708274Y-124374060D03*
X164875000Y-121557334D03*
D13*
X164875000Y-123207334D03*
D12*
X164875000Y-124857334D03*
X166041726Y-122040608D03*
X166041726Y-124374060D03*
X166525000Y-123207334D03*
%TD*%
%TO.C,H2*%
X175700000Y-101600000D03*
X176183274Y-100433274D03*
X176183274Y-102766726D03*
X177350000Y-99950000D03*
D13*
X177350000Y-101600000D03*
D12*
X177350000Y-103250000D03*
X178516726Y-100433274D03*
X178516726Y-102766726D03*
X179000000Y-101600000D03*
%TD*%
%TO.C,H3*%
X125800000Y-101600000D03*
X126283274Y-100433274D03*
X126283274Y-102766726D03*
X127450000Y-99950000D03*
D13*
X127450000Y-101600000D03*
D12*
X127450000Y-103250000D03*
X128616726Y-100433274D03*
X128616726Y-102766726D03*
X129100000Y-101600000D03*
%TD*%
D14*
%TO.C,J2*%
X113555001Y-101620001D03*
D15*
X113555001Y-104120002D03*
%TD*%
D12*
%TO.C,H1*%
X163225000Y-79992666D03*
X163708274Y-78825940D03*
X163708274Y-81159392D03*
X164875000Y-78342666D03*
D13*
X164875000Y-79992666D03*
D12*
X164875000Y-81642666D03*
X166041726Y-78825940D03*
X166041726Y-81159392D03*
X166525000Y-79992666D03*
%TD*%
D16*
%TO.C,J10*%
X130718817Y-133857999D03*
D17*
X128519110Y-132587997D03*
X126319408Y-131317999D03*
X124119703Y-130047999D03*
X121920000Y-128777999D03*
X119720295Y-127507999D03*
X117520589Y-126237998D03*
X115320886Y-124967999D03*
%TD*%
D18*
%TO.C,J4*%
X158330739Y-144399001D03*
D19*
X160530445Y-143129001D03*
X162730148Y-141859001D03*
X164929853Y-140589001D03*
X167129556Y-139319002D03*
X169329261Y-138049002D03*
%TD*%
D12*
%TO.C,H6*%
X138275000Y-123207334D03*
X138758274Y-122040608D03*
X138758274Y-124374060D03*
X139925000Y-121557334D03*
D13*
X139925000Y-123207334D03*
D12*
X139925000Y-124857334D03*
X141091726Y-122040608D03*
X141091726Y-124374060D03*
X141575000Y-123207334D03*
%TD*%
D20*
%TO.C,R14*%
X188914130Y-86106000D03*
X190564130Y-86106000D03*
%TD*%
%TO.C,R7*%
X178753000Y-85852000D03*
X180403000Y-85852000D03*
%TD*%
%TO.C,R5*%
X176658000Y-93432005D03*
X178308000Y-93432005D03*
%TD*%
%TO.C,R11*%
X188914128Y-80264002D03*
X190564128Y-80264002D03*
%TD*%
%TO.C,R8*%
X178751871Y-84074000D03*
X180401871Y-84074000D03*
%TD*%
D21*
%TO.C,R23*%
X174201603Y-76806457D03*
X175026603Y-75377515D03*
%TD*%
%TO.C,R24*%
X172020337Y-75500233D03*
X172845337Y-74071291D03*
%TD*%
D22*
%TO.C,C2*%
X167132000Y-137414000D03*
X168474340Y-136639000D03*
%TD*%
D20*
%TO.C,R10*%
X178751870Y-80518000D03*
X180401870Y-80518000D03*
%TD*%
%TO.C,R12*%
X188914131Y-82296000D03*
X190564131Y-82296000D03*
%TD*%
%TO.C,R6*%
X176658002Y-91694000D03*
X178308002Y-91694000D03*
%TD*%
%TO.C,R16*%
X190182999Y-97643005D03*
X191832999Y-97643005D03*
%TD*%
D21*
%TO.C,R26*%
X167639180Y-72920046D03*
X168464180Y-71491104D03*
%TD*%
%TO.C,R25*%
X169839071Y-74168647D03*
X170664071Y-72739705D03*
%TD*%
D23*
%TO.C,C3*%
X167640000Y-135128000D03*
X166297660Y-135903000D03*
%TD*%
D20*
%TO.C,R17*%
X190183000Y-99421003D03*
X191833000Y-99421003D03*
%TD*%
%TO.C,R3*%
X176658000Y-95250000D03*
X178308000Y-95250000D03*
%TD*%
%TO.C,R18*%
X190183000Y-101199004D03*
X191833000Y-101199004D03*
%TD*%
%TO.C,R9*%
X178751872Y-82296000D03*
X180401872Y-82296000D03*
%TD*%
%TO.C,R15*%
X190182999Y-95865005D03*
X191832999Y-95865005D03*
%TD*%
D21*
%TO.C,R27*%
X165451176Y-71708382D03*
X166276176Y-70279440D03*
%TD*%
D20*
%TO.C,R4*%
X176657999Y-97028000D03*
X178307999Y-97028000D03*
%TD*%
%TO.C,R13*%
X188914131Y-84074002D03*
X190564131Y-84074002D03*
%TD*%
D21*
%TO.C,R28*%
X163295274Y-70478249D03*
X164120274Y-69049307D03*
%TD*%
M02*
