%TF.GenerationSoftware,KiCad,Pcbnew,8.0.5*%
%TF.CreationDate,2024-10-28T13:04:21+01:00*%
%TF.ProjectId,Hexapod_kiCad,48657861-706f-4645-9f6b-694361642e6b,rev?*%
%TF.SameCoordinates,Original*%
%TF.FileFunction,Paste,Bot*%
%TF.FilePolarity,Positive*%
%FSLAX46Y46*%
G04 Gerber Fmt 4.6, Leading zero omitted, Abs format (unit mm)*
G04 Created by KiCad (PCBNEW 8.0.5) date 2024-10-28 13:04:21*
%MOMM*%
%LPD*%
G01*
G04 APERTURE LIST*
G04 Aperture macros list*
%AMRoundRect*
0 Rectangle with rounded corners*
0 $1 Rounding radius*
0 $2 $3 $4 $5 $6 $7 $8 $9 X,Y pos of 4 corners*
0 Add a 4 corners polygon primitive as box body*
4,1,4,$2,$3,$4,$5,$6,$7,$8,$9,$2,$3,0*
0 Add four circle primitives for the rounded corners*
1,1,$1+$1,$2,$3*
1,1,$1+$1,$4,$5*
1,1,$1+$1,$6,$7*
1,1,$1+$1,$8,$9*
0 Add four rect primitives between the rounded corners*
20,1,$1+$1,$2,$3,$4,$5,0*
20,1,$1+$1,$4,$5,$6,$7,0*
20,1,$1+$1,$6,$7,$8,$9,0*
20,1,$1+$1,$8,$9,$2,$3,0*%
G04 Aperture macros list end*
%ADD10RoundRect,0.200000X-0.200000X-0.275000X0.200000X-0.275000X0.200000X0.275000X-0.200000X0.275000X0*%
%ADD11RoundRect,0.200000X0.138157X-0.310705X0.338157X0.035705X-0.138157X0.310705X-0.338157X-0.035705X0*%
%ADD12RoundRect,0.225000X-0.069856X-0.329006X0.319856X-0.104006X0.069856X0.329006X-0.319856X0.104006X0*%
%ADD13RoundRect,0.225000X0.069856X0.329006X-0.319856X0.104006X-0.069856X-0.329006X0.319856X-0.104006X0*%
G04 APERTURE END LIST*
D10*
%TO.C,R14*%
X188914130Y-86106000D03*
X190564130Y-86106000D03*
%TD*%
%TO.C,R7*%
X178753000Y-85852000D03*
X180403000Y-85852000D03*
%TD*%
%TO.C,R5*%
X176658000Y-93432005D03*
X178308000Y-93432005D03*
%TD*%
%TO.C,R11*%
X188914128Y-80264002D03*
X190564128Y-80264002D03*
%TD*%
%TO.C,R8*%
X178751871Y-84074000D03*
X180401871Y-84074000D03*
%TD*%
D11*
%TO.C,R23*%
X174201603Y-76806457D03*
X175026603Y-75377515D03*
%TD*%
%TO.C,R24*%
X172020337Y-75500233D03*
X172845337Y-74071291D03*
%TD*%
D12*
%TO.C,C2*%
X167132000Y-137414000D03*
X168474340Y-136639000D03*
%TD*%
D10*
%TO.C,R10*%
X178751870Y-80518000D03*
X180401870Y-80518000D03*
%TD*%
%TO.C,R12*%
X188914131Y-82296000D03*
X190564131Y-82296000D03*
%TD*%
%TO.C,R6*%
X176658002Y-91694000D03*
X178308002Y-91694000D03*
%TD*%
%TO.C,R16*%
X190182999Y-97643005D03*
X191832999Y-97643005D03*
%TD*%
D11*
%TO.C,R26*%
X167639180Y-72920046D03*
X168464180Y-71491104D03*
%TD*%
%TO.C,R25*%
X169839071Y-74168647D03*
X170664071Y-72739705D03*
%TD*%
D13*
%TO.C,C3*%
X167640000Y-135128000D03*
X166297660Y-135903000D03*
%TD*%
D10*
%TO.C,R17*%
X190183000Y-99421003D03*
X191833000Y-99421003D03*
%TD*%
%TO.C,R3*%
X176658000Y-95250000D03*
X178308000Y-95250000D03*
%TD*%
%TO.C,R18*%
X190183000Y-101199004D03*
X191833000Y-101199004D03*
%TD*%
%TO.C,R9*%
X178751872Y-82296000D03*
X180401872Y-82296000D03*
%TD*%
%TO.C,R15*%
X190182999Y-95865005D03*
X191832999Y-95865005D03*
%TD*%
D11*
%TO.C,R27*%
X165451176Y-71708382D03*
X166276176Y-70279440D03*
%TD*%
D10*
%TO.C,R4*%
X176657999Y-97028000D03*
X178307999Y-97028000D03*
%TD*%
%TO.C,R13*%
X188914131Y-84074002D03*
X190564131Y-84074002D03*
%TD*%
D11*
%TO.C,R28*%
X163295274Y-70478249D03*
X164120274Y-69049307D03*
%TD*%
M02*
